<svg width="55" height="56" viewBox="0 0 55 56" fill="none" xmlns="http://www.w3.org/2000/svg">
<path d="M54.8854 28.3021C54.8281 28.474 54.7708 28.5885 54.7135 28.7604C54.1406 30.5365 52.5938 31.7396 50.7604 31.7396C48.8698 31.7396 47.2656 30.651 46.6927 28.8177C46.6354 28.7031 46.5781 28.5313 46.5781 28.4167C45.0885 28.4167 43.6563 28.4167 42.1094 28.4167C43.8854 30.0208 44.5729 31.9687 43.8281 34.2031C43.0833 36.4375 41.4219 37.5833 39.0156 37.8698C39.8177 38.7292 40.6198 39.5313 41.4792 40.3333C41.5365 40.3906 41.8802 40.3333 42.0521 40.276C44.4583 39.1302 47.2656 40.3333 48.0104 42.9115C48.526 44.7448 47.7813 46.6354 46.1771 47.6094C44.5729 48.5833 42.5677 48.4115 41.1354 47.151C39.7604 45.9479 39.3021 43.9427 40.1615 42.2812C40.3906 41.8229 40.3333 41.5938 39.9896 41.3073C38.9583 40.276 37.9271 39.2448 36.8385 38.2135C36.6667 38.0417 36.4375 37.9271 36.2656 37.9271C33.6875 37.9271 31.1094 37.9271 28.5313 37.9271C28.474 37.9271 28.4167 37.9271 28.3594 37.9844C28.3594 40.9062 28.3594 43.8281 28.3594 46.8073C29.6198 47.151 30.5938 47.8385 31.224 49.0417C31.6823 49.9583 31.7969 50.9323 31.5677 51.9063C31.1094 53.9115 29.3333 55.2292 27.1562 55.1146C25.2656 55 23.5469 53.3958 23.3177 51.4479C23.0313 49.3281 24.2917 47.4948 26.5833 46.8073C26.5833 43.8854 26.5833 40.9635 26.5833 37.9271C26.4115 37.9271 26.2396 37.9271 26.0677 37.9271C23.6615 37.9271 21.2552 37.9271 18.7917 37.9271C18.5052 37.9271 18.2188 38.099 18.0469 38.2708C16.9583 39.3021 15.9271 40.3906 14.8385 41.4219C14.6094 41.651 14.5521 41.8229 14.724 42.1667C15.526 43.7135 15.3542 45.2604 14.3229 46.6354C13.2917 48.0104 11.8594 48.526 10.1979 48.1823C8.47917 47.8385 7.39063 46.75 6.98958 45.0313C6.58854 43.3698 7.10417 41.8802 8.42188 40.7917C9.79688 39.7031 11.3438 39.5312 12.8906 40.276C13.2917 40.4479 13.4635 40.4479 13.75 40.1042C14.4375 39.3594 15.1823 38.6146 15.9844 37.8125C13.8073 37.4115 12.1458 36.2656 11.2865 34.2604C10.4271 32.1979 10.7708 30.25 12.0313 28.4167C10.7708 28.4167 9.56771 28.4167 8.36458 28.4167C7.79167 30.4792 6.01563 32.0833 3.4375 31.625C1.375 31.2812 0 29.5052 0 27.4427C0 25.3802 1.54688 23.6615 3.55208 23.375C5.67188 23.0313 7.44792 24.2344 8.30729 26.6979C9.68229 26.6979 11.0573 26.6979 12.4896 26.6979C13.5208 26.6979 14.4948 26.6979 15.4688 26.2969C15.5833 26.2396 15.7552 26.125 15.8125 25.9531C16.5573 22.6302 16.5573 22.6302 18.6198 19.9375C16.901 18.2188 15.1823 16.5 13.4635 14.7813C13.349 14.6667 13.0625 14.724 12.8906 14.7813C10.4844 15.9271 7.61979 14.6667 6.93229 12.0885C6.47396 10.3125 7.21875 8.42188 8.76563 7.44792C10.3125 6.47396 12.375 6.64583 13.75 7.90625C15.125 9.10938 15.5833 11.1146 14.724 12.776C14.4948 13.2344 14.5521 13.4635 14.8958 13.75C16.5 15.2969 18.0469 16.901 19.651 18.5052C19.9375 18.7917 20.1094 18.7917 20.3958 18.6198C22.2865 17.5313 24.2917 17.1875 26.4688 17.5313C26.4688 14.4375 26.4688 11.401 26.4688 8.47917C25.8385 8.13542 25.151 7.84896 24.6354 7.39063C23.375 6.30208 22.9167 4.86979 23.2604 3.20833C23.6615 1.60417 24.6927 0.572917 26.2969 0.114583C26.4115 0.0572917 26.5833 0.0572917 26.6979 0C27.1563 0 27.5573 0 28.0156 0C28.1302 0.0572917 28.3021 0.114583 28.4167 0.114583C30.1354 0.572917 31.4531 2.0625 31.5677 3.78125C31.6823 5.61458 30.7083 7.27604 29.0469 8.02083C28.7604 8.13542 28.5313 8.19271 28.2448 8.30729C28.2448 8.36458 28.1875 8.42188 28.1875 8.47917C28.1875 11.5156 28.1875 14.6094 28.1875 17.6458C28.1875 17.9323 28.3594 18.0469 28.5885 18.1042C29.7344 18.6198 30.7656 19.3073 31.625 20.224C31.9115 20.5104 32.1406 20.8542 32.4271 21.1406C34.9479 18.6198 37.4688 16.1563 39.9323 13.6354C39.9896 13.5781 40.0469 13.5208 40.1042 13.4635C40.1615 13.2917 40.1615 13.1198 40.1615 12.9479C39.9896 12.2604 39.7031 11.5156 39.7031 10.8281C39.7031 8.9375 41.0208 7.33333 42.8542 6.875C44.6302 6.41667 46.5208 7.21875 47.4948 8.82292C48.4688 10.4271 48.2396 12.4896 46.9792 13.8646C45.7188 15.2396 43.7135 15.5833 41.9948 14.724C41.651 14.5521 41.4792 14.6094 41.25 14.8385C39.3594 16.7292 37.4115 18.6771 35.5208 20.5677C35.4063 20.6823 35.2917 20.7969 35.1771 20.9687C36.6094 21.1979 37.8125 21.8281 38.7292 22.8594C39.6458 23.8906 40.1615 25.151 40.2188 26.526C42.3385 26.526 44.4583 26.526 46.5781 26.526C46.6354 26.3542 46.6927 26.1823 46.75 26.0677C47.3802 24.4635 48.526 23.4896 50.2448 23.2604C52.0208 23.0312 53.3958 23.7187 54.3125 25.2656C54.599 25.724 54.7135 26.1823 54.9427 26.6979C54.8854 27.3281 54.8854 27.7865 54.8854 28.3021ZM27.7865 36.151C31.5104 36.151 35.2344 36.151 38.9583 36.151C40.849 36.151 42.3958 34.6615 42.5104 32.7135C42.625 30.9375 41.1927 29.276 39.4167 29.0469C38.4427 28.9323 38.2135 28.5885 38.3854 27.6146C38.6719 26.0104 38.2135 24.6927 37.0104 23.6615C35.8073 22.6302 34.4323 22.4583 32.9427 22.974C31.9115 23.375 31.8542 23.3177 31.224 22.401C28.3594 18.2187 22.2865 17.9896 19.1354 21.9427C17.9896 23.3177 17.474 24.9219 17.474 26.6979C17.474 27.5 17.2448 27.7292 16.4427 27.8438C15.3542 27.9583 14.3802 28.3594 13.6927 29.2188C12.5469 30.5365 12.2604 32.026 12.9479 33.6302C13.6354 35.2344 14.9531 36.0938 16.7292 36.0938C20.3958 36.151 24.0625 36.151 27.7865 36.151ZM27.3854 6.76042C28.7604 6.76042 29.849 5.67188 29.849 4.23958C29.849 2.86458 28.7031 1.77604 27.3281 1.77604C25.9531 1.77604 24.8646 2.92188 24.8646 4.29688C24.9219 5.67188 26.0104 6.76042 27.3854 6.76042ZM6.58854 27.6146C6.58854 26.2396 5.5 25.0938 4.125 25.0938C2.75 25.0938 1.60417 26.1823 1.60417 27.5573C1.60417 28.9323 2.69271 30.0208 4.06771 30.0208C5.44271 30.0208 6.53125 28.9323 6.58854 27.6146ZM27.3854 48.3542C26.0104 48.3542 24.9219 49.4427 24.9219 50.8177C24.9219 52.1927 26.0677 53.2813 27.4427 53.2813C28.8177 53.2813 29.9063 52.1354 29.9063 50.7604C29.849 49.4427 28.7604 48.3542 27.3854 48.3542ZM8.42188 11.1146C8.42188 12.4896 9.56771 13.5781 10.9427 13.5781C12.2604 13.5781 13.4063 12.4323 13.4063 11.1146C13.4063 9.73958 12.2604 8.65104 10.8854 8.65104C9.51042 8.65104 8.42188 9.73958 8.42188 11.1146ZM48.1823 27.5573C48.1823 28.9323 49.2708 30.0781 50.6458 30.0781C52.0208 30.0781 53.1094 28.9896 53.1667 27.6719C53.1667 26.2969 52.0781 25.151 50.7031 25.151C49.3281 25.0365 48.2396 26.125 48.1823 27.5573ZM43.8854 46.5208C45.2604 46.5208 46.349 45.375 46.349 44C46.2917 42.625 45.2031 41.5365 43.8854 41.5365C42.5104 41.5365 41.3646 42.6823 41.4219 44.0573C41.4219 45.4323 42.5104 46.5208 43.8854 46.5208ZM46.349 11.0573C46.349 9.68229 45.2031 8.59375 43.8281 8.59375C42.4531 8.59375 41.3646 9.68229 41.3646 11.0573C41.3646 12.4323 42.5104 13.5781 43.8281 13.5781C45.2031 13.5781 46.349 12.4323 46.349 11.0573ZM10.9427 46.5208C12.3177 46.5208 13.4635 45.375 13.4063 44C13.4063 42.625 12.2604 41.5365 10.9427 41.5365C9.56771 41.5365 8.47917 42.6823 8.47917 44.0573C8.47917 45.4323 9.56771 46.5208 10.9427 46.5208Z" fill="#E54800"/>
</svg>
