<svg width="55" height="55" viewBox="0 0 55 55" fill="none" xmlns="http://www.w3.org/2000/svg">
<path d="M31.6532 18.1285C31.9677 18.3001 32.2822 18.4574 32.6396 18.6432C33.4832 16.8275 34.7985 15.4979 36.6857 14.6687C35.3846 13.1389 34.87 11.409 35.3846 9.45035C35.7278 8.16363 36.4712 7.13426 37.5721 6.36223C39.7738 4.81817 42.8476 5.08981 44.7491 7.00559C46.479 8.73551 47.1938 11.9237 44.8921 14.6687C45.035 14.7402 45.1637 14.826 45.2924 14.8832C47.2224 15.8839 48.5378 17.428 49.1811 19.501C49.2955 19.8585 49.4385 19.9442 49.7959 19.9728C50.9396 20.0586 52.0691 20.173 53.1985 20.3303C54.042 20.4446 54.2136 20.6877 54.2136 21.5455C54.2136 24.7766 54.2136 28.0077 54.2136 31.2531C54.2136 34.4841 54.2136 37.7152 54.2136 40.9606C54.2136 41.9185 53.9706 42.1616 53.0127 42.1616C50.9396 42.1616 48.8666 42.1616 46.7935 42.1616C45.8071 42.1616 45.707 42.0758 45.3781 41.1465C45.321 40.9606 45.2495 40.7748 45.178 40.5603C43.9485 41.1179 42.7332 41.6755 41.5037 42.233C42.2614 43.4054 42.433 44.6635 41.661 45.9216C40.8889 47.1798 39.6737 47.5944 38.2726 47.4371C37.9152 49.4387 36.5427 50.754 34.1265 50.4251C33.14 53.0272 31.6961 53.7849 29.2656 52.9128C29.2227 52.9986 29.1655 53.0843 29.1226 53.1701C28.1933 55.0573 25.9773 55.429 24.4904 53.9279C22.4317 51.8405 20.4015 49.7246 18.3428 47.6373C16.7701 46.0503 15.1975 44.4633 13.5676 42.9336C12.524 41.9614 11.2944 41.218 9.92195 40.7033C9.87906 40.7891 9.82187 40.8605 9.79328 40.9463C9.33578 42.1616 9.33578 42.1616 8.03476 42.1616C6.0475 42.1616 4.07454 42.1616 2.08727 42.1616C1.14368 42.1616 0.900635 41.9185 0.900635 41.0035C0.900635 34.5127 0.900635 28.0363 0.900635 21.5455C0.900635 20.702 1.0722 20.4875 1.93001 20.3446C2.55907 20.2445 3.20243 20.1587 3.84579 20.0872C4.48914 20.0157 5.1325 19.9871 5.80446 19.9442C6.46211 17.5281 7.93469 15.7696 10.2794 14.683C9.07843 13.3391 8.57805 11.7807 8.84969 10.0222C9.06414 8.66402 9.72179 7.54887 10.7798 6.66246C12.8814 4.91824 16.0267 4.97543 18.0569 6.79113C20.3301 8.83558 20.4873 11.552 18.4572 14.6973C20.2729 15.5122 21.6025 16.8132 22.4603 18.6718C22.8034 18.5003 23.1322 18.3287 23.4611 18.1714C21.0592 15.3549 21.8741 12.0095 23.8185 10.2939C25.9773 8.37808 29.2084 8.39238 31.3386 10.3225C33.2544 12.0238 34.0264 15.3407 31.6532 18.1285ZM10.408 39.1306C12.4239 39.9026 14.1109 41.075 15.5978 42.5476C17.6422 44.5777 19.6295 46.6508 21.6454 48.6952C22.9464 50.0248 24.2474 51.3544 25.5341 52.684C25.9201 53.0844 26.349 53.3131 26.9209 53.1129C27.793 52.7984 27.9932 51.7833 27.3069 51.0685C25.8201 49.5244 24.3189 47.9947 22.8177 46.4649C22.4174 46.0503 22.3888 45.5642 22.7319 45.2354C23.0751 44.9065 23.5469 44.9351 23.9615 45.3498C24.2617 45.6357 24.5333 45.9359 24.8336 46.2219C26.4062 47.8231 27.9789 49.4387 29.5658 51.0399C30.295 51.769 31.2814 51.7976 31.9677 51.1543C32.6682 50.4966 32.6539 49.4958 31.9105 48.7238C30.4379 47.194 28.9368 45.6786 27.4642 44.1488C27.0353 43.7056 26.9924 43.2195 27.3498 42.8764C27.7072 42.5333 28.179 42.5905 28.6222 43.0337C29.4086 43.8343 30.1949 44.6492 30.9812 45.4498C31.9248 46.4077 32.8398 47.3799 33.7977 48.3092C34.6984 49.1813 36.1138 48.8525 36.5141 47.723C36.7571 47.0368 36.557 46.4363 36.0566 45.9073C34.6269 44.4491 33.2115 42.9908 31.7818 41.5325C31.6675 41.4181 31.5531 41.3037 31.453 41.1751C31.1671 40.8033 31.1814 40.3601 31.5102 40.0742C31.8533 39.774 32.225 39.774 32.5825 40.0599C32.7254 40.1743 32.8398 40.303 32.9685 40.4316C34.5411 42.0472 36.1138 43.6484 37.7007 45.2497C38.3298 45.893 39.2162 45.9645 39.8882 45.4641C40.5172 45.0066 40.8032 44.1345 40.36 43.4626C39.931 42.8192 39.3449 42.2759 38.773 41.7469C38.3298 41.3323 37.7579 41.0607 37.3433 40.6461C34.584 37.9154 31.8533 35.1704 29.1083 32.4397C28.9797 32.311 28.8367 32.1823 28.6794 32.0394C27.6643 32.8543 26.8923 33.7264 26.878 35.1275C26.8637 36.5 26.2775 37.6866 25.2768 38.6445C23.8042 40.0599 22.0028 40.689 19.9869 40.7605C19.2721 40.7891 18.9862 40.5031 18.9862 39.774C18.9862 37.1291 18.9862 34.4841 18.9862 31.8392C18.9862 30.5668 19.4437 29.5088 20.3587 28.6367C20.7018 28.3079 21.0592 27.9648 21.4166 27.6502C21.6597 27.4358 21.917 27.2356 22.1601 27.0212C22.1172 26.9783 22.0886 26.9211 22.0457 26.8782C19.6152 27.207 17.2419 26.9068 14.9116 26.1491C13.3961 30.5096 11.9235 34.7844 10.408 39.1306ZM20.6017 39.2164C21.2737 39.0162 21.8884 38.8876 22.446 38.6445C24.2045 37.8725 25.2911 36.6144 25.3054 34.5842C25.3054 33.755 25.6199 32.9973 26.1489 32.3682C26.7065 31.7248 27.3355 31.1387 27.9646 30.5668C28.5936 29.9949 28.9082 30.0378 29.5086 30.6383C32.3251 33.4548 35.1416 36.2712 37.9581 39.0877C38.2583 39.388 38.5585 39.7025 38.8874 39.9741C39.5736 40.5603 40.4171 40.7748 41.2464 40.4888C42.3901 40.0742 43.491 39.5166 44.5346 39.0448C44.5632 38.9019 44.5775 38.8876 44.5775 38.8733C43.1335 34.6986 41.7039 30.5096 40.2456 26.3349C40.2027 26.2063 39.9453 26.0776 39.7738 26.049C38.8588 25.9346 37.9009 25.9775 37.0145 25.7631C35.2274 25.3485 33.4689 24.7909 31.7104 24.3191C29.5229 23.7329 27.55 24.1761 25.8772 25.6773C24.3618 27.0355 22.9035 28.4509 21.4166 29.852C20.8447 30.3952 20.5588 31.0672 20.5588 31.8535C20.5588 34.1553 20.5588 36.4571 20.5588 38.7589C20.5731 38.8876 20.5874 38.9877 20.6017 39.2164ZM40.8746 23.1467C42.8762 28.9513 44.8778 34.7272 46.8793 40.4888C48.7951 40.4888 50.6823 40.4888 52.5695 40.4888C52.5981 40.403 52.6267 40.3601 52.6267 40.303C52.6267 34.2697 52.6267 28.2221 52.641 22.1888C52.641 21.8743 52.498 21.8171 52.2263 21.7742C50.282 21.474 48.3519 21.4597 46.4075 21.717C44.506 21.9458 42.6903 22.4176 40.8746 23.1467ZM8.23492 40.5031C10.2365 34.7272 12.238 28.9513 14.2253 23.2039C14.1538 23.1324 14.1252 23.1038 14.0966 23.0895C10.5367 21.7028 6.86242 21.2167 3.05946 21.7456C2.60196 21.8028 2.48759 21.9601 2.48759 22.4033C2.50188 28.2507 2.50188 34.0838 2.50188 39.9312C2.50188 40.1171 2.51618 40.303 2.53048 40.5031C4.46055 40.5031 6.33344 40.5031 8.23492 40.5031ZM18.7431 25.4199C18.786 25.1912 18.8146 25.0911 18.8146 24.991C18.8575 23.0038 19.5866 21.3167 20.9162 19.8585C21.0163 19.7441 21.0306 19.4581 20.9591 19.3152C20.2157 17.6139 18.9433 16.4844 17.1705 15.9411C16.956 15.8696 16.6701 15.8982 16.4556 15.984C15.0259 16.5273 13.5962 16.5273 12.1666 15.984C11.9521 15.8982 11.6662 15.8839 11.4517 15.9554C10.2651 16.2985 9.26429 16.9419 8.52086 17.9284C8.07766 18.5289 7.74883 19.2151 7.31992 19.9299C7.70594 19.9871 7.92039 20.03 8.13484 20.0443C10.6082 20.2588 12.9815 20.9021 15.269 21.8457C16.041 22.1603 16.1697 22.4462 15.8837 23.2611C15.7265 23.7186 15.5835 24.1618 15.3976 24.7194C16.5557 24.9481 17.6423 25.1769 18.7431 25.4199ZM47.6228 19.8299C46.9079 17.8426 45.5497 16.4987 43.4767 15.8982C43.3051 15.8553 43.0907 15.8982 42.9191 15.9697C41.4894 16.5273 40.074 16.5273 38.63 15.984C38.4156 15.8982 38.1296 15.8839 37.9152 15.9411C36.1424 16.4844 34.8843 17.6139 34.1122 19.3009C33.9979 19.5582 34.0121 19.7298 34.2266 19.9585C35.2131 20.9879 35.8421 22.2174 36.1281 23.6042C36.1567 23.7472 36.2425 23.976 36.3282 23.9902C37.3862 24.1904 38.4442 24.3477 39.6165 24.5335C39.4021 23.9331 39.2591 23.5042 39.1161 23.0895C38.916 22.4748 39.0589 22.1174 39.6451 21.8886C40.6602 21.5026 41.6753 21.088 42.7189 20.8306C44.3488 20.4446 45.9643 20.173 47.6228 19.8299ZM27.55 18.2572C29.7517 18.2572 31.5245 16.513 31.5245 14.3399C31.5245 12.181 29.7231 10.4225 27.5357 10.4225C25.3768 10.4368 23.5897 12.181 23.5897 14.3113C23.5754 16.4987 25.3483 18.2429 27.55 18.2572ZM14.3254 6.96269C12.1237 6.96269 10.3652 8.70691 10.3794 10.8943C10.3937 13.0389 12.1523 14.7831 14.3254 14.7974C16.4985 14.8117 18.3142 13.0246 18.3285 10.88C18.3285 8.70691 16.5271 6.96269 14.3254 6.96269ZM40.7889 6.96269C38.5871 6.96269 36.8 8.72121 36.8 10.8657C36.8 13.0103 38.63 14.7974 40.8032 14.7831C42.9763 14.7688 44.7348 13.0246 44.7491 10.88C44.7491 8.70691 42.9906 6.96269 40.7889 6.96269ZM20.473 25.4914C21.6597 25.3056 22.8034 25.1626 23.9329 24.9481C24.2045 24.9052 24.4904 24.7337 24.7049 24.5478C25.8343 23.5328 27.1354 22.8608 28.6222 22.5892C30.2235 22.2889 31.7389 22.6035 33.2544 23.1038C33.6118 23.2182 33.9836 23.3326 34.4553 23.4756C33.6833 21.2881 32.2965 19.9585 30.1949 19.3724C30.0376 19.3295 29.8518 19.3867 29.6945 19.4581C28.2648 20.0157 26.8494 20.0157 25.4054 19.4724C25.191 19.3867 24.9193 19.3724 24.6906 19.4438C22.8892 19.9728 21.6168 21.1166 20.8733 22.8465C20.5445 23.6328 20.3872 24.4906 20.473 25.4914Z" fill="#E54800"/>
<path d="M28.3649 3.07394C28.3649 3.73159 28.3792 4.38925 28.3649 5.0469C28.3506 5.66167 28.0218 6.03339 27.5357 6.00479C27.0639 5.9905 26.7637 5.63307 26.7637 5.03261C26.7494 3.71729 26.7494 2.38769 26.7637 1.07238C26.7637 0.471909 27.0639 0.128785 27.5357 0.114488C28.0361 0.100191 28.3506 0.457612 28.3649 1.07238C28.3649 1.74433 28.3649 2.41628 28.3649 3.07394Z" fill="#E54800"/>
<path d="M21.0164 1.93018C21.1308 2.01596 21.4167 2.14463 21.5597 2.37338C22.2745 3.56002 22.9751 4.76095 23.647 5.97619C23.9043 6.43369 23.7757 6.90548 23.3754 7.13423C22.9893 7.34868 22.5319 7.22001 22.2745 6.79111C21.5597 5.57587 20.8448 4.36064 20.1729 3.13111C19.8583 2.55924 20.2158 1.94447 21.0164 1.93018Z" fill="#E54800"/>
<path d="M35.1416 2.58782C35.0273 2.88806 34.9987 3.05962 34.9129 3.21689C34.2409 4.38923 33.569 5.56157 32.8827 6.73391C32.6826 7.07704 32.3967 7.32008 32.0106 7.19141C31.7676 7.11993 31.5102 6.90547 31.3959 6.69102C31.3101 6.50516 31.353 6.19063 31.4674 5.99048C32.1393 4.77524 32.8399 3.57431 33.5404 2.37337C33.7549 2.00165 34.098 1.8015 34.484 1.97306C34.7556 2.08743 34.9415 2.40196 35.1416 2.58782Z" fill="#E54800"/>
</svg>
