<svg width="55" height="56" viewBox="0 0 55 56" fill="none" xmlns="http://www.w3.org/2000/svg">
<path d="M21.0825 53.0891C21.0825 48.8351 21.0825 44.6085 21.0825 40.3453C21.6972 40.3453 22.2569 40.3453 22.8715 40.3453C22.8715 45.1861 22.8715 50.0361 22.8715 55.0144C21.5871 54.9503 20.2752 55.0236 19.0275 54.7852C17.0825 54.4185 15.633 52.5665 15.6055 50.577C15.5688 47.3315 15.578 44.0951 15.6147 40.8496C15.6238 40.0794 15.844 39.3185 15.9816 38.475C15.7431 38.475 15.5046 38.475 15.266 38.475C13.0183 38.475 10.7614 38.475 8.51373 38.475C4.62383 38.4842 1.84401 41.2621 1.86236 45.1586C1.86236 46.6072 1.80731 48.0649 1.9908 49.4952C2.22016 51.283 3.88988 52.8232 5.51373 52.9699C5.51373 51.3288 5.51373 49.6969 5.51373 48.0558C5.51373 46.4147 5.51373 44.7736 5.51373 43.0958C6.11924 43.0958 6.69722 43.0958 7.32107 43.0958C7.32107 46.4147 7.32107 49.7244 7.32107 53.0983C10.0825 53.0983 12.7981 53.0983 15.5504 53.0983C15.5504 53.7309 15.5504 54.2901 15.5504 54.9502C15.3669 54.9502 15.1651 54.9502 14.9633 54.9502C12.1743 54.9502 9.39447 54.9502 6.60548 54.9502C2.78896 54.9411 0.00914673 52.1631 0.018321 48.3308C0.018321 46.8089 -0.0642478 45.2686 0.128413 43.7651C0.623826 39.7952 3.88988 36.7972 7.88071 36.678C10.7798 36.5955 13.6789 36.7147 16.578 36.7239C16.7614 36.7239 17.0091 36.6047 17.1192 36.4488C18.844 34.1201 21.1651 32.9833 24.0458 32.9833C26.3394 32.9741 28.6238 32.9741 30.9174 32.9833C33.7981 32.9924 36.1192 34.1201 37.8624 36.4397C37.9816 36.6047 38.2936 36.7147 38.5137 36.7147C41.5871 36.733 44.6605 36.5589 47.7156 36.7697C51.6422 37.0448 54.7706 40.4553 54.9449 44.3793C55.0183 46.1304 55.0458 47.8999 54.8348 49.6327C54.477 52.6032 51.7798 54.9044 48.789 54.9411C45.7706 54.9778 42.7614 54.9502 39.7431 54.9502C39.6514 54.9502 39.5596 54.9411 39.4312 54.9227C39.4312 54.336 39.4312 53.7767 39.4312 53.1441C42.1376 53.1441 44.8532 53.1441 47.6422 53.1441C47.6422 49.7519 47.6422 46.433 47.6422 43.0774C48.2752 43.0774 48.8348 43.0774 49.4587 43.0774C49.4587 46.3872 49.4587 49.6694 49.4587 52.9699C51.0825 52.8416 52.7339 51.283 53.0091 49.5043C53.1743 48.4775 53.1376 47.414 53.1284 46.3688C53.1192 45.397 53.1468 44.4068 52.9541 43.4717C52.3578 40.657 49.9449 38.6125 47.055 38.5117C44.4587 38.42 41.8624 38.4933 39.266 38.4933C39.1743 38.4933 39.0825 38.5208 39.0458 38.53C39.7247 42.564 39.3303 46.6072 39.3669 50.632C39.3853 52.9699 37.3486 54.8769 35.0092 54.9502C34.055 54.9778 33.1009 54.9502 32.1101 54.9502C32.1101 50.0819 32.1101 45.232 32.1101 40.3453C32.6789 40.3453 33.2477 40.3453 33.8807 40.3453C33.8807 44.581 33.8807 48.8167 33.8807 53.0433C36.055 53.4558 37.5688 52.2273 37.5688 50.1003C37.5688 47.2215 37.5688 44.3426 37.5688 41.4638C37.5596 37.6132 34.7798 34.8261 30.9266 34.8169C28.633 34.8077 26.3486 34.8077 24.055 34.8169C20.1835 34.8352 17.422 37.5949 17.4128 41.4547C17.4036 44.2418 17.4862 47.0289 17.3853 49.8069C17.3211 51.7505 18.4862 53.4192 21.0825 53.0891Z" fill="#E54800"/>
<path d="M49.5046 30.1869C49.5046 29.6185 49.5046 29.0501 49.5046 28.445C50.2294 28.3074 50.4129 27.8032 50.4037 27.1064C50.3762 25.502 50.3945 23.9067 50.3945 22.3023C50.3945 21.3763 50.0918 21.0829 49.1468 21.0829C47.7523 21.0829 46.3578 21.0921 44.9633 21.0646C44.789 21.0646 44.4955 20.9087 44.4588 20.7803C43.9817 18.8367 43.1927 17.0306 42.101 15.2978C43.1835 14.2251 44.2569 13.1616 45.3211 12.1072C46.0918 11.3463 46.0826 10.9795 45.312 10.2094C44.1927 9.0909 43.0734 7.96321 41.9542 6.85386C41.3211 6.22125 40.8808 6.21208 40.2478 6.83552C39.2661 7.80735 38.2753 8.78835 37.3028 9.78768C37.0551 10.0444 36.8716 10.1269 36.5413 9.91603C35.0184 8.95337 33.367 8.26576 31.6055 7.85319C31.2111 7.76151 31.1468 7.57814 31.156 7.22975C31.1744 5.81785 31.1652 4.40595 31.1652 2.99405C31.1652 2.20558 30.8349 1.86636 30.0643 1.85719C28.367 1.84802 26.6698 1.84802 24.9725 1.85719C24.1652 1.85719 23.8441 2.19641 23.8441 3.02155C23.8441 4.43345 23.8441 5.84536 23.8441 7.25726C23.8441 7.5048 23.89 7.72484 23.523 7.80735C21.5964 8.25659 19.7982 9.03589 18.0826 10.1269C17.9266 9.98021 17.7799 9.84269 17.6331 9.70517C16.6422 8.72417 15.6698 7.734 14.6698 6.75301C14.1377 6.23959 13.6514 6.23959 13.1285 6.76218C11.9083 7.97238 10.6973 9.18258 9.48628 10.4019C8.95417 10.9337 8.96335 11.3921 9.50463 11.933C10.6147 13.0516 11.7432 14.1701 12.8716 15.2978C12.523 15.9395 12.1285 16.5355 11.8624 17.1772C11.4312 18.2132 11.0184 19.2584 10.6973 20.3311C10.5322 20.8995 10.3487 21.1287 9.71564 21.1012C8.42206 21.0371 7.11931 21.0829 5.82573 21.0829C4.92665 21.0829 4.61472 21.3946 4.60555 22.2748C4.60555 23.9159 4.60555 25.557 4.60555 27.1981C4.60555 27.9774 4.74316 28.1699 5.50463 28.4633C5.50463 29.0225 5.50463 29.591 5.50463 30.1594C4.22023 30.3428 2.84408 29.1692 2.79821 27.739C2.73399 25.7587 2.74316 23.7692 2.79821 21.7888C2.83491 20.3678 4.06426 19.2859 5.5505 19.2584C6.57803 19.2401 7.61472 19.2493 8.64225 19.2584C8.91747 19.2584 9.08261 19.2218 9.20188 18.9192C9.61472 17.819 10.0643 16.728 10.5413 15.5453C9.85325 14.8669 9.09179 14.1151 8.33949 13.3633C6.9083 11.933 6.9083 10.4019 8.33949 8.97171C9.48628 7.82569 10.6331 6.67966 11.7799 5.53364C13.0918 4.23175 14.7156 4.22259 16.0367 5.52447C16.7156 6.19375 17.4037 6.86303 18.0551 7.55064C18.3028 7.81652 18.4863 7.79818 18.789 7.66066C19.7248 7.23892 20.6698 6.83552 21.6331 6.46879C21.945 6.34961 22.0367 6.21208 22.0276 5.90036C22.0092 4.89186 22.0184 3.87419 22.0276 2.86569C22.0459 1.23375 23.2019 0.0510577 24.8441 0.0418895C26.6147 0.0235531 28.3945 0.0235531 30.1652 0.0418895C31.8441 0.0510577 33 1.22459 33.0092 2.8932C33.0184 3.88336 33.0276 4.87353 33 5.87286C32.9909 6.20292 33.0918 6.35877 33.4221 6.48713C34.3854 6.84469 35.3395 7.23892 36.2661 7.67899C36.5964 7.83485 36.7707 7.77068 37 7.5323C37.6789 6.83552 38.367 6.14791 39.0643 5.46946C40.2844 4.26843 41.9266 4.25009 43.1468 5.43279C44.4129 6.67049 45.6698 7.92654 46.9083 9.19175C48.0551 10.3653 48.0459 11.9514 46.9083 13.1341C46.1927 13.8767 45.4679 14.601 44.7156 15.3161C44.4863 15.5361 44.4679 15.7012 44.6055 15.9945C45.0367 16.9297 45.4312 17.874 45.7982 18.8367C45.9267 19.1667 46.0643 19.2676 46.4037 19.2676C47.3762 19.2493 48.3487 19.2584 49.3211 19.2584C51.0734 19.2676 52.2294 20.4228 52.2386 22.1647C52.2478 23.9617 52.2569 25.7495 52.2294 27.5465C52.2019 29.0592 50.945 30.2786 49.5046 30.1869Z" fill="#E54800"/>
<path d="M40.2936 24.7135C39.6881 24.7135 39.1284 24.7135 38.5138 24.7135C38.3761 21.0554 36.9082 18.0482 33.9449 15.8662C31.8624 14.3259 29.4862 13.6475 26.8991 13.785C21.3945 14.0876 16.6422 18.4791 16.4679 24.7043C15.8899 24.7043 15.3119 24.7043 14.6514 24.7043C14.789 20.4319 16.4495 16.9114 19.9358 14.4359C24.2293 11.3738 28.844 11.0804 33.5413 13.4733C37.6972 15.582 40.4495 20.2486 40.2936 24.7135Z" fill="#E54800"/>
<path d="M27.4954 32.0572C24.4587 32.0572 22 29.6093 22 26.5838C22 23.5675 24.4771 21.0829 27.4862 21.0829C30.5046 21.0829 32.9817 23.5583 32.9817 26.5746C32.9908 29.6001 30.5321 32.0572 27.4954 32.0572ZM27.4404 30.2327C29.4862 30.2511 31.1376 28.6375 31.156 26.6205C31.1743 24.6035 29.5321 22.9349 27.5138 22.9165C25.5229 22.9074 23.8532 24.5301 23.8349 26.5196C23.8073 28.5458 25.422 30.2144 27.4404 30.2327Z" fill="#E54800"/>
<path d="M11.8898 35.7245C8.86227 35.7153 6.41273 33.2491 6.4219 30.2144C6.43107 27.1981 8.93566 24.7227 11.9448 24.741C14.9632 24.7593 17.4311 27.2439 17.4127 30.2603C17.4036 33.2949 14.9357 35.7337 11.8898 35.7245ZM11.8714 33.8909C13.9173 33.9092 15.5687 32.2956 15.5779 30.2694C15.5962 28.2524 13.9448 26.5838 11.9357 26.5746C9.94484 26.5655 8.28429 28.1974 8.25676 30.1777C8.22924 32.2131 9.85309 33.8725 11.8714 33.8909Z" fill="#E54800"/>
<path d="M43.0643 35.7245C40.0276 35.7245 37.5688 33.2674 37.5688 30.2419C37.5688 27.2256 40.0459 24.741 43.0643 24.741C46.0826 24.741 48.5597 27.2164 48.5597 30.2328C48.5597 33.2674 46.101 35.7245 43.0643 35.7245ZM43.0551 33.8909C45.0918 33.9001 46.734 32.2681 46.734 30.2419C46.734 28.2249 45.0734 26.5655 43.0551 26.5747C41.0643 26.5838 39.4221 28.2249 39.4037 30.2144C39.3945 32.2406 41.0184 33.8909 43.0551 33.8909Z" fill="#E54800"/>
<path d="M31.1285 53.1624C31.1285 53.7675 31.1285 54.3359 31.1285 54.9226C28.7064 54.9226 26.3119 54.9226 23.8716 54.9226C23.8716 54.3542 23.8716 53.7766 23.8716 53.1624C26.2753 53.1624 28.6789 53.1624 31.1285 53.1624Z" fill="#E54800"/>
</svg>
