<svg width="56" height="55" viewBox="0 0 56 55" fill="none" xmlns="http://www.w3.org/2000/svg">
<path d="M17.8634 31.6688C16.7703 29.9294 15.9793 28.1613 15.4759 26.2493C15.4471 26.12 15.1882 25.9618 15.0156 25.9475C14.2821 25.9187 13.5486 25.9331 12.8007 25.9331C12.0527 25.9187 11.7507 25.6168 11.7507 24.8837C11.7507 22.713 11.7507 20.5423 11.7507 18.3573C11.7507 17.5954 12.0671 17.2935 12.8438 17.2791C13.6924 17.2648 14.5266 17.2791 15.2314 17.2791C15.8786 15.7554 16.4395 14.3034 17.1011 12.8947C17.547 11.9315 17.5901 11.9603 16.8422 11.1984C16.4683 10.8246 16.0943 10.4652 15.7348 10.0915C15.2745 9.61709 15.2601 9.18583 15.7204 8.72582C17.3025 7.13016 18.8846 5.5345 20.4811 3.95321C20.927 3.50758 21.3872 3.52195 21.8475 3.98197C22.4803 4.6001 23.0844 5.23262 23.7029 5.86513C25.3137 4.88761 26.9821 4.18322 28.7368 3.70883C28.8663 3.66571 29.0245 3.42133 29.0389 3.2632C29.0677 2.53006 29.0389 1.79692 29.0533 1.0494C29.0677 0.301882 29.3697 0 30.1032 0C32.275 0 34.4468 0 36.633 0C37.3953 0 37.6974 0.316257 37.7117 1.09252C37.7261 1.94067 37.7117 2.77444 37.7117 3.47883C39.5528 4.24072 41.2931 4.97386 43.1628 5.73575C43.6375 5.24699 44.2272 4.64323 44.8313 4.05384C45.4066 3.47883 45.8237 3.47883 46.399 4.05384C47.9092 5.56325 49.4338 7.07266 50.944 8.59644C51.5337 9.18583 51.5337 9.58834 50.9296 10.1921C50.3399 10.7815 49.7502 11.3421 49.2612 11.8309C50.0378 13.6853 50.757 15.4247 51.5337 17.2791C52.2097 17.2791 53.0295 17.2791 53.8493 17.2791C54.7266 17.2791 55.0143 17.5666 55.0143 18.4435C55.0143 20.5423 55.0143 22.6411 55.0143 24.7543C55.0143 25.66 54.741 25.9187 53.8205 25.9331C53.0726 25.9331 52.3103 25.9331 51.5624 25.9475C51.5337 25.9475 51.4905 25.9618 51.548 25.9475C50.8001 27.7588 50.0666 29.5125 49.2899 31.3957C49.7502 31.8557 50.3543 32.4307 50.9296 33.0057C51.5624 33.6383 51.5624 34.0264 50.944 34.6445C49.4481 36.1396 47.9523 37.649 46.4421 39.144C45.8381 39.7478 45.4497 39.7478 44.8456 39.144C44.3422 38.6553 43.8388 38.1665 43.3642 37.649C43.1628 37.4333 43.0046 37.3902 42.7314 37.5484C41.2931 38.4109 39.7541 39.0434 38.1288 39.4603C37.8556 39.5321 37.7549 39.6615 37.7549 39.949C37.7693 40.6822 37.7693 41.4153 37.7549 42.1628C37.7405 42.896 37.4241 43.2266 36.7049 43.2266C34.5331 43.241 32.3613 43.241 30.1751 43.2266C29.4128 43.2266 29.1108 42.9103 29.0964 42.1341C29.082 41.4009 29.1108 40.6534 29.082 39.9203C29.082 39.7765 28.9526 39.5465 28.8519 39.5178C26.9102 39.0146 25.098 38.2096 23.3864 37.1171C22.4372 38.0659 21.5167 39.0003 20.5818 39.9203C19.7188 40.7828 18.8558 41.6597 17.9785 42.5078C17.7484 42.7378 17.6908 42.9247 17.7915 43.2554C19.3305 48.5023 16.1662 53.7206 10.8014 54.8275C5.79621 55.8481 0.747833 52.2256 0.114987 47.1654C-0.517858 42.091 2.7902 37.6777 7.85296 36.9158C9.17618 36.7146 10.4994 36.844 11.8082 37.2177C11.9808 37.2752 12.2685 37.2465 12.3692 37.1458C14.1814 35.3489 16.008 33.5233 17.8634 31.6688ZM13.5054 24.2081C14.2821 24.2081 15.0012 24.2081 15.7204 24.2081C16.6409 24.2081 16.8135 24.3662 17.0292 25.2862C17.4319 27.0831 18.1079 28.7794 19.1147 30.3894C20.2366 29.2682 21.3297 28.19 22.4084 27.0831C22.4947 26.9969 22.4515 26.7237 22.3796 26.5656C21.8043 25.2862 21.4591 23.9637 21.3584 22.5693C20.8119 14.7922 27.428 8.61082 35.1372 9.70335C40.4876 10.4509 44.6011 14.6916 45.3634 20.2261C46.0682 25.3293 43.019 30.6194 38.172 32.6751C34.9502 34.0408 31.7141 34.012 28.4923 32.632C28.3197 32.5601 27.9889 32.517 27.8883 32.6176C26.7952 33.667 25.7165 34.7595 24.609 35.8664C26.2199 36.8871 27.917 37.5484 29.7149 37.9509C30.6498 38.1665 30.7936 38.3246 30.7936 39.3021C30.7936 40.0209 30.7936 40.7253 30.7936 41.4584C32.5627 41.4584 34.2599 41.4584 36.0002 41.4584C36.0002 40.6678 36.0002 39.9203 36.0002 39.1728C36.0002 38.3534 36.1728 38.1377 36.9926 37.9652C38.9199 37.5484 40.7178 36.8008 42.3862 35.7371C43.1628 35.2483 43.3786 35.2771 44.0258 35.9096C44.558 36.4415 45.0758 36.959 45.536 37.419C46.8017 36.1683 48.0099 34.9608 49.2324 33.7389C48.7146 33.2358 48.1537 32.6895 47.6071 32.1432C47.1037 31.6401 47.0606 31.3238 47.4489 30.7201C48.542 29.0094 49.3187 27.1694 49.7502 25.1856C49.9228 24.3806 50.1385 24.2224 50.9727 24.2081C51.7206 24.2081 52.4685 24.2081 53.2308 24.2081C53.2308 22.4399 53.2308 20.7436 53.2308 19.0042C52.4254 19.0042 51.6631 19.0042 50.8864 19.0042C50.1529 19.0042 49.9228 18.8317 49.7646 18.1273C49.3187 16.1004 48.542 14.2316 47.4202 12.4922C47.0462 11.9171 47.0894 11.5865 47.564 11.1121C48.1249 10.5515 48.7002 10.0196 49.2036 9.54522C47.9236 8.28019 46.7154 7.07266 45.4641 5.83638C44.9895 6.32514 44.4717 6.85703 43.9395 7.38892C43.4074 7.9208 43.0909 7.96393 42.4725 7.56142C40.7609 6.45452 38.9199 5.69263 36.9351 5.26137C36.144 5.08887 35.9858 4.87324 35.9858 4.08259C35.9858 3.3207 35.9858 2.54443 35.9858 1.78254C34.2167 1.78254 32.5195 1.78254 30.7792 1.78254C30.7792 2.58756 30.7792 3.36383 30.7792 4.12572C30.7792 4.85886 30.5922 5.08887 29.8731 5.24699C27.8451 5.67825 25.9753 6.4689 24.235 7.59017C23.6597 7.94956 23.3289 7.90643 22.8543 7.43204C22.2933 6.87141 21.7612 6.31077 21.3009 5.83638C20.0352 7.08704 18.8127 8.29456 17.547 9.53084C18.0504 10.0196 18.5826 10.5227 19.1003 11.0402C19.69 11.6296 19.7188 11.9028 19.2729 12.5928C18.1942 14.2891 17.4175 16.1147 17.0004 18.0842C16.8422 18.8461 16.5977 19.0329 15.8067 19.0329C15.0444 19.0329 14.2821 19.0329 13.491 19.0329C13.5054 20.7723 13.5054 22.4543 13.5054 24.2081ZM40.7034 21.5917C39.524 22.7705 38.4165 23.863 37.3234 24.9843C36.9638 25.3437 36.5899 25.4443 36.1009 25.315C34.6482 24.9124 33.1955 24.5243 31.7285 24.1505C31.2395 24.0212 30.9662 23.7337 30.8367 23.2593C30.4628 21.8217 30.0888 20.3842 29.6861 18.9467C29.5423 18.4435 29.6286 18.0554 30.0169 17.6817C31.0381 16.6898 32.0305 15.6835 33.0373 14.6772C33.138 14.5766 33.2387 14.4472 33.3825 14.2747C33.2099 14.2747 33.138 14.2747 33.0661 14.2747C28.104 14.476 24.7384 19.5073 26.4931 24.1649C26.7664 24.8837 26.637 25.3437 26.1048 25.8756C21.8331 30.1163 17.5758 34.3714 13.3328 38.6409C12.7863 39.1871 12.326 39.3165 11.5781 39.0434C7.01875 37.3327 2.07105 40.5384 1.72587 45.3829C1.51012 48.4161 3.14977 51.2337 5.91127 52.5706C8.58648 53.8643 11.8082 53.39 14.0376 51.3487C16.2525 49.3361 17.0292 46.1304 15.9217 43.3129C15.6772 42.6803 15.7779 42.2491 16.2525 41.7891C20.5962 37.4621 24.9398 33.1351 29.2546 28.7938C29.7149 28.3338 30.1464 28.2475 30.7504 28.4919C32.2606 29.11 33.8284 29.1532 35.3961 28.7075C38.5172 27.8163 40.876 24.7112 40.7034 21.5917ZM23.8611 25.5593C24.7528 24.9556 24.8103 24.8118 24.5946 23.9493C22.883 17.4804 28.5643 11.3996 35.1085 12.7078C35.5543 12.794 35.9714 12.8803 36.1152 13.3834C36.2591 13.8722 35.957 14.1884 35.6406 14.5047C34.3462 15.7985 33.0517 17.0923 31.7429 18.386C31.5127 18.616 31.4408 18.8173 31.5415 19.1479C31.8292 20.1255 32.0881 21.1174 32.3326 22.1093C32.4045 22.4255 32.5483 22.5836 32.8791 22.6699C33.7996 22.8999 34.7201 23.1299 35.6262 23.4174C36.1009 23.5612 36.4029 23.5037 36.7481 23.1299C38.0138 21.8074 39.337 20.528 40.6315 19.2342C40.9191 18.9467 41.2787 18.7311 41.6383 18.9323C41.9115 19.0904 42.1848 19.4354 42.2423 19.7373C42.8464 22.6268 42.228 25.2718 40.3007 27.4856C37.7405 30.4182 34.5044 31.3095 30.7504 30.3319C30.5635 30.2888 30.319 30.2601 30.1751 30.3463C29.8731 30.5188 29.6142 30.7776 29.2978 31.0507C32.8072 32.7326 38.2151 32.2151 41.552 27.9744C44.6874 23.9924 44.4142 18.1992 40.9191 14.5478C37.309 10.7671 31.5847 10.2065 27.3705 13.2541C22.9693 16.4022 22.1783 21.8649 23.8611 25.5593Z" fill="#E54800"/>
<path d="M10.1544 50.7593C9.44963 50.5724 8.85993 50.4143 8.27023 50.2561C7.56547 50.0693 6.84633 49.868 6.14157 49.6955C5.68132 49.5805 5.40805 49.3074 5.2786 48.833C4.96218 47.6398 4.64576 46.4467 4.31495 45.2535C4.19989 44.8223 4.28619 44.4485 4.61699 44.1323C5.52311 43.2554 6.40046 42.3641 7.2922 41.4728C7.59424 41.1709 7.93943 41.0703 8.37091 41.1853C9.59346 41.5303 10.8304 41.8466 12.0529 42.1772C12.4556 42.2778 12.7001 42.5222 12.8152 42.9247C13.146 44.161 13.4624 45.3829 13.8076 46.6048C13.9227 47.0361 13.8364 47.3667 13.52 47.683C12.6139 48.5742 11.7221 49.4943 10.8016 50.3711C10.6146 50.558 10.3414 50.6587 10.1544 50.7593ZM9.75167 48.8761C9.83796 48.8186 9.99618 48.7611 10.1112 48.6461C10.6722 48.0998 11.2475 47.5536 11.7796 46.9642C11.9091 46.8348 11.9666 46.5473 11.9235 46.3604C11.7509 45.5985 11.5351 44.8366 11.305 44.0748C11.2475 43.9166 11.0749 43.7154 10.9167 43.6722C10.1544 43.4279 9.36333 43.2266 8.58666 43.0397C8.41406 42.9966 8.15517 43.0685 8.04011 43.1835C7.45041 43.7297 6.8751 44.3048 6.32855 44.8942C6.21349 45.0235 6.14157 45.2823 6.18472 45.4548C6.35732 46.2454 6.57306 47.0217 6.80318 47.7836C6.84633 47.913 6.96139 48.0999 7.07646 48.1286C7.93943 48.3874 8.8024 48.6174 9.75167 48.8761Z" fill="#E54800"/>
</svg>
