<svg width="52" height="56" viewBox="0 0 52 56" fill="none" xmlns="http://www.w3.org/2000/svg">
<path d="M52.0001 32.1227C52.0001 39.11 52.0001 46.0973 52.0001 53.068C52.0001 54.482 51.5095 54.9978 50.136 54.9978C48.419 54.9978 46.702 54.9978 44.985 54.9978C43.6932 54.9978 43.1699 54.4654 43.1699 53.1345C43.1699 39.0601 43.1699 24.9857 43.1699 10.9279C43.1699 9.6469 43.6932 9.0979 44.936 9.08126C46.6856 9.06463 48.4517 9.06463 50.2014 9.08126C51.4605 9.08126 51.9838 9.63027 51.9838 10.9113C52.0001 17.9817 52.0001 25.0522 52.0001 32.1227ZM45.1649 11.1109C45.1649 25.0855 45.1649 39.0102 45.1649 52.9515C46.8001 52.9515 48.3863 52.9515 50.0051 52.9515C50.0051 38.9935 50.0051 25.0689 50.0051 11.1109C48.4026 11.1109 46.8165 11.1109 45.1649 11.1109Z" fill="#E54800"/>
<path d="M32.3774 37.9787C32.3774 32.9711 32.3774 27.9636 32.3774 22.956C32.3774 21.5918 32.8844 21.0761 34.2252 21.0761C35.9422 21.0761 37.6592 21.0761 39.3762 21.0761C40.6844 21.0761 41.2076 21.6085 41.2076 22.9228C41.2076 33.0044 41.2076 43.0861 41.2076 53.1678C41.2076 54.482 40.6844 55.0144 39.3925 55.0144C37.6592 55.0144 35.9259 55.0144 34.1762 55.0144C32.8844 55.0144 32.3774 54.482 32.3774 53.1345C32.3774 48.077 32.3774 43.0195 32.3774 37.9787ZM39.2127 52.9848C39.2127 43.0029 39.2127 33.071 39.2127 23.1058C37.5938 23.1058 35.9913 23.1058 34.3888 23.1058C34.3888 33.0876 34.3888 43.0362 34.3888 52.9848C36.0076 52.9848 37.5774 52.9848 39.2127 52.9848Z" fill="#E54800"/>
<path d="M41.8618 2.39344C41.1586 2.52653 40.5372 2.64299 39.9158 2.75944C39.1636 2.90917 38.6404 2.62635 38.5095 2.02744C38.3787 1.39525 38.7712 0.946071 39.5724 0.796343C40.8152 0.563434 42.058 0.313887 43.3007 0.0809775C44.3636 -0.11866 44.707 0.130887 44.9196 1.21225C45.1649 2.50989 45.4102 3.82417 45.6391 5.13845C45.7699 5.90372 45.4592 6.40282 44.8542 6.50263C44.2982 6.58582 43.8731 6.20318 43.7095 5.47118C43.6605 5.20499 43.6114 4.93881 43.5624 4.67263C43.5133 4.40645 43.4643 4.14026 43.3989 3.74099C43.2026 4.05708 43.0555 4.27335 42.9246 4.48963C34.9121 17.2664 24.3158 27.1983 11.0051 34.0359C8.11081 35.4999 5.08565 36.6478 2.1259 37.9455C1.99508 37.9954 1.86426 38.0619 1.71709 38.0952C1.14477 38.2283 0.654201 37.9787 0.490679 37.463C0.310805 36.9306 0.539736 36.4482 1.09571 36.2153C2.20766 35.7495 3.35231 35.3502 4.46426 34.8844C16.5485 29.8435 26.736 22.1741 35.1246 11.9927C37.4467 9.14782 39.5724 6.15327 41.502 3.00899C41.6001 2.84262 41.6982 2.65962 41.8618 2.39344Z" fill="#E54800"/>
<path d="M21.585 43.0029C21.585 39.6423 21.585 36.2652 21.585 32.9046C21.585 31.5903 22.1082 31.0413 23.4001 31.0413C25.1334 31.0413 26.8667 31.0413 28.6001 31.0413C29.8919 31.0413 30.4152 31.5903 30.4152 32.9046C30.4152 39.659 30.4152 46.4134 30.4152 53.1678C30.4152 54.4488 29.8919 54.9978 28.6328 54.9978C26.8831 55.0144 25.117 55.0144 23.3673 54.9978C22.1082 54.9978 21.585 54.4488 21.585 53.1678C21.585 49.7906 21.585 46.3967 21.585 43.0029ZM23.5799 33.071C23.5799 39.7255 23.5799 46.3302 23.5799 52.9515C25.2151 52.9515 26.8013 52.9515 28.4202 52.9515C28.4202 46.3136 28.4202 39.7089 28.4202 33.071C26.8177 33.071 25.2315 33.071 23.5799 33.071Z" fill="#E54800"/>
<path d="M19.6227 46.0973C19.6227 48.4596 19.6227 50.8386 19.6227 53.201C19.6227 54.4321 19.083 54.9978 17.873 54.9978C16.0906 55.0144 14.3246 55.0144 12.5422 54.9978C11.3158 54.9978 10.7925 54.4321 10.7925 53.201C10.7925 48.4097 10.7925 43.6018 10.7925 38.8105C10.7925 37.6127 11.3321 37.0471 12.5095 37.0304C14.3082 37.0138 16.1069 37.0138 17.9057 37.0304C19.083 37.0304 19.6227 37.5961 19.6227 38.7939C19.6227 41.2394 19.6227 43.6684 19.6227 46.0973ZM17.6113 52.9681C17.6113 48.3099 17.6113 43.7016 17.6113 39.0601C15.9761 39.0601 14.39 39.0601 12.7874 39.0601C12.7874 43.7183 12.7874 48.3432 12.7874 52.9681C14.4227 52.9681 16.0088 52.9681 17.6113 52.9681Z" fill="#E54800"/>
<path d="M0 49.0086C0 47.5779 0 46.1472 0 44.7164C0 43.6351 0.555975 43.0528 1.61887 43.0362C3.48302 43.0195 5.33082 43.0195 7.19497 43.0362C8.29057 43.0528 8.83019 43.6351 8.83019 44.7663C8.83019 47.6112 8.83019 50.456 8.83019 53.3008C8.83019 54.4155 8.27421 54.9977 7.17862 55.0144C5.34717 55.031 3.49937 55.031 1.66792 55.0144C0.539623 54.9811 0 54.4155 0 53.2509C0 51.8368 0 50.4227 0 49.0086ZM6.83522 52.9681C6.83522 50.3229 6.83522 47.711 6.83522 45.0658C5.21635 45.0658 3.61384 45.0658 2.01132 45.0658C2.01132 47.7276 2.01132 50.3395 2.01132 52.9681C3.64654 52.9681 5.21635 52.9681 6.83522 52.9681Z" fill="#E54800"/>
</svg>
