<svg width="48" height="56" viewBox="0 0 48 56" fill="none" xmlns="http://www.w3.org/2000/svg">
<path d="M26.0902 49.4744C25.3054 50.0475 24.5366 50.5887 23.7839 51.1459C23.2714 51.5439 22.7909 51.5439 22.2624 51.1459C21.2213 50.3659 20.1322 49.6654 19.1072 48.8695C18.7068 48.567 18.4506 48.6148 18.0822 48.8854C17.0572 49.6495 16.0161 50.3818 14.9591 51.1141C14.3024 51.5757 14.0462 51.5757 13.3895 51.1141C12.1883 50.2544 10.9871 49.4107 9.75387 48.5352C8.60071 49.347 7.46358 50.1589 6.32644 50.9708C5.38149 51.6394 5.25337 51.6394 4.32444 50.9708C3.15527 50.1271 2.01813 49.2515 0.832945 48.4397C0.240353 48.0417 0.000112687 47.5641 0.0161287 46.8478C0.0481607 42.7248 0.0321447 38.6177 0.0321447 34.4947C0.0321447 23.5106 0.0321447 12.5265 0.0321447 1.54242C0.0321447 1.31955 0.0161287 1.09669 0.0481607 0.88974C0.144257 0.141549 0.89701 -0.208668 1.52163 0.237063C2.67479 1.03301 3.79591 1.84488 4.94906 2.65674C5.07719 2.75226 5.20532 2.83185 5.36548 2.92737C6.5827 2.06774 7.7839 1.20812 8.9851 0.348496C9.64175 -0.113154 9.89801 -0.113154 10.5547 0.348496C11.7559 1.1922 12.9571 2.05182 14.2063 2.92737C15.3755 2.08366 16.5447 1.23996 17.6978 0.412172C18.4666 -0.129073 18.6908 -0.129073 19.4596 0.42809C20.5647 1.25588 21.6698 2.06774 22.8229 2.92737C23.9921 2.09958 25.1613 1.2718 26.3304 0.444009C27.1633 -0.144992 27.3394 -0.144992 28.1883 0.459928C29.3415 1.2718 30.4946 2.09958 31.6798 2.92737C32.8009 2.1155 33.9541 1.28771 35.1072 0.475847C35.2674 0.364415 35.4275 0.237063 35.6037 0.157468C36.2764 -0.160911 36.917 0.205225 36.9651 0.953416C36.9811 1.14444 36.9651 1.35139 36.9651 1.54242C36.9651 11.253 36.9651 20.9635 36.9651 30.6741C36.9651 30.9129 36.9651 31.1517 36.9651 31.4223C40.3124 31.7725 43.0832 33.1575 45.2293 35.7045C46.9591 37.758 47.8399 40.1459 47.9681 42.8203C48.2243 47.787 44.9571 52.5786 40.1362 54.3456C35.4756 56.033 29.4856 54.6481 26.0902 49.4744ZM1.90602 26.4237C13.1172 26.4237 24.2484 26.4237 35.3795 26.4237C35.3795 18.5439 35.3795 10.7117 35.3795 2.81593C34.4666 3.46861 33.6177 4.05761 32.7689 4.66253C32.0802 5.1401 31.8239 5.15602 31.1513 4.67845C29.9501 3.83475 28.7489 2.97512 27.5156 2.09958C26.2824 2.97512 25.0492 3.83475 23.8319 4.71029C23.3034 5.09235 22.839 5.09235 22.3104 4.69437C21.1092 3.80291 19.876 2.9592 18.6588 2.08366C17.4416 2.94329 16.2564 3.78699 15.0712 4.6307C14.3505 5.1401 14.1102 5.12418 13.4055 4.6307C12.2043 3.77107 11.0031 2.92737 9.80191 2.08366C8.64876 2.89553 7.54366 3.69148 6.43855 4.47151C5.41353 5.20378 5.33345 5.20378 4.2924 4.45559C3.52364 3.89842 2.75487 3.34126 1.90602 2.73634C1.90602 10.6958 1.90602 18.5439 1.90602 26.4237ZM35.1232 28.3659C24.0081 28.3659 12.9731 28.3659 1.93805 28.3659C1.92203 28.4614 1.89 28.5091 1.89 28.5728C1.89 34.5743 1.89 40.5916 1.89 46.5931C1.89 46.7682 2.03415 47.007 2.17829 47.1184C3.10722 47.8188 4.05216 48.4874 4.98109 49.1719C5.23735 49.363 5.39751 49.363 5.65377 49.1719C6.75887 48.376 7.86398 47.596 8.96908 46.8159C9.60972 46.3543 9.88199 46.3702 10.5387 46.8319C11.6117 47.596 12.7008 48.3442 13.7579 49.1242C14.0622 49.3471 14.2704 49.363 14.5907 49.1242C15.6317 48.3442 16.6888 47.596 17.7459 46.8319C18.4185 46.3384 18.6748 46.3384 19.3635 46.8159C20.5487 47.6596 21.7178 48.5193 22.935 49.3789C23.6718 48.8376 24.4085 48.3282 25.1132 47.8029C23.7358 44.0779 23.88 40.4961 25.9461 37.1054C28.0281 33.6987 31.1673 31.8999 35.1392 31.4382C35.1232 30.4194 35.1232 29.4165 35.1232 28.3659ZM26.0422 43.2183C26.0422 48.7262 30.4946 53.1835 36.0201 53.1994C41.5777 53.2154 46.0782 48.7899 46.0942 43.3138C46.1102 37.774 41.6418 33.2848 36.1162 33.2689C30.5587 33.2371 26.0422 37.7103 26.0422 43.2183Z" fill="#E54800"/>
<path d="M19.4434 9.37475C20.004 9.37475 20.4684 9.35883 20.9329 9.37475C21.5095 9.39067 21.9259 9.78865 21.9099 10.2821C21.9099 10.7915 21.5095 11.1736 20.9169 11.1736C20.1321 11.1895 19.3633 11.1736 18.5785 11.1736C17.5535 11.1895 16.8968 11.7308 16.8968 12.5585C16.8968 13.4341 17.5375 14.0072 18.5785 14.0072C19.9399 13.9913 20.9969 14.5325 21.6376 15.7264C22.2462 16.8248 22.2302 17.9869 21.4774 18.9898C21.061 19.531 20.4204 19.929 19.8278 20.2952C19.5715 20.4543 19.4274 20.5499 19.4434 20.8523C19.4594 21.1707 19.4594 21.4891 19.4434 21.8075C19.4114 22.3487 19.027 22.7308 18.5465 22.7308C18.05 22.7308 17.6656 22.3487 17.6336 21.8234C17.6176 21.4095 17.6336 20.9956 17.6336 20.4703C17.1051 20.4703 16.6086 20.4703 16.1281 20.4703C15.4714 20.4543 15.023 20.0723 15.039 19.531C15.055 19.0057 15.4714 18.6555 16.1121 18.6396C16.9289 18.6237 17.7457 18.6396 18.5785 18.6396C19.5715 18.6237 20.2922 18.0347 20.2602 17.2387C20.2282 16.5701 19.6036 15.8697 18.5945 15.8697C16.7367 15.8856 15.3913 14.8031 15.1031 13.1475C14.8308 11.5875 15.6636 10.0911 17.1851 9.53394C17.5695 9.39067 17.6816 9.21556 17.6496 8.84943C17.6176 8.53105 17.6176 8.21267 17.6656 7.89429C17.7137 7.38488 18.034 7.11426 18.5305 7.0665C18.9949 7.03467 19.4274 7.4008 19.4594 7.89429C19.4754 8.38778 19.4434 8.84943 19.4434 9.37475Z" fill="#E54800"/>
<path d="M18.8189 33.5716C17.2333 33.5716 15.6637 33.5716 14.0781 33.5716C13.886 33.5716 13.6777 33.5716 13.4856 33.5238C13.0211 33.4124 12.7488 33.094 12.7648 32.6324C12.7648 32.2025 13.0211 31.8842 13.4695 31.7727C13.6457 31.725 13.8219 31.725 13.9981 31.725C17.2013 31.725 20.3885 31.725 23.5917 31.725C23.6557 31.725 23.7038 31.725 23.7678 31.725C24.4405 31.7568 24.8569 32.107 24.8409 32.6642C24.8249 33.1895 24.4245 33.5397 23.7838 33.5716C23.5436 33.5875 23.3034 33.5716 23.0631 33.5716C21.6537 33.5716 20.2443 33.5716 18.8189 33.5716Z" fill="#E54800"/>
<path d="M17.6976 36.5803C18.9628 36.5803 20.2121 36.5803 21.4774 36.5803C22.1981 36.5803 22.6625 36.9305 22.6625 37.4876C22.6625 38.0448 22.2141 38.395 21.4934 38.395C18.9789 38.395 16.4483 38.395 13.9338 38.395C13.2131 38.395 12.7646 38.0448 12.7646 37.4876C12.7646 36.9305 13.2131 36.5803 13.9338 36.5803C15.1831 36.5803 16.4483 36.5803 17.6976 36.5803Z" fill="#E54800"/>
<path d="M17.2012 43.2821C16.08 43.2821 14.9589 43.2821 13.8378 43.2821C13.1811 43.2821 12.7327 42.8841 12.7487 42.3588C12.7647 41.8335 13.1811 41.4833 13.8218 41.4833C16.064 41.4833 18.3063 41.4833 20.5325 41.4833C21.2212 41.4833 21.6376 41.8494 21.6536 42.3907C21.6536 42.9478 21.2212 43.298 20.5005 43.298C19.3954 43.2821 18.3063 43.2821 17.2012 43.2821Z" fill="#E54800"/>
<path d="M7.04698 33.5716C6.61455 33.5716 6.1661 33.5875 5.73367 33.5716C5.14107 33.5398 4.77271 33.1577 4.77271 32.6324C4.78872 32.1389 5.14107 31.7568 5.70163 31.7409C6.58251 31.7091 7.4634 31.7091 8.32826 31.7409C8.90484 31.7568 9.30524 32.1707 9.28922 32.6801C9.27321 33.1736 8.87281 33.5557 8.29623 33.5875C7.87981 33.5875 7.4634 33.5716 7.04698 33.5716Z" fill="#E54800"/>
<path d="M7.01506 36.5803C7.44749 36.5803 7.89594 36.5643 8.32837 36.5803C8.90495 36.5962 9.30535 36.9941 9.30535 37.4876C9.30535 37.9652 8.90495 38.3632 8.37642 38.3791C7.47952 38.395 6.58263 38.395 5.68573 38.3791C5.14118 38.3632 4.77282 37.9652 4.78883 37.4717C4.78883 36.9782 5.1572 36.6121 5.71776 36.5803C5.74979 36.5803 5.79784 36.5803 5.82987 36.5803C6.21426 36.5803 6.61466 36.5803 7.01506 36.5803Z" fill="#E54800"/>
<path d="M7.04709 43.2822C6.58263 43.2822 6.13418 43.2981 5.66971 43.2822C5.14119 43.2503 4.77282 42.8523 4.78883 42.3589C4.80485 41.8813 5.1572 41.4992 5.66971 41.4833C6.58263 41.4674 7.51156 41.4674 8.42447 41.4833C8.953 41.4992 9.33738 41.9131 9.32137 42.4066C9.30535 42.8683 8.93698 43.2503 8.42447 43.2822C7.96 43.2981 7.49554 43.2822 7.04709 43.2822Z" fill="#E54800"/>
<path d="M32.1282 48.2011C31.8078 47.9464 31.3914 47.8031 31.3113 47.5325C31.2152 47.246 31.2953 46.7525 31.5035 46.5296C32.2883 45.6541 33.1532 44.8581 33.986 44.0303C35.6997 42.327 37.4134 40.6237 39.1111 38.9363C39.2553 38.793 39.3834 38.6497 39.5596 38.5383C39.992 38.2836 40.4084 38.3314 40.7608 38.6975C41.0971 39.0477 41.0971 39.4457 40.8249 39.8437C40.7448 39.9551 40.6487 40.0506 40.5526 40.1461C38.0541 42.6295 35.5556 45.1287 33.0411 47.5962C32.7848 47.819 32.4805 47.9623 32.1282 48.2011Z" fill="#E54800"/>
<path d="M32.5606 38.7612C33.0251 38.7612 33.4735 39.2228 33.4735 39.6845C33.4735 40.162 33.0251 40.5759 32.5446 40.5759C32.0321 40.5759 31.6477 40.178 31.6477 39.6686C31.6637 39.191 32.0801 38.7612 32.5606 38.7612Z" fill="#E54800"/>
<path d="M40.5525 46.6888C40.5685 47.1663 40.1521 47.5961 39.6556 47.6121C39.1591 47.628 38.7267 47.23 38.7106 46.7365C38.6946 46.259 39.1271 45.8132 39.6075 45.7973C40.072 45.7814 40.5365 46.2112 40.5525 46.6888Z" fill="#E54800"/>
</svg>
