<svg width="56" height="56" viewBox="0 0 56 56" fill="none" xmlns="http://www.w3.org/2000/svg">
<path d="M55.5409 3.13599C55.5409 19.3883 55.5409 35.6405 55.5409 51.8928C55.5122 51.9358 55.4979 51.9787 55.4693 52.036C54.782 54.1839 53.6507 55.0144 51.4026 55.0144C35.809 55.0144 20.2298 55.0144 4.63616 55.0144C4.32114 55.0144 3.9918 55.0144 3.67678 54.9714C1.77232 54.6278 0.555192 53.1386 0.555192 51.1196C0.555192 35.9269 0.555192 20.7343 0.555192 5.52729C0.555192 4.88293 0.540873 4.23856 0.555192 3.5942C0.59815 2.04773 1.60049 0.701725 3.07537 0.200554C3.2472 0.143277 3.40471 0.071681 3.56222 0.0144043C19.8861 0.0144043 36.21 0.0144043 52.5338 0.0144043C53.0064 0.229192 53.5219 0.401022 53.9658 0.687406C54.8535 1.24585 55.2974 2.13364 55.5409 3.13599ZM53.708 9.20732C41.4651 9.20732 29.2938 9.20732 17.0509 9.20732C17.0509 9.45075 17.0509 9.66554 17.0509 9.88032C17.0509 13.8038 17.0509 17.7129 17.0509 21.6364C17.0509 23.684 15.977 24.758 13.9436 24.758C10.3066 24.758 6.6838 24.758 3.04673 24.758C2.83194 24.758 2.63147 24.758 2.38805 24.758C2.38805 25.0443 2.38805 25.2591 2.38805 25.4739C2.38805 33.9366 2.38805 42.3992 2.38805 50.8762C2.38805 52.5372 3.03241 53.1815 4.69344 53.1815C20.2584 53.1815 35.8377 53.1815 51.4026 53.1815C53.0637 53.1815 53.708 52.5372 53.708 50.8905C53.708 37.23 53.708 23.5838 53.708 9.92328C53.708 9.69417 53.708 9.47939 53.708 9.20732ZM2.38805 7.28855C19.5281 7.28855 36.5966 7.28855 53.708 7.28855C53.708 6.18597 53.708 5.14067 53.708 4.08105C53.708 2.50594 53.0493 1.83294 51.4456 1.83294C35.8377 1.83294 20.2298 1.83294 4.63616 1.83294C4.46433 1.83294 4.27818 1.81862 4.10635 1.83294C3.18992 1.90454 2.43101 2.6205 2.40237 3.53692C2.35941 4.78269 2.38805 6.01414 2.38805 7.28855ZM2.40237 22.9108C2.63147 22.9108 2.8033 22.9108 2.97513 22.9108C6.62653 22.9108 10.2779 22.9108 13.9293 22.9108C14.9603 22.9108 15.2324 22.653 15.2324 21.6077C15.2324 17.67 15.2324 13.7322 15.2324 9.79441C15.2324 9.60826 15.2324 9.40779 15.2324 9.20732C10.9223 9.20732 6.66949 9.20732 2.41669 9.20732C2.40237 13.7751 2.40237 18.3 2.40237 22.9108Z" fill="#E54800"/>
<path d="M35.3509 11.928C40.1479 11.928 44.9448 11.928 49.7417 11.928C51.188 11.928 51.8896 12.6296 51.8896 14.0615C51.8896 18.7439 51.8896 23.4406 51.8896 28.123C51.8896 29.5119 51.1736 30.2565 49.7847 30.2565C40.1908 30.2565 30.597 30.2565 21.0031 30.2565C19.5998 30.2565 18.8982 29.5549 18.8982 28.1373C18.8982 23.4263 18.8982 18.7296 18.8982 14.0186C18.8982 12.601 19.5855 11.928 21.0174 11.928C25.8 11.928 30.5683 11.928 35.3509 11.928ZM50.0424 13.7895C40.2481 13.7895 30.5111 13.7895 20.774 13.7895C20.774 18.6723 20.774 23.5265 20.774 28.3664C30.554 28.3664 40.2911 28.3664 50.0424 28.3664C50.0424 23.4979 50.0424 18.6723 50.0424 13.7895Z" fill="#E54800"/>
<path d="M40.835 51.3344C37.8996 51.3344 34.9642 51.3344 32.0287 51.3344C30.5968 51.3344 29.8809 50.6184 29.8809 49.2008C29.8809 44.5185 29.8809 39.8218 29.8809 35.1394C29.8809 33.7075 30.5968 32.9915 32.0287 32.9915C37.9282 32.9915 43.8421 32.9915 49.7416 32.9915C51.1735 32.9915 51.8894 33.7075 51.8894 35.1251C51.8894 39.8074 51.8894 44.5041 51.8894 49.1865C51.8894 50.6041 51.1735 51.3201 49.7416 51.3344C46.7632 51.3344 43.7991 51.3344 40.835 51.3344ZM31.7424 49.4729C37.8423 49.4729 43.9137 49.4729 50.028 49.4729C50.028 44.5901 50.028 39.7359 50.028 34.853C43.928 34.853 37.8566 34.853 31.7424 34.853C31.7424 39.7359 31.7424 44.5757 31.7424 49.4729Z" fill="#E54800"/>
<path d="M15.2181 32.9915C18.1678 32.9915 21.1176 32.9915 24.0673 32.9915C25.4993 32.9915 26.2152 33.7075 26.2152 35.1251C26.2152 39.8074 26.2152 44.5041 26.2152 49.1865C26.2152 50.6184 25.4993 51.3344 24.0817 51.3344C18.1822 51.3344 12.2683 51.3344 6.36883 51.3344C4.93691 51.3344 4.22095 50.6184 4.22095 49.2008C4.22095 44.5185 4.22095 39.8218 4.22095 35.1394C4.22095 33.7075 4.93691 32.9915 6.36883 32.9915C9.31858 32.9915 12.2683 32.9915 15.2181 32.9915ZM24.368 34.8673C18.2538 34.8673 12.1824 34.8673 6.08244 34.8673C6.08244 39.7502 6.08244 44.6044 6.08244 49.4872C12.1967 49.4872 18.2681 49.4872 24.368 49.4872C24.368 44.6044 24.368 39.7645 24.368 34.8673Z" fill="#E54800"/>
<path d="M46.4195 5.49863C44.9589 5.49863 43.4841 5.49863 42.0235 5.49863C41.3075 5.49863 40.8923 5.15497 40.9066 4.56788C40.9209 4.00943 41.3219 3.66577 42.0092 3.66577C44.9303 3.66577 47.8371 3.66577 50.7582 3.66577C51.4599 3.66577 51.9037 4.03807 51.8894 4.59652C51.8751 5.14065 51.4599 5.48431 50.7725 5.48431C49.312 5.51295 47.8657 5.49863 46.4195 5.49863Z" fill="#E54800"/>
<path d="M5.60982 5.49861C5.45231 5.49861 5.2948 5.51293 5.12297 5.49861C4.60748 5.46997 4.23518 5.09767 4.22086 4.61082C4.20654 4.13828 4.57884 3.72303 5.08001 3.68007C5.38071 3.65143 5.68142 3.66575 5.99644 3.66575C6.58352 3.69439 6.98446 4.08101 6.98446 4.58218C6.98446 5.09767 6.58352 5.45565 5.99644 5.48429C5.85325 5.51293 5.72437 5.49861 5.60982 5.49861Z" fill="#E54800"/>
<path d="M14.7454 5.49865C13.8147 5.49865 13.3994 5.21227 13.3994 4.59654C13.3994 3.9665 13.829 3.68011 14.7454 3.68011C14.8886 3.68011 15.0318 3.68011 15.175 3.68011C15.7621 3.72307 16.1487 4.09537 16.1344 4.62518C16.1201 5.14067 15.7478 5.48433 15.1893 5.51297C15.0318 5.51297 14.8886 5.49865 14.7454 5.49865Z" fill="#E54800"/>
<path d="M10.1777 5.49865C10.0345 5.49865 9.89132 5.49865 9.74813 5.49865C9.17536 5.47001 8.8317 5.12635 8.81738 4.59654C8.81738 4.08105 9.17536 3.70875 9.73381 3.68011C10.0202 3.66579 10.3066 3.66579 10.593 3.68011C11.18 3.70875 11.5523 4.08105 11.538 4.61086C11.5237 5.15499 11.1657 5.48433 10.55 5.49865C10.4211 5.51297 10.2923 5.49865 10.1777 5.49865Z" fill="#E54800"/>
<path d="M12.4832 19.0446C12.8268 19.3739 13.1705 19.5744 13.2994 19.8608C13.5858 20.4622 13.1132 21.0636 12.3973 21.0779C11.1945 21.0922 10.006 21.0779 8.80315 21.0779C7.70058 21.0779 6.58368 21.0779 5.4811 21.0779C4.70787 21.0779 4.34989 20.8488 4.23533 20.3333C4.1351 19.8465 4.40716 19.5028 5.15176 19.1878C5.02289 17.7415 5.33791 16.4099 6.56936 15.4648C5.82476 13.6033 5.99659 12.4578 7.14213 11.5986C8.15879 10.8254 9.53343 10.8397 10.5215 11.6273C11.6384 12.5294 11.8102 13.7035 11.0656 15.4362C12.2541 16.639 12.383 16.9683 12.4832 19.0446ZM10.6217 19.2307C10.7219 17.8131 10.4499 17.1258 9.63367 16.7249C9.00362 16.3955 8.17311 16.4958 7.62898 16.954C6.88438 17.584 6.92734 18.4002 7.02758 19.2307C8.24471 19.2307 9.41888 19.2307 10.6217 19.2307ZM8.86043 12.8587C8.35926 12.8301 7.91537 13.2167 7.88673 13.7179C7.85809 14.219 8.27334 14.6486 8.77452 14.6629C9.26137 14.6772 9.67663 14.3193 9.70526 13.8324C9.7339 13.3169 9.3616 12.8873 8.86043 12.8587Z" fill="#E54800"/>
<path d="M45.3313 18.8155C44.9733 19.1878 44.6296 19.5601 44.2573 19.9181C42.8111 21.3643 41.3792 22.8105 39.933 24.2425C39.2456 24.9298 38.8304 24.9298 38.1717 24.2568C37.2553 23.3403 36.3388 22.4096 35.3794 21.4502C34.1623 22.6673 32.9738 23.8702 31.7853 25.0586C30.9548 25.8892 30.6398 25.8892 29.795 25.0443C29.2222 24.4716 28.6781 23.8988 28.0051 23.1972C27.6328 23.6124 27.3177 23.999 26.9741 24.357C26.344 25.0157 25.6997 25.6601 25.041 26.2901C24.6401 26.6767 24.1102 26.6767 23.7379 26.3331C23.3657 25.9751 23.3227 25.4453 23.7236 25.0443C24.9408 23.7986 26.1579 22.5814 27.4037 21.3643C27.8332 20.949 28.3058 20.992 28.7783 21.4502C29.437 22.1089 30.0813 22.7819 30.7687 23.4835C31.5992 22.653 32.3867 21.8511 33.1886 21.0636C33.6611 20.5911 34.1194 20.1185 34.5919 19.6603C35.1503 19.1162 35.6086 19.1162 36.167 19.6746C37.1121 20.6197 38.0571 21.5791 38.9592 22.4955C40.6632 20.7915 42.3243 19.1305 44.0426 17.4122C43.613 17.4122 43.1977 17.4265 42.7825 17.4122C42.1954 17.3979 41.7944 17.0256 41.7944 16.4958C41.7944 15.9803 42.1954 15.5937 42.7825 15.5793C43.9423 15.565 45.1022 15.565 46.2764 15.5793C46.935 15.5793 47.2787 15.923 47.2787 16.5674C47.293 17.7272 47.293 18.8871 47.2787 20.0612C47.2787 20.677 46.935 21.0493 46.4052 21.0636C45.8468 21.0779 45.4745 20.6913 45.4602 20.0612C45.4458 19.6746 45.4602 19.2737 45.4602 18.8871C45.4172 18.8728 45.3742 18.8441 45.3313 18.8155Z" fill="#E54800"/>
<path d="M40.8781 47.6686C37.8568 47.6543 35.3796 45.1914 35.3652 42.1701C35.3652 39.163 37.8854 36.6428 40.8638 36.6572C43.9281 36.6858 46.391 39.1773 46.3767 42.213C46.3624 45.2057 43.8708 47.6829 40.8781 47.6686ZM39.9617 38.7048C38.4439 38.891 37.1408 40.6093 37.2124 42.2703C37.2983 44.2607 38.8734 45.8214 40.8495 45.8358C42.5105 45.8501 44.2002 44.5327 44.3434 43.0722C43.2694 43.0722 42.1955 43.0722 41.1359 43.0722C40.291 43.0722 39.9903 42.7571 39.976 41.898C39.9617 40.8527 39.9617 39.7788 39.9617 38.7048ZM41.8375 38.6905C41.8375 39.5496 41.8375 40.3802 41.8375 41.2107C42.6967 41.2107 43.5272 41.2107 44.3577 41.2107C44.1143 40.0079 43.026 38.9196 41.8375 38.6905Z" fill="#E54800"/>
<path d="M17.0651 45.8215C17.7094 45.8215 18.2536 45.8215 18.8693 45.8215C18.8836 45.621 18.8979 45.4349 18.8979 45.2487C18.8979 43.6163 18.8979 41.9983 18.9122 40.3659C18.9122 39.7931 19.2989 39.4351 19.8 39.4351C20.2869 39.4351 20.6592 39.7788 20.7165 40.3086C20.7308 40.4518 20.7308 40.595 20.7308 40.7382C20.7308 42.2274 20.7308 43.7023 20.7308 45.1914C20.7308 45.3919 20.7308 45.5781 20.7308 45.8645C21.0601 45.8645 21.3608 45.8501 21.6615 45.8645C22.177 45.8931 22.5493 46.2654 22.5493 46.7522C22.5493 47.2105 22.22 47.5971 21.7331 47.6687C21.5613 47.6973 21.3751 47.683 21.2033 47.683C17.4946 47.683 13.8003 47.683 10.0916 47.683C8.58811 47.683 7.88647 46.9813 7.88647 45.4922C7.88647 42.9863 7.88647 40.4804 7.88647 37.9746C7.88647 37.7455 7.90079 37.502 7.95807 37.2873C8.08694 36.8577 8.4306 36.6572 8.86018 36.6859C9.31839 36.7288 9.6191 36.9866 9.69069 37.4591C9.71933 37.6309 9.70501 37.8171 9.70501 37.9889C9.70501 40.3802 9.70501 42.7858 9.70501 45.1771C9.70501 45.3633 9.70501 45.5637 9.70501 45.7929C10.3207 45.7929 10.8792 45.7929 11.5092 45.7929C11.5235 45.6067 11.5379 45.4206 11.5379 45.2344C11.5379 43.7738 11.5379 42.299 11.5379 40.8384C11.5379 40.6952 11.5379 40.552 11.5379 40.4088C11.5808 39.8074 11.9245 39.4208 12.4543 39.4208C12.9841 39.4208 13.3564 39.7931 13.3564 40.4088C13.3707 41.626 13.3564 42.8431 13.3707 44.0602C13.3707 44.633 13.3707 45.1914 13.3707 45.8072C13.9864 45.8072 14.5592 45.8072 15.1749 45.8072C15.1893 45.621 15.2036 45.4349 15.2036 45.2487C15.2036 43.7452 15.2036 42.2417 15.2036 40.7382C15.2036 40.5663 15.2036 40.3802 15.2322 40.2084C15.3038 39.7358 15.6045 39.4781 16.0627 39.4351C16.5066 39.3922 16.9076 39.6786 16.9935 40.1511C17.0364 40.3802 17.0364 40.6093 17.0364 40.8384C17.0651 42.4851 17.0651 44.1175 17.0651 45.8215Z" fill="#E54800"/>
</svg>
