<svg width="54" height="55" viewBox="0 0 54 55" fill="none" xmlns="http://www.w3.org/2000/svg">
<path d="M54 34.54C54 35.3715 54 36.1888 54 37.0204C53.9719 37.1064 53.9297 37.1925 53.9297 37.2641C53.8875 38.3251 53.283 38.913 52.3692 39.2571C51.7646 39.4865 51.1601 39.7303 50.5696 40.0027C50.3869 40.0887 50.2182 40.2751 50.1338 40.4615C49.7261 41.4078 49.3325 42.3684 48.9669 43.3291C48.8966 43.5298 48.8826 43.8165 48.9669 44.0173C49.22 44.7198 49.5293 45.408 49.8245 46.0963C50.1619 46.8848 50.0776 47.6304 49.5152 48.2469C48.8123 49.0212 48.0812 49.7667 47.3221 50.4836C46.7316 51.0428 46.0146 51.1288 45.2554 50.8134C44.5665 50.5123 43.8776 50.1969 43.1747 49.9245C42.9779 49.8528 42.6967 49.8671 42.4999 49.9388C41.572 50.3116 40.6441 50.6987 39.7303 51.1145C39.5194 51.2149 39.3085 51.4156 39.2101 51.6307C38.9008 52.3189 38.6618 53.0214 38.3806 53.7097C38.0713 54.4696 37.523 54.9427 36.6936 54.9714C35.6673 55.0144 34.6269 55.0144 33.5866 54.9714C32.7571 54.9427 32.1807 54.4696 31.8573 53.6953C31.5621 52.9784 31.309 52.2615 30.9997 51.559C30.9154 51.3726 30.7326 51.2005 30.5499 51.1145C29.622 50.6987 28.68 50.2972 27.7381 49.9245C27.5413 49.8528 27.2601 49.8384 27.0633 49.9101C26.3603 50.1825 25.6714 50.498 24.9826 50.7991C24.2937 51.0858 23.6048 51.0572 23.0565 50.5553C22.213 49.7811 21.3976 48.9495 20.6524 48.0892C20.3994 47.8025 20.2026 47.6878 19.837 47.6878C15.2538 47.7451 10.7128 47.3293 6.32648 45.9099C4.58318 45.3364 2.89612 44.6051 1.51835 43.3434C0.492059 42.4688 0 41.3791 0 40.0027C0.0140588 29.2349 0.0140588 18.4672 0 7.69949C0 6.42342 0.393647 5.34809 1.32153 4.5595C2.08071 3.9143 2.91018 3.29777 3.79589 2.8533C7.11377 1.19011 10.6847 0.602256 14.326 0.229472C15.1133 0.143445 15.8865 0.0860936 16.6738 0.0144043C18.15 0.0144043 19.6261 0.0144043 21.1023 0.0144043C21.8474 0.0860936 22.6066 0.157783 23.3517 0.229472C26.1916 0.473216 28.9893 0.946365 31.7027 1.87832C33.3897 2.45184 35.0206 3.16873 36.3562 4.41612C37.3122 5.30507 37.8183 6.38041 37.8042 7.74251C37.762 10.2803 37.7902 12.8324 37.7902 15.3702C37.7902 16.2305 37.7339 17.0621 38.2963 17.8507C38.7321 18.4672 38.8867 19.2988 39.2101 20.0157C39.2945 20.2164 39.5053 20.3885 39.7022 20.4745C40.616 20.8903 41.5298 21.2774 42.4718 21.6502C42.6826 21.7362 42.9779 21.7362 43.1888 21.6646C43.8636 21.4065 44.5103 21.091 45.171 20.8186C45.9724 20.4745 46.7316 20.5605 47.3642 21.1771C48.0812 21.8653 48.7701 22.5678 49.4449 23.2991C50.0214 23.9299 50.1479 24.6755 49.7964 25.4928C49.5012 26.1953 49.1919 26.8979 48.9248 27.6291C48.8545 27.8155 48.8685 28.0879 48.9388 28.2743C49.3043 29.2349 49.698 30.1956 50.1057 31.1419C50.1901 31.3426 50.3869 31.5433 50.5837 31.6294C51.2726 31.9448 51.9896 32.2029 52.6785 32.504C53.3955 32.8194 53.8172 33.3786 53.9016 34.1815C53.9156 34.2962 53.9719 34.4109 54 34.54ZM46.0286 49.1646C46.127 49.0929 46.2395 49.0355 46.3239 48.9495C46.8722 48.3903 47.4064 47.8311 47.9688 47.2863C48.1937 47.0569 48.1937 46.8562 48.0672 46.5694C47.7157 45.7665 47.3923 44.9492 47.0409 44.1606C46.8581 43.7305 46.9143 43.3577 47.1112 42.9419C47.6173 41.7949 48.0953 40.6192 48.5311 39.4292C48.6998 38.9703 48.9248 38.6693 49.3746 38.4972C50.176 38.1961 50.9774 37.8663 51.7646 37.5222C51.9334 37.4505 52.1161 37.2068 52.1302 37.0347C52.1723 36.2318 52.1723 35.4289 52.1302 34.626C52.1161 34.4539 51.9334 34.2102 51.7646 34.1385C50.9633 33.78 50.1479 33.4503 49.3325 33.1348C48.8966 32.9628 48.6858 32.6474 48.5311 32.2172C48.0953 31.0415 47.6313 29.8515 47.1112 28.7044C46.9143 28.26 46.8722 27.8728 47.0549 27.4284C47.4064 26.6255 47.7298 25.8082 48.0812 25.0196C48.1937 24.7472 48.1796 24.5608 47.9688 24.3601C47.4205 23.8296 46.8862 23.2847 46.366 22.7256C46.1411 22.4962 45.9443 22.4818 45.6631 22.6109C44.8618 22.9836 44.0463 23.3134 43.245 23.6719C42.8654 23.8439 42.528 23.7866 42.1484 23.6145C40.9815 23.084 39.8006 22.5822 38.6196 22.109C38.2119 21.9513 37.9167 21.7362 37.762 21.3205C37.4527 20.5032 37.1153 19.7003 36.8201 18.8687C36.7076 18.5676 36.553 18.3955 36.2156 18.4099C35.4845 18.4242 34.7394 18.4242 34.0083 18.4099C33.699 18.4099 33.5444 18.5389 33.4319 18.84C33.1367 19.6573 32.7993 20.4602 32.49 21.2918C32.3213 21.7219 32.0401 21.9513 31.6043 22.1234C30.4233 22.5678 29.2705 23.0697 28.1177 23.6002C27.724 23.7866 27.3726 23.8439 26.9649 23.6719C26.1776 23.3134 25.3762 22.9836 24.603 22.6252C24.3077 22.4818 24.0828 22.4962 23.8578 22.7399C23.3517 23.2704 22.8456 23.7866 22.3254 24.2884C22.0724 24.5321 22.0443 24.7615 22.1848 25.0913C22.5363 25.8512 22.8175 26.6398 23.169 27.3997C23.3798 27.8728 23.3236 28.26 23.1127 28.7188C22.6066 29.8515 22.1286 30.9985 21.7068 32.1742C21.5381 32.6617 21.2991 32.9771 20.8352 33.1492C20.0479 33.4503 19.2747 33.7944 18.4874 34.0955C18.1921 34.2102 18.0656 34.3822 18.0797 34.6833C18.0937 35.4146 18.0937 36.1458 18.0797 36.8914C18.0656 37.2498 18.2062 37.4362 18.5436 37.5652C19.3309 37.8663 20.1041 38.2104 20.8914 38.5115C21.3554 38.6836 21.5522 38.999 21.7209 39.4578C22.1567 40.6479 22.6347 41.8092 23.1549 42.9563C23.3517 43.3864 23.3939 43.7449 23.2111 44.175C22.8456 44.9922 22.5082 45.8095 22.1848 46.6411C22.1286 46.8132 22.1708 47.1142 22.2833 47.2433C22.8034 47.8311 23.3658 48.3616 23.9 48.9352C24.1109 49.1502 24.2937 49.1646 24.5467 49.0499C25.3481 48.6914 26.1635 48.3473 26.9649 47.9889C27.3726 47.8025 27.724 47.8598 28.1177 48.0462C29.2705 48.5624 30.4374 49.0642 31.6043 49.523C32.026 49.6951 32.3353 49.9101 32.504 50.3546C32.7993 51.1575 33.1367 51.9461 33.4319 52.749C33.5584 53.0931 33.7412 53.2365 34.0786 53.2365C34.7816 53.2222 35.4845 53.2365 36.1875 53.2365C36.5389 53.2365 36.7498 53.0931 36.8763 52.7347C37.1575 51.9318 37.509 51.1432 37.8042 50.3403C37.9589 49.9101 38.2541 49.7094 38.6618 49.5517C39.8427 49.0929 41.0096 48.6054 42.1484 48.0749C42.5702 47.8885 42.9357 47.8311 43.3575 48.0175C44.1448 48.376 44.932 48.7057 45.7334 49.0499C45.7756 49.0642 45.888 49.1072 46.0286 49.1646ZM19.6964 1.84965C15.5491 1.84965 12.6811 2.12207 9.40536 2.83896C7.4793 3.25476 5.59542 3.82827 3.88024 4.8606C3.30383 5.21904 2.75553 5.66352 2.29159 6.16534C1.60271 6.93959 1.63083 7.74251 2.27753 8.54543C2.55871 8.88953 2.88206 9.21931 3.24759 9.44871C4.063 9.9362 4.89248 10.4237 5.76412 10.7821C8.5056 11.9005 11.4017 12.388 14.326 12.6461C19.2747 13.1049 24.1812 12.9041 29.0315 11.7428C30.9997 11.2696 32.9258 10.6531 34.5988 9.42003C36.4546 8.05794 36.4686 6.59548 34.5566 5.30507C33.5584 4.63119 32.4337 4.10069 31.309 3.68489C27.3163 2.25111 23.1408 1.89266 19.6964 1.84965ZM1.81359 10.6674C1.81359 10.9255 1.81359 11.0976 1.81359 11.284C1.81359 13.4633 1.85577 15.657 1.79953 17.8364C1.77141 18.8543 2.13694 19.6429 2.92424 20.1734C3.79589 20.7613 4.70971 21.3348 5.67977 21.7219C10.3192 23.5428 15.1695 23.9156 20.076 23.8439C20.2166 23.8439 20.3994 23.7292 20.5118 23.6288C21.2991 22.8116 22.0583 21.98 22.8597 21.1771C23.4923 20.5462 24.2515 20.4745 25.0529 20.8186C25.7277 21.1054 26.4025 21.4208 27.0914 21.6932C27.2741 21.7649 27.5272 21.7506 27.71 21.6789C28.6519 21.3061 29.5939 20.9047 30.5217 20.4889C30.7186 20.4028 30.9294 20.2164 31.0138 20.0157C31.295 19.3992 31.534 18.7683 31.7589 18.1231C32.1244 17.0908 32.8414 16.5746 33.924 16.5746C34.5988 16.5746 35.2877 16.5746 35.9625 16.5746C35.9625 14.5817 35.9625 12.6747 35.9625 10.7248C35.4142 11.0545 34.9222 11.3987 34.3879 11.6854C31.1966 13.3629 27.7381 14.0225 24.2093 14.4096C20.1463 14.8684 16.0693 14.8111 12.0203 14.2089C8.44936 13.664 4.94871 12.8755 1.81359 10.6674ZM1.81359 32.7764C1.81359 32.8911 1.81359 33.0488 1.81359 33.2209C1.81359 35.4432 1.84171 37.6656 1.79953 39.888C1.77141 40.8916 2.12288 41.6802 2.89612 42.182C3.96459 42.8559 5.06118 43.5298 6.22807 43.9743C10.4176 45.5227 14.804 45.8525 19.2325 45.9385C20.2166 45.9529 20.6946 45.6374 21.018 44.7055C21.271 43.9886 21.4538 43.4007 20.9617 42.7269C20.7649 42.4688 20.6103 42.1247 20.5681 41.7949C20.3431 40.3755 19.4434 39.7016 18.164 39.3718C16.8425 39.0277 16.1817 38.1674 16.238 36.7623C16.238 36.7336 16.2098 36.705 16.1817 36.662C15.1133 36.5616 14.0307 36.4899 12.9482 36.3609C10.2911 36.0598 7.66207 35.5723 5.18771 34.5113C4.02083 34.0238 2.9383 33.3642 1.81359 32.7764ZM1.81359 21.7076C1.81359 24.102 1.85577 26.4247 1.79953 28.7618C1.77141 29.8801 2.17912 30.7117 3.03671 31.2566C4.03489 31.8731 5.06118 32.4753 6.15777 32.8911C9.1523 34.0525 12.2874 34.5113 15.4788 34.7407C15.7318 34.755 15.9849 34.7407 16.2801 34.7407C16.2098 33.3642 16.9268 32.6187 18.1218 32.2459C18.5295 32.1169 18.8951 31.8874 19.3028 31.7727C19.823 31.6294 20.1323 31.3283 20.2447 30.7691C20.3291 30.339 20.4697 29.8801 20.7087 29.5217C21.5522 28.3173 21.3273 27.1846 20.6665 26.0233C20.5259 25.7795 20.4134 25.6648 20.1182 25.6648C18.2906 25.6218 16.4629 25.6361 14.6493 25.4784C10.1364 25.0913 5.73601 24.3314 1.81359 21.7076Z" fill="#E54800"/>
<path d="M35.4282 47.7308C29.2142 48.0032 23.6891 42.7842 23.4079 36.4612C23.1127 29.7081 28.1176 24.231 34.4019 23.9156C41.0939 23.5715 46.5066 28.6471 46.7878 35.4289C47.069 41.9383 41.9937 47.444 35.4282 47.7308ZM44.9882 35.5293C44.679 29.6794 40.0958 25.3924 34.4722 25.7222C29.0455 26.0376 24.9122 30.8408 25.2215 36.4756C25.5168 41.8093 30.2405 46.1393 35.4282 45.8955C41.0096 45.6375 45.1288 40.949 44.9882 35.5293Z" fill="#E54800"/>
<path d="M6.28423 16.9904C6.28423 17.6643 5.80623 18.1231 5.25793 17.9797C4.80805 17.865 4.35817 17.6643 3.96452 17.4206C3.62711 17.2055 3.51464 16.8327 3.66928 16.4313C3.80987 16.0441 4.10511 15.743 4.49875 15.8434C5.03299 15.9868 5.53911 16.2305 6.01711 16.5029C6.18582 16.5746 6.22799 16.8757 6.28423 16.9904Z" fill="#E54800"/>
<path d="M9.16638 17.3202C9.44756 17.3919 9.86933 17.4493 10.2489 17.5926C10.6988 17.7647 10.8534 18.1661 10.7691 18.6393C10.6847 19.0694 10.277 19.3849 9.84121 19.3275C9.44756 19.2702 9.05391 19.1841 8.67432 19.0551C8.21038 18.8974 8.05574 18.5103 8.12603 18.0228C8.19632 17.5926 8.56185 17.3059 9.16638 17.3202Z" fill="#E54800"/>
<path d="M27.9067 35.773C27.9208 31.7154 31.1403 28.4607 35.133 28.475C39.0835 28.4894 42.2889 31.7871 42.2889 35.816C42.2749 39.9023 39.0413 43.1713 35.0205 43.1426C31.084 43.114 27.9067 39.8163 27.9067 35.773ZM29.7203 35.8303C29.7344 38.8843 32.1525 41.3361 35.133 41.3074C38.1275 41.2931 40.5316 38.7983 40.5035 35.73C40.4753 32.7334 38.0291 30.2816 35.0908 30.3103C32.0822 30.3246 29.7063 32.7764 29.7203 35.8303Z" fill="#E54800"/>
</svg>
