<svg width="49" height="56" viewBox="0 0 49 56" fill="none" xmlns="http://www.w3.org/2000/svg">
<path d="M21.5091 38.088C21.5091 36.578 21.5091 35.2118 21.5091 33.7737C21.2897 33.7737 21.0995 33.7737 20.9093 33.7737C19.0806 33.7737 17.252 33.7593 15.4233 33.7737C14.2676 33.7881 13.2729 33.4717 12.4829 32.6089C12.3951 32.5082 12.1757 32.5082 12.0147 32.4794C11.9855 32.4794 11.9416 32.5082 11.9123 32.5082C11.0346 32.7958 9.98128 32.8821 9.30834 33.4142C8.65002 33.9319 8.34281 34.9098 7.8893 35.6864C7.56746 36.2329 7.26025 36.7793 6.95303 37.3402C7.56746 38.0592 7.86004 38.8646 7.72838 39.7993C7.52357 41.3381 6.11917 42.4167 4.49532 42.2872C2.97389 42.1722 1.77429 40.8635 1.80355 39.3391C1.81818 37.8004 3.09092 36.4486 4.64162 36.4773C5.32919 36.4917 5.62177 36.2472 5.91436 35.6864C6.4849 34.579 7.11395 33.5005 7.77227 32.4507C7.94782 32.163 8.29892 31.9042 8.62076 31.7748C9.48389 31.444 10.3763 31.1851 11.2687 30.9263C11.5759 30.84 11.7222 30.7106 11.6929 30.3654C11.6636 29.8333 11.6783 29.3012 11.6783 28.6972C10.4055 28.6972 9.1913 28.7691 7.97708 28.6828C6.79211 28.5966 6.42638 29.6176 5.72418 30.1641C5.66566 30.2072 5.78269 30.4805 5.82658 30.653C6.32398 32.2349 5.41696 33.9175 3.82238 34.3777C2.21317 34.8379 0.516178 33.9175 0.10656 32.3069C-0.171395 31.2139 0.0919309 30.2216 0.925796 29.445C1.77429 28.6541 2.79834 28.4096 3.91016 28.7979C4.3344 28.9417 4.59773 28.8986 4.84643 28.5678C5.82658 27.216 7.14321 26.7846 8.79631 26.9715C9.73258 27.0866 10.6835 26.9859 11.649 26.9859C11.6636 26.8708 11.6783 26.7989 11.6783 26.727C11.6783 25.7923 11.6783 24.8575 11.6783 23.9084C11.5759 23.8796 11.5027 23.8508 11.4149 23.8508C9.67407 23.8508 7.93319 23.8652 6.20694 23.8365C5.81195 23.8365 5.76807 24.0809 5.65103 24.311C5.03661 25.4759 3.73461 26.123 2.44723 25.8786C1.14523 25.6341 0.135819 24.5555 0.033414 23.29C-0.0836197 21.9238 0.647841 20.7302 1.92058 20.2556C3.36887 19.6947 4.97809 20.3131 5.66566 21.7081C5.82658 22.0388 6.00213 22.1395 6.36786 22.1395C8.12337 22.1251 9.87888 22.1251 11.6636 22.1251C11.6636 21.0753 11.6636 20.0543 11.6636 18.9757C10.5226 18.9757 9.39611 18.9901 8.26966 18.9757C6.1338 18.9613 6.77748 19.2058 5.22678 17.7533C5.16827 17.7102 5.10975 17.6526 5.06586 17.5951C4.71476 17.1349 4.34903 17.0199 3.73461 17.2212C2.43261 17.6383 1.04283 16.9767 0.384515 15.7975C-0.25917 14.647 -0.0251028 13.1945 0.940425 12.2742C1.93521 11.3394 3.41276 11.1956 4.5831 11.9003C5.73881 12.6049 6.28009 14.0143 5.82658 15.2798C5.68029 15.6825 5.82658 15.855 6.04602 16.1426C6.76285 17.0486 7.64061 17.3794 8.79631 17.25C9.70332 17.1493 10.625 17.2212 11.532 17.2212C11.5612 17.2212 11.5905 17.1925 11.6783 17.1493C11.6783 16.6316 11.6929 16.0707 11.6636 15.5243C11.649 15.4092 11.4588 15.251 11.3272 15.1935C10.4055 14.834 9.46926 14.532 8.56225 14.1581C8.25503 14.0286 7.93319 13.7698 7.75764 13.4965C7.05544 12.3461 6.39712 11.1668 5.73881 9.97321C5.534 9.5993 5.31456 9.45549 4.86105 9.48425C3.29573 9.55616 1.96447 8.36254 1.80355 6.83816C1.65726 5.38568 2.71056 3.99072 4.15885 3.7031C5.70955 3.4011 7.23099 4.27834 7.65523 5.77396C7.94782 6.82378 7.68449 7.75854 6.95303 8.60702C7.68449 9.87254 8.40132 11.1381 9.13278 12.4036C9.1913 12.5186 9.33759 12.6193 9.45463 12.6624C10.2739 12.9788 11.0931 13.2808 11.9123 13.5685C12.044 13.6116 12.2488 13.5972 12.3366 13.5109C13.6093 12.4467 13.5947 12.4467 15.4233 12.1016C15.4233 11.1668 15.3795 10.2177 15.438 9.28292C15.5111 8.29063 15.555 7.2552 15.833 6.30606C16.974 2.36568 20.8654 -0.251661 25.0347 0.0359581C29.2187 0.323577 32.6858 3.48739 33.271 7.57159C33.3441 8.0893 33.3588 8.60702 33.3734 9.12473C33.388 10.117 33.3734 11.0949 33.3734 12.0584C34.0024 12.2166 34.6461 12.2742 35.1874 12.5186C35.7287 12.7775 36.1822 13.2233 36.782 13.6691C37.6305 13.3671 38.6399 13.0076 39.6347 12.6193C39.7371 12.5762 39.8249 12.4611 39.8834 12.3461C40.6002 11.1093 41.3024 9.87254 42.0193 8.60702C41.4341 7.90235 41.1269 7.11139 41.2439 6.17663C41.4487 4.62349 42.8239 3.51615 44.4477 3.6312C46.013 3.74625 47.2126 5.05492 47.198 6.59368C47.1687 8.14682 45.8667 9.48426 44.3014 9.45549C43.687 9.44111 43.409 9.64245 43.1457 10.1458C42.5605 11.2675 41.9315 12.3604 41.2585 13.4246C41.0684 13.7266 40.7173 14.0143 40.3808 14.1581C39.4591 14.5464 38.5082 14.8627 37.5573 15.1935C37.2501 15.2942 37.1185 15.438 37.1331 15.7687C37.1624 16.2289 37.1331 16.6891 37.1331 17.2212C38.4058 17.2212 39.6054 17.1205 40.805 17.25C42.0778 17.3938 42.5166 16.4015 43.2335 15.7975C43.3066 15.74 43.2188 15.4667 43.1603 15.3085C42.6483 13.7266 43.5261 12.0441 45.1207 11.5551C46.7445 11.0662 48.4707 12.0009 48.8804 13.626C49.1583 14.7189 48.895 15.7112 48.0465 16.4878C47.198 17.2787 46.1593 17.5088 45.0475 17.1205C44.6525 16.9911 44.4038 17.0055 44.1551 17.3363C43.1603 18.6881 41.8437 19.1626 40.1613 18.9613C39.1958 18.8463 38.1864 18.9469 37.1624 18.9469C37.1624 19.9967 37.1624 21.0178 37.1624 22.0964C37.9084 22.0964 38.6253 22.0964 39.3567 22.0964C40.4539 22.0964 41.5511 22.082 42.6483 22.1107C42.9848 22.1107 43.1603 22.0245 43.3066 21.7081C43.9211 20.4426 45.2816 19.7954 46.6275 20.0974C48.0026 20.3994 48.9681 21.593 48.9681 22.9736C48.9681 24.3542 48.0319 25.4903 46.6567 25.821C45.3108 26.1518 43.9357 25.4759 43.2774 24.2104C43.1896 24.0522 42.9994 23.8365 42.8531 23.8365C40.966 23.8077 39.0934 23.8221 37.1624 23.8221C37.1624 24.8719 37.1624 25.8786 37.1624 26.9715C37.9962 26.9715 38.8155 26.9715 39.6347 26.9715C40.3808 26.9715 41.1415 26.9284 41.8876 26.9859C42.2533 27.0147 42.6483 27.1872 42.9409 27.4173C43.409 27.7768 43.8186 28.2227 44.2429 28.6541C44.4623 28.8842 44.6379 28.9129 44.9597 28.7979C46.6713 28.1795 48.4707 29.1287 48.9096 30.84C49.3339 32.4938 48.222 34.1332 46.4665 34.4352C44.2722 34.8091 42.4581 32.7095 43.1896 30.5955C43.3066 30.2648 43.2188 30.1066 43.0287 29.8621C42.2826 28.9129 41.3609 28.539 40.1467 28.6828C39.2251 28.7835 38.2888 28.7116 37.3525 28.7116C37.3233 28.7116 37.2794 28.726 37.1477 28.7548C37.1477 29.33 37.1331 29.934 37.1624 30.538C37.1624 30.653 37.3818 30.7969 37.5281 30.84C38.4497 31.142 39.3567 31.444 40.293 31.7172C40.7611 31.861 41.083 32.1055 41.3171 32.5369C41.9461 33.6874 42.6337 34.8235 43.2627 35.974C43.4675 36.3479 43.7016 36.4773 44.1551 36.463C45.7058 36.4054 46.9639 37.4984 47.1834 39.0084C47.3882 40.4177 46.4373 41.8127 44.989 42.201C43.8186 42.5173 42.5605 42.0859 41.8144 41.1224C41.083 40.1732 41.0245 38.8502 41.6682 37.8291C41.7706 37.6566 41.9022 37.5128 42.0339 37.3258C41.3171 36.0747 40.6148 34.8235 39.8834 33.5868C39.8102 33.4573 39.6201 33.3423 39.4738 33.2848C38.6253 32.9971 37.7768 32.7383 36.9283 32.465C36.665 32.3788 36.5187 32.4075 36.3285 32.6232C35.6409 33.3998 34.7632 33.7737 33.7099 33.7737C32.598 33.7737 31.4862 33.7737 30.3159 33.7737C30.6085 34.2339 30.8864 34.6653 31.1936 35.1399C31.9251 34.8954 32.7004 34.8235 33.4758 35.1687C34.2511 35.5138 34.7632 36.089 35.0411 36.8081C35.6409 36.765 36.1968 36.6499 36.7381 36.7074C38.0401 36.8656 39.0642 37.8867 39.1227 39.2241C39.2543 42.6611 39.2251 46.0982 38.0986 49.4058C37.9377 49.8948 37.7914 50.4269 37.4988 50.8439C36.9283 51.6924 36.7966 52.584 36.8844 53.5619C36.899 53.7201 36.8844 53.8927 36.8844 54.0509C36.8551 54.6836 36.5333 55.0144 35.8896 55.0144C31.3399 55.0144 26.7902 55.0144 22.2259 55.0144C21.5676 55.0144 21.275 54.6693 21.2311 53.9934C21.1726 52.886 21.2897 51.7212 20.9824 50.6857C20.6167 49.4058 19.9877 48.1834 19.344 47.0042C17.8518 44.2287 16.2718 41.4963 14.7797 38.7208C14.4724 38.1599 14.3115 37.4552 14.3115 36.8081C14.2823 34.9673 16.0085 33.7881 17.7933 34.3777C18.5686 34.6222 19.1538 35.1399 19.6512 35.7583C20.2217 36.4773 20.8215 37.2251 21.5091 38.088ZM27.2438 32.0192C27.4632 32.0336 27.6241 32.048 27.785 32.048C29.6868 32.048 31.5886 32.048 33.4904 32.048C34.7632 32.048 35.3922 31.444 35.3922 30.2072C35.3922 25.3896 35.3922 20.572 35.3922 15.7544C35.3922 14.5032 34.7778 13.8848 33.5197 13.8848C27.4486 13.8848 21.3774 13.8848 15.3063 13.8848C14.0482 13.8848 13.4191 14.5176 13.4191 15.74C13.4191 20.5576 13.4191 25.3752 13.4191 30.1929C13.4191 31.4152 14.0628 32.048 15.3209 32.048C17.2227 32.048 19.1245 32.048 21.0263 32.048C21.1873 32.048 21.3482 32.0336 21.553 32.0192C21.553 31.7891 21.553 31.6022 21.553 31.4009C21.553 29.5745 21.5384 27.7337 21.5676 25.9073C21.5676 25.519 21.6115 25.102 21.7432 24.7425C21.8748 24.3829 21.8163 24.1816 21.553 23.9084C20.3534 22.6716 20.1632 20.7877 21.0556 19.3208C21.948 17.854 23.7181 17.1349 25.4005 17.5664C28.2971 18.3142 29.3211 21.7944 27.273 23.9659C27.1413 24.1097 27.0389 24.3398 27.0536 24.5268C27.0828 24.9869 27.2438 25.4471 27.2584 25.8929C27.2876 27.7193 27.273 29.5601 27.273 31.3865C27.2438 31.6022 27.2438 31.7891 27.2438 32.0192ZM23.2792 33.1409C23.2792 35.5713 23.2939 37.9873 23.2646 40.4177C23.2646 40.7053 23.1476 41.0649 22.9428 41.2806C22.5624 41.6832 22.0211 41.5538 21.5969 41.0073C20.4704 39.6124 19.3732 38.2031 18.2322 36.8225C17.9688 36.5061 17.6031 36.2041 17.2227 36.0315C16.5937 35.7439 16.0085 36.1322 16.0378 36.8225C16.0524 37.1964 16.1694 37.5991 16.3304 37.9586C17.5885 40.8348 19.2562 43.4952 20.8947 46.1845C21.6847 47.4788 22.4015 48.8162 22.7233 50.3118C22.8111 50.7433 22.9867 50.8727 23.4402 50.8727C26.8927 50.8583 30.3451 50.8583 33.8123 50.8583C35.7141 50.8583 35.7287 50.8583 36.3578 49.0751C37.4696 45.94 37.4403 42.6899 37.3818 39.4254C37.3672 38.7927 36.8551 38.39 36.2553 38.4044C35.6556 38.4188 35.2459 38.8502 35.202 39.4973C35.1728 39.8712 35.202 40.2595 35.1435 40.6191C35.0704 41.0505 34.7485 41.2806 34.3243 41.2806C33.8854 41.2806 33.5489 41.0505 33.4758 40.5903C33.4319 40.3746 33.4465 40.1589 33.4465 39.9431C33.4319 39.1666 33.4612 38.39 33.4173 37.6278C33.388 37.0526 32.9199 36.6787 32.364 36.6643C31.8081 36.6643 31.3692 37.0238 31.2668 37.5991C31.2375 37.786 31.2375 37.9873 31.2375 38.1887C31.2375 38.9221 31.2522 39.6699 31.2229 40.4033C31.2083 40.9211 30.8425 41.2806 30.3744 41.2806C29.9063 41.295 29.5405 40.9354 29.482 40.4321C29.4674 40.2595 29.4674 40.0726 29.4674 39.9C29.4674 38.5913 29.482 37.2683 29.4528 35.9596C29.4381 35.3269 28.97 34.881 28.3848 34.881C27.7997 34.8667 27.3315 35.2981 27.2584 35.9165C27.2438 36.0747 27.2438 36.2329 27.2438 36.4054C27.2438 37.4984 27.2584 38.6057 27.2291 39.6987C27.2145 40.2308 26.8926 40.5615 26.3953 40.5759C25.8979 40.5903 25.5468 40.2739 25.4882 39.7562C25.4736 39.5836 25.4736 39.3967 25.4736 39.2241C25.4736 34.8523 25.4736 30.4949 25.4736 26.123C25.4736 25.9217 25.4736 25.7204 25.459 25.5334C25.4005 24.9294 24.9031 24.5411 24.2887 24.5843C23.645 24.6274 23.2792 25.0876 23.2792 25.8786C23.2792 28.2802 23.2792 30.7106 23.2792 33.1409ZM19.2416 12.1304C19.2562 11.9146 19.2708 11.7133 19.2708 11.5264C19.2855 10.5197 19.2416 9.51302 19.3001 8.50635C19.4318 5.88901 21.67 3.80377 24.3325 3.77501C27.1413 3.74625 29.4674 5.96092 29.5113 8.70768C29.5259 9.8294 29.5113 10.9655 29.5113 12.116C30.2281 12.116 30.9011 12.116 31.6033 12.116C31.6033 10.9655 31.6179 9.85816 31.6033 8.75083C31.574 5.40006 29.1894 2.56701 25.8393 1.86234C22.577 1.18644 19.1977 2.88339 17.7933 5.90339C16.857 7.90235 17.2374 10.0164 17.1642 12.1304C17.8957 12.1304 18.5394 12.1304 19.2416 12.1304ZM21.0849 12.116C23.3231 12.116 25.5175 12.116 27.7704 12.116C27.7704 11.0805 27.7704 10.0739 27.7704 9.06721C27.7704 8.85149 27.7704 8.63578 27.7558 8.42006C27.5656 6.80939 26.1758 5.55825 24.5373 5.50073C22.8989 5.4432 21.3043 6.5793 21.1287 8.16121C20.9678 9.45549 21.0849 10.7785 21.0849 12.116ZM24.1862 19.177C23.4548 19.2058 22.7672 19.6228 22.4161 20.4569C22.0504 21.291 22.2113 22.0676 22.8257 22.7579C23.0159 22.9736 23.2061 23.0167 23.5279 22.9736C24.1131 22.8873 24.7129 22.9736 25.2981 22.9448C25.5029 22.9448 25.7662 22.9161 25.9125 22.801C26.5562 22.2258 26.7464 21.2766 26.4099 20.4713C26.0734 19.6804 25.2834 19.1626 24.1862 19.177ZM22.9866 53.2455C27.0536 53.2455 31.0766 53.2455 35.0704 53.2455C35.0704 53.0154 35.0704 52.8285 35.0704 52.6128C31.0327 52.6128 27.0243 52.6128 22.9866 52.6128C22.9866 52.8429 22.9866 53.0298 22.9866 53.2455ZM47.2126 31.5734C47.2273 30.9119 46.7006 30.3654 46.0277 30.3367C45.3547 30.3223 44.7695 30.8831 44.7695 31.559C44.7695 32.2062 45.3255 32.767 45.9838 32.767C46.6567 32.767 47.198 32.2349 47.2126 31.5734ZM1.7304 14.3738C1.7304 15.0353 2.25705 15.5818 2.93 15.5962C3.58831 15.6105 4.15885 15.0641 4.17348 14.4169C4.18811 13.741 3.61757 13.1658 2.94463 13.1658C2.27168 13.1802 1.7304 13.7123 1.7304 14.3738ZM44.7695 14.3882C44.7695 15.0497 45.3255 15.5818 45.9838 15.5962C46.6567 15.6105 47.198 15.0785 47.2126 14.4025C47.2273 13.7123 46.6567 13.1514 45.9838 13.1658C45.3108 13.1802 44.7695 13.7266 44.7695 14.3882ZM1.7304 31.5447C1.7304 32.2062 2.25705 32.7527 2.93 32.767C3.60294 32.7814 4.18811 32.2062 4.17348 31.5303C4.15885 30.8831 3.60294 30.3367 2.94463 30.3367C2.27168 30.3367 1.7304 30.8831 1.7304 31.5447ZM4.77328 5.35692C4.10034 5.34254 3.54443 5.86025 3.51517 6.52178C3.50054 7.19768 4.07108 7.77292 4.74402 7.75854C5.41696 7.75854 5.95825 7.21206 5.95825 6.56492C5.9875 5.88901 5.46085 5.3713 4.77328 5.35692ZM44.199 5.35692C43.5114 5.35692 42.9702 5.86025 42.9702 6.53616C42.9555 7.19768 43.4968 7.74416 44.1551 7.75854C44.8427 7.77292 45.4279 7.21206 45.4279 6.55054C45.4132 5.88901 44.872 5.35692 44.199 5.35692ZM4.74402 38.1743C4.07108 38.1743 3.5298 38.7064 3.51517 39.3679C3.51517 40.0438 4.07108 40.5903 4.77328 40.5759C5.44622 40.5615 5.97287 40.0294 5.95825 39.3535C5.97287 38.7064 5.41696 38.1743 4.74402 38.1743ZM44.199 38.1743C43.5261 38.1599 42.9702 38.6776 42.9555 39.3535C42.9409 40.0294 43.4529 40.5615 44.1405 40.5759C44.8427 40.5903 45.4132 40.0582 45.4132 39.3823C45.4132 38.7208 44.872 38.1887 44.199 38.1743ZM2.94463 21.7656C2.25705 21.7656 1.7304 22.2833 1.7304 22.9592C1.7304 23.6351 2.24243 24.1528 2.93 24.1672C3.6322 24.1816 4.18811 23.6351 4.17348 22.9448C4.15885 22.2833 3.6322 21.7656 2.94463 21.7656ZM47.2126 22.9736C47.2126 22.2977 46.7006 21.78 46.013 21.7656C45.3255 21.7512 44.7842 22.2689 44.7695 22.9305C44.7549 23.6207 45.2962 24.1672 45.9984 24.1672C46.6713 24.1672 47.2126 23.6495 47.2126 22.9736Z" fill="#E54800"/>
</svg>
