<svg width="135" height="33" viewBox="0 0 135 33" fill="none" xmlns="http://www.w3.org/2000/svg">
<path d="M43.136 25V9.66H37.104V6.8H52.548V9.66H46.516V25H43.136ZM59.8768 25.182C58.3341 25.182 56.9821 24.8787 55.8208 24.272C54.6768 23.648 53.7841 22.7987 53.1428 21.724C52.5188 20.6493 52.2068 19.4273 52.2068 18.058C52.2068 16.6713 52.5101 15.4493 53.1168 14.392C53.7408 13.3173 54.5901 12.4767 55.6648 11.87C56.7568 11.2633 57.9961 10.96 59.3828 10.96C60.7348 10.96 61.9394 11.2547 62.9968 11.844C64.0541 12.4333 64.8861 13.2653 65.4928 14.34C66.0994 15.4147 66.4028 16.68 66.4028 18.136C66.4028 18.2747 66.3941 18.4307 66.3768 18.604C66.3768 18.7773 66.3681 18.942 66.3508 19.098H54.7808V16.94H64.6348L63.3608 17.616C63.3781 16.8187 63.2134 16.1167 62.8668 15.51C62.5201 14.9033 62.0434 14.4267 61.4368 14.08C60.8474 13.7333 60.1628 13.56 59.3828 13.56C58.5854 13.56 57.8834 13.7333 57.2768 14.08C56.6874 14.4267 56.2194 14.912 55.8728 15.536C55.5434 16.1427 55.3788 16.862 55.3788 17.694V18.214C55.3788 19.046 55.5694 19.7827 55.9508 20.424C56.3321 21.0653 56.8694 21.5593 57.5628 21.906C58.2561 22.2527 59.0534 22.426 59.9548 22.426C60.7348 22.426 61.4368 22.3047 62.0608 22.062C62.6848 21.8193 63.2394 21.438 63.7248 20.918L65.4668 22.92C64.8428 23.648 64.0541 24.2113 63.1008 24.61C62.1648 24.9913 61.0901 25.182 59.8768 25.182ZM75.8946 25.182C74.4386 25.182 73.1386 24.8787 71.9946 24.272C70.8679 23.648 69.9839 22.7987 69.3426 21.724C68.7012 20.6493 68.3806 19.4273 68.3806 18.058C68.3806 16.6713 68.7012 15.4493 69.3426 14.392C69.9839 13.3173 70.8679 12.4767 71.9946 11.87C73.1386 11.2633 74.4386 10.96 75.8946 10.96C77.2466 10.96 78.4339 11.2373 79.4566 11.792C80.4966 12.3293 81.2852 13.1267 81.8226 14.184L79.3266 15.64C78.9106 14.9813 78.3992 14.496 77.7926 14.184C77.2032 13.872 76.5619 13.716 75.8686 13.716C75.0712 13.716 74.3519 13.8893 73.7106 14.236C73.0692 14.5827 72.5666 15.0853 72.2026 15.744C71.8386 16.3853 71.6566 17.1567 71.6566 18.058C71.6566 18.9593 71.8386 19.7393 72.2026 20.398C72.5666 21.0393 73.0692 21.5333 73.7106 21.88C74.3519 22.2267 75.0712 22.4 75.8686 22.4C76.5619 22.4 77.2032 22.244 77.7926 21.932C78.3992 21.62 78.9106 21.1347 79.3266 20.476L81.8226 21.932C81.2852 22.972 80.4966 23.778 79.4566 24.35C78.4339 24.9047 77.2466 25.182 75.8946 25.182ZM92.383 10.96C93.4924 10.96 94.4804 11.1767 95.347 11.61C96.231 12.0433 96.9244 12.7107 97.427 13.612C97.9297 14.496 98.181 15.64 98.181 17.044V25H94.931V17.46C94.931 16.2293 94.6364 15.3107 94.047 14.704C93.475 14.0973 92.669 13.794 91.629 13.794C90.8664 13.794 90.1904 13.95 89.601 14.262C89.0117 14.574 88.5524 15.042 88.223 15.666C87.911 16.2727 87.755 17.044 87.755 17.98V25H84.505V5.708H87.755V14.86L87.053 13.716C87.5384 12.832 88.2404 12.156 89.159 11.688C90.095 11.2027 91.1697 10.96 92.383 10.96ZM110.182 10.96C111.291 10.96 112.279 11.1767 113.146 11.61C114.03 12.0433 114.723 12.7107 115.226 13.612C115.729 14.496 115.98 15.64 115.98 17.044V25H112.73V17.46C112.73 16.2293 112.435 15.3107 111.846 14.704C111.274 14.0973 110.468 13.794 109.428 13.794C108.665 13.794 107.989 13.95 107.4 14.262C106.811 14.574 106.351 15.042 106.022 15.666C105.71 16.2727 105.554 17.044 105.554 17.98V25H102.304V11.116H105.398V14.86L104.852 13.716C105.337 12.832 106.039 12.156 106.958 11.688C107.894 11.2027 108.969 10.96 110.182 10.96ZM126.368 25.182C124.947 25.182 123.681 24.8787 122.572 24.272C121.463 23.648 120.587 22.7987 119.946 21.724C119.305 20.6493 118.984 19.4273 118.984 18.058C118.984 16.6713 119.305 15.4493 119.946 14.392C120.587 13.3173 121.463 12.4767 122.572 11.87C123.681 11.2633 124.947 10.96 126.368 10.96C127.807 10.96 129.081 11.2633 130.19 11.87C131.317 12.4767 132.192 13.3087 132.816 14.366C133.457 15.4233 133.778 16.654 133.778 18.058C133.778 19.4273 133.457 20.6493 132.816 21.724C132.192 22.7987 131.317 23.648 130.19 24.272C129.081 24.8787 127.807 25.182 126.368 25.182ZM126.368 22.4C127.165 22.4 127.876 22.2267 128.5 21.88C129.124 21.5333 129.609 21.0307 129.956 20.372C130.32 19.7133 130.502 18.942 130.502 18.058C130.502 17.1567 130.32 16.3853 129.956 15.744C129.609 15.0853 129.124 14.5827 128.5 14.236C127.876 13.8893 127.174 13.716 126.394 13.716C125.597 13.716 124.886 13.8893 124.262 14.236C123.655 14.5827 123.17 15.0853 122.806 15.744C122.442 16.3853 122.26 17.1567 122.26 18.058C122.26 18.942 122.442 19.7133 122.806 20.372C123.17 21.0307 123.655 21.5333 124.262 21.88C124.886 22.2267 125.588 22.4 126.368 22.4Z" fill="#06B453"/>
<path d="M15.8647 32.02C15.6452 32.02 15.4182 32.02 15.1988 32.02C14.2377 31.7022 13.8896 31.006 13.9425 30.0373C13.9652 29.6816 13.9425 29.3184 13.9425 28.9476C12.8982 28.9476 11.8841 28.9476 10.8322 28.9476C10.8322 29.5076 10.8474 30.0525 10.8322 30.5898C10.8171 31.1195 10.5901 31.5433 10.1209 31.8082C9.96951 31.899 9.78789 31.9519 9.62897 32.02C9.42464 32.02 9.22789 32.02 9.02356 32.02C8.00193 31.5963 7.75219 31.2179 7.75219 30.0903C7.75219 29.7119 7.75219 29.3335 7.75219 28.9249C7.22246 28.9249 6.73056 28.9324 6.23866 28.9249C5.25487 28.9097 4.44513 28.5314 3.80945 27.767C3.31755 27.1768 3.09809 26.4957 3.09809 25.7313C3.09809 25.2546 3.09809 24.7702 3.09809 24.2708C2.54565 24.2708 2.03105 24.2859 1.51645 24.2708C0.381306 24.2254 -0.330052 23.06 0.154277 22.0232C0.404009 21.4859 0.842932 21.2134 1.42564 21.1907C1.97808 21.168 2.53052 21.1832 3.08296 21.1832C3.08296 20.1237 3.08296 19.1096 3.08296 18.0502C2.50025 18.0502 1.93267 18.088 1.37267 18.0426C0.585631 17.9821 0.00292212 17.2934 0.0104898 16.4988C0.0180574 15.6664 0.540227 15.0761 1.3651 15.008C1.80402 14.9701 2.25051 14.9853 2.697 14.9777C2.82565 14.9777 2.95431 14.9777 3.08296 14.9777C3.08296 13.9258 3.08296 12.9117 3.08296 11.875C2.56079 11.875 2.05376 11.8901 1.55429 11.875C0.373739 11.8447 -0.345188 10.6339 0.192115 9.57441C0.472118 9.0144 0.964015 8.80251 1.55429 8.78737C2.06132 8.77981 2.57592 8.78737 3.10566 8.78737C3.10566 8.25764 3.09052 7.76574 3.10566 7.27384C3.1435 6.03275 3.7035 5.10193 4.79324 4.49652C5.27757 4.23165 5.79217 4.13327 6.33704 4.13327C6.80624 4.13327 7.27543 4.13327 7.76733 4.13327C7.76733 3.55813 7.74463 3.02083 7.7749 2.49109C7.8203 1.54513 8.55436 0.939723 9.49275 1.05324C10.2495 1.14405 10.8247 1.75703 10.8474 2.52136C10.8625 3.0511 10.8474 3.58083 10.8474 4.11057C11.9068 4.11057 12.9209 4.11057 13.9804 4.11057C13.9804 3.52786 13.9425 2.96028 13.9879 2.40028C14.0787 1.30297 15.229 0.697559 16.2053 1.21216C16.8182 1.53 17.0604 2.0673 17.0604 2.73326C17.0604 3.19488 17.0604 3.64894 17.0604 4.11057C18.1199 4.11057 19.1264 4.11057 20.1631 4.11057C20.1631 3.5657 20.148 3.04353 20.1631 2.52136C20.201 1.48459 21.2302 0.795938 22.2064 1.13648C22.8269 1.34838 23.2356 1.92352 23.2507 2.61974C23.2583 3.11921 23.2507 3.61867 23.2507 4.14084C23.7729 4.14084 24.2572 4.13327 24.7416 4.14084C26.5351 4.16354 27.8821 5.51815 27.9048 7.31168C27.9124 7.7279 27.9048 8.13656 27.9048 8.55278C27.9048 8.62845 27.92 8.70413 27.9275 8.79494C28.4421 8.79494 28.934 8.78737 29.4259 8.79494C30.0011 8.80251 30.4551 9.05224 30.7578 9.54414C30.8562 9.70306 30.9168 9.89225 30.9924 10.0587C30.9924 10.2631 30.9924 10.4598 30.9924 10.6641C30.8411 10.9366 30.7351 11.2317 30.5384 11.4663C30.2584 11.7993 29.8422 11.8901 29.4184 11.8825C28.9189 11.8825 28.4194 11.8825 27.92 11.8825C27.92 12.9344 27.92 13.9485 27.92 14.9853C28.3892 14.9853 28.8432 14.9853 29.2897 14.9853C29.7362 14.9853 30.1751 15.061 30.4778 15.4091C30.6897 15.6512 30.8259 15.9615 30.9924 16.2415C30.9924 16.461 30.9924 16.688 30.9924 16.9075C30.9622 16.968 30.9319 17.0285 30.9092 17.0891C30.7049 17.6718 30.2962 17.9972 29.6908 18.0653C29.4335 18.0956 29.1686 18.0956 28.9113 18.0956C28.5859 18.1031 28.2529 18.0956 27.92 18.0956C27.92 19.1475 27.92 20.1615 27.92 21.1983C28.0486 21.1983 28.1546 21.1983 28.2681 21.1983C28.6692 21.1983 29.0703 21.1907 29.4789 21.2059C30.3113 21.2362 30.7578 21.7356 31 22.4772C31 22.6816 31 22.8783 31 23.0827C30.72 24.0362 30.0389 24.354 29.1081 24.2935C28.7221 24.2708 28.3286 24.2935 27.9048 24.2935C27.9048 24.8156 27.9124 25.3 27.9048 25.7919C27.8821 27.4568 26.7091 28.7584 25.0594 28.9249C24.5826 28.9703 24.0907 28.94 23.6064 28.9476C23.4929 28.9476 23.3794 28.9476 23.2507 28.9476C23.2507 29.4925 23.2583 29.9844 23.2507 30.4762C23.2432 31.0514 22.9934 31.5054 22.5015 31.8082C22.3426 31.9065 22.161 31.9671 21.9869 32.0428C21.7826 32.0428 21.5859 32.0428 21.3815 32.0428C20.4204 31.7022 20.0799 30.9908 20.1556 30.0146C20.1858 29.6665 20.1631 29.3184 20.1631 28.9703C19.1112 28.9703 18.0972 28.9703 17.0301 28.9703C17.0301 29.5757 17.0604 30.1584 17.0226 30.7411C16.9847 31.3541 16.629 31.7552 16.0539 31.9595C15.9858 31.9595 15.9253 31.9898 15.8647 32.02ZM24.8021 25.8146C24.8021 25.6784 24.8021 25.5648 24.8021 25.4589C24.8021 19.4956 24.8021 13.5323 24.8097 7.56898C24.8097 7.29655 24.7491 7.2133 24.4616 7.2133C18.4907 7.22087 12.5122 7.22087 6.54137 7.2133C6.2538 7.2133 6.19326 7.29655 6.19326 7.56898C6.20083 13.5323 6.20082 19.4956 6.20082 25.4589C6.20082 25.5724 6.20839 25.6935 6.21596 25.8146C12.4214 25.8146 18.5815 25.8146 24.8021 25.8146Z" fill="#06B453"/>
<path d="M9.31934 22.6966C9.31934 18.5722 9.31934 14.4706 9.31934 10.3462C13.4361 10.3462 17.5454 10.3462 21.6697 10.3462C21.6697 14.4554 21.6697 18.5647 21.6697 22.6966C17.5605 22.6966 13.4588 22.6966 9.31934 22.6966Z" fill="#06B453"/>
</svg>
