<svg width="167" height="32" viewBox="0 0 167 32" fill="none" xmlns="http://www.w3.org/2000/svg">
<path d="M44.734 25L38.702 6.8H42.212L47.594 23.258H45.852L51.442 6.8H54.562L59.996 23.258H58.306L63.818 6.8H67.042L61.01 25H57.422L52.456 10.154H53.392L48.348 25H44.734ZM74.9685 25.182C73.4259 25.182 72.0739 24.8787 70.9125 24.272C69.7685 23.648 68.8759 22.7987 68.2345 21.724C67.6105 20.6493 67.2985 19.4273 67.2985 18.058C67.2985 16.6713 67.6019 15.4493 68.2085 14.392C68.8325 13.3173 69.6819 12.4767 70.7565 11.87C71.8485 11.2633 73.0879 10.96 74.4745 10.96C75.8265 10.96 77.0312 11.2547 78.0885 11.844C79.1459 12.4333 79.9779 13.2653 80.5845 14.34C81.1912 15.4147 81.4945 16.68 81.4945 18.136C81.4945 18.2747 81.4859 18.4307 81.4685 18.604C81.4685 18.7773 81.4599 18.942 81.4425 19.098H69.8725V16.94H79.7265L78.4525 17.616C78.4699 16.8187 78.3052 16.1167 77.9585 15.51C77.6119 14.9033 77.1352 14.4267 76.5285 14.08C75.9392 13.7333 75.2545 13.56 74.4745 13.56C73.6772 13.56 72.9752 13.7333 72.3685 14.08C71.7792 14.4267 71.3112 14.912 70.9645 15.536C70.6352 16.1427 70.4705 16.862 70.4705 17.694V18.214C70.4705 19.046 70.6612 19.7827 71.0425 20.424C71.4239 21.0653 71.9612 21.5593 72.6545 21.906C73.3479 22.2527 74.1452 22.426 75.0465 22.426C75.8265 22.426 76.5285 22.3047 77.1525 22.062C77.7765 21.8193 78.3312 21.438 78.8165 20.918L80.5585 22.92C79.9345 23.648 79.1459 24.2113 78.1925 24.61C77.2565 24.9913 76.1819 25.182 74.9685 25.182ZM92.3124 25.182C91.1337 25.182 90.085 24.922 89.1664 24.402C88.2477 23.882 87.5197 23.102 86.9824 22.062C86.4624 21.0047 86.2024 19.67 86.2024 18.058C86.2024 16.4287 86.471 15.094 87.0084 14.054C87.563 13.014 88.2997 12.2427 89.2184 11.74C90.1544 11.22 91.1857 10.96 92.3124 10.96C93.6817 10.96 94.8864 11.2547 95.9264 11.844C96.9837 12.4333 97.8157 13.2567 98.4224 14.314C99.0464 15.3713 99.3584 16.6193 99.3584 18.058C99.3584 19.4967 99.0464 20.7447 98.4224 21.802C97.8157 22.8593 96.9837 23.6913 95.9264 24.298C94.8864 24.8873 93.6817 25.182 92.3124 25.182ZM84.6164 25V5.708H87.8664V14.34L87.6064 18.032L87.7104 21.724V25H84.6164ZM91.9484 22.4C92.7284 22.4 93.4217 22.2267 94.0284 21.88C94.6524 21.5333 95.1464 21.0307 95.5104 20.372C95.8744 19.7133 96.0564 18.942 96.0564 18.058C96.0564 17.1567 95.8744 16.3853 95.5104 15.744C95.1464 15.0853 94.6524 14.5827 94.0284 14.236C93.4217 13.8893 92.7284 13.716 91.9484 13.716C91.1684 13.716 90.4664 13.8893 89.8424 14.236C89.2184 14.5827 88.7244 15.0853 88.3604 15.744C87.9964 16.3853 87.8144 17.1567 87.8144 18.058C87.8144 18.942 87.9964 19.7133 88.3604 20.372C88.7244 21.0307 89.2184 21.5333 89.8424 21.88C90.4664 22.2267 91.1684 22.4 91.9484 22.4ZM105.093 21.906L105.171 17.824L112.425 11.116H116.325L110.163 17.304L108.447 18.734L105.093 21.906ZM102.441 25V5.708H105.691V25H102.441ZM112.919 25L107.849 18.734L109.903 16.134L116.871 25H112.919ZM118.97 25V5.708H122.22V25H118.97ZM126.486 25V11.116H129.58V14.938L129.216 13.82C129.632 12.884 130.282 12.1733 131.166 11.688C132.067 11.2027 133.185 10.96 134.52 10.96V14.054C134.381 14.0193 134.251 14.002 134.13 14.002C134.008 13.9847 133.887 13.976 133.766 13.976C132.535 13.976 131.556 14.34 130.828 15.068C130.1 15.7787 129.736 16.8447 129.736 18.266V25H126.486ZM144.84 25V22.192L144.658 21.594V16.68C144.658 15.7267 144.372 14.99 143.8 14.47C143.228 13.9327 142.362 13.664 141.2 13.664C140.42 13.664 139.649 13.7853 138.886 14.028C138.141 14.2707 137.508 14.6087 136.988 15.042L135.714 12.676C136.46 12.104 137.344 11.6793 138.366 11.402C139.406 11.1073 140.481 10.96 141.59 10.96C143.601 10.96 145.152 11.4453 146.244 12.416C147.354 13.3693 147.908 14.8513 147.908 16.862V25H144.84ZM140.472 25.182C139.432 25.182 138.522 25.0087 137.742 24.662C136.962 24.298 136.356 23.804 135.922 23.18C135.506 22.5387 135.298 21.8193 135.298 21.022C135.298 20.242 135.48 19.54 135.844 18.916C136.226 18.292 136.841 17.798 137.69 17.434C138.54 17.07 139.666 16.888 141.07 16.888H145.1V19.046H141.304C140.195 19.046 139.45 19.228 139.068 19.592C138.687 19.9387 138.496 20.372 138.496 20.892C138.496 21.4813 138.73 21.9493 139.198 22.296C139.666 22.6427 140.316 22.816 141.148 22.816C141.946 22.816 142.656 22.634 143.28 22.27C143.922 21.906 144.381 21.3687 144.658 20.658L145.204 22.608C144.892 23.4227 144.329 24.0553 143.514 24.506C142.717 24.9567 141.703 25.182 140.472 25.182ZM154.731 21.906L154.809 17.824L162.063 11.116H165.963L159.801 17.304L158.085 18.734L154.731 21.906ZM152.079 25V5.708H155.329V25H152.079ZM162.557 25L157.487 18.734L159.541 16.134L166.509 25H162.557Z" fill="#06B453"/>
<path d="M14.7736 1C15.26 1 15.7463 1 16.2327 1C16.9865 1.10498 17.7404 1.16958 18.4862 1.30685C22.3933 2.04168 25.5871 3.95546 27.9379 7.16932C30.24 10.3266 31.2127 13.8797 30.9614 17.7718C30.7912 20.38 30.0211 22.7945 28.6025 24.9909C26.6571 28.0109 23.8929 29.9893 20.537 31.2006C20.4803 31.2167 20.4235 31.2167 20.3506 31.2248C20.3425 31.136 20.3344 31.0714 20.3344 30.9987C20.3344 27.9948 20.3344 24.9828 20.3425 21.9789C20.3425 21.8578 20.4073 21.7043 20.4965 21.6155C21.2828 20.8161 22.0853 20.0247 22.8716 19.2334C22.985 19.1123 23.0823 19.1042 23.2363 19.1526C23.5444 19.2495 23.8605 19.3384 24.1766 19.3545C25.4331 19.4272 26.6003 18.6278 27.0219 17.4488C27.4353 16.2618 27.0138 14.9375 25.9843 14.1946C24.9629 13.4598 23.5768 13.4759 22.5878 14.235C21.5665 15.0102 21.1774 16.3668 21.6475 17.5376C21.7205 17.7234 21.7043 17.8364 21.5584 17.9818C20.6829 18.8377 19.8318 19.7098 18.9482 20.5658C18.6321 20.8726 18.5024 21.2118 18.5024 21.6397C18.5105 24.8778 18.5105 28.1159 18.5105 31.354C18.5105 31.4832 18.5105 31.6124 18.5105 31.7416C17.9268 31.8304 17.3918 31.9112 16.8568 32C16.7109 32 16.5731 32 16.4272 32C16.4272 26.2183 16.4272 20.4366 16.4191 14.6549C16.4191 14.4368 16.4678 14.3238 16.6866 14.235C17.9512 13.6778 18.5915 12.3858 18.2997 11.0211C18.016 9.70487 16.8974 8.80047 15.5275 8.79239C14.1656 8.78432 13.0389 9.67257 12.7309 10.9888C12.4228 12.3373 13.047 13.6536 14.3115 14.2188C14.5466 14.3238 14.6034 14.4449 14.6034 14.6872C14.5953 20.4608 14.5953 26.2264 14.5953 32C14.4493 32 14.3115 32 14.1656 32C13.6225 31.9112 13.0794 31.8304 12.512 31.7416C12.512 31.5962 12.512 31.4751 12.512 31.354C12.512 28.1159 12.512 24.8778 12.5201 21.6397C12.5201 21.2037 12.3904 20.8645 12.0743 20.5658C11.1988 19.7179 10.3396 18.8377 9.46411 17.9818C9.3182 17.8364 9.29388 17.7314 9.37494 17.5376C9.86941 16.286 9.39926 14.8567 8.2563 14.1058C7.13766 13.379 5.64614 13.5324 4.68152 14.4853C3.72501 15.4301 3.55478 16.932 4.28432 18.0464C5.03819 19.193 6.47296 19.6614 7.74562 19.1688C7.92395 19.0961 8.02933 19.1203 8.16714 19.2576C8.94532 20.0409 9.73161 20.808 10.5017 21.5994C10.6071 21.7043 10.68 21.8981 10.68 22.0435C10.6881 24.999 10.6881 27.9544 10.6881 30.9099C10.6881 31.0148 10.68 31.1198 10.6638 31.2894C9.95047 30.9825 9.27767 30.7322 8.63729 30.4173C5.92986 29.1091 3.73311 27.2196 2.19296 24.6275C0.0853761 21.0826 -0.457731 17.2712 0.369089 13.2579C1.68227 6.90284 6.48917 2.30008 12.9173 1.23418C13.5252 1.13727 14.1494 1.07268 14.7736 1Z" fill="#06B453"/>
<path d="M7.51512 16.5255C7.50778 17.0591 7.1043 17.4465 6.56143 17.4392C6.04791 17.4319 5.62242 17.0006 5.63709 16.4816C5.65176 15.9772 6.07725 15.5605 6.5761 15.5605C7.12631 15.5679 7.52979 15.9772 7.51512 16.5255Z" fill="#06B453"/>
<path d="M24.2073 17.4392C23.5285 17.4465 23.0239 17.0591 23.0148 16.5255C23.0056 15.9772 23.501 15.5679 24.189 15.5605C24.8219 15.5605 25.3631 15.9918 25.3631 16.5035C25.354 17.0152 24.8311 17.4319 24.2073 17.4392Z" fill="#06B453"/>
<path d="M14.5605 11.5683C14.5605 10.9169 14.9715 10.394 15.4999 10.394C16.0136 10.394 16.4319 10.8986 16.4392 11.5316C16.4466 12.2196 16.0356 12.7425 15.4999 12.7425C14.9715 12.7425 14.5679 12.238 14.5605 11.5683Z" fill="#06B453"/>
</svg>
