<svg width="105" height="32" viewBox="0 0 105 32" fill="none" xmlns="http://www.w3.org/2000/svg">
<path d="M33.445 25V6.8H40.933C42.545 6.8 43.923 7.06 45.067 7.58C46.2283 8.1 47.121 8.84533 47.745 9.816C48.369 10.7867 48.681 11.9393 48.681 13.274C48.681 14.6087 48.369 15.7613 47.745 16.732C47.121 17.6853 46.2283 18.422 45.067 18.942C43.923 19.4447 42.545 19.696 40.933 19.696H35.317L36.825 18.162V25H33.445ZM45.353 25L40.751 18.396H44.365L48.993 25H45.353ZM36.825 18.526L35.317 16.914H40.777C42.2676 16.914 43.3856 16.5933 44.131 15.952C44.8936 15.3107 45.275 14.418 45.275 13.274C45.275 12.1127 44.8936 11.22 44.131 10.596C43.3856 9.972 42.2676 9.66 40.777 9.66H35.317L36.825 7.996V18.526ZM58.6766 25.182C57.1339 25.182 55.7819 24.8787 54.6206 24.272C53.4766 23.648 52.5839 22.7987 51.9426 21.724C51.3186 20.6493 51.0066 19.4273 51.0066 18.058C51.0066 16.6713 51.3099 15.4493 51.9166 14.392C52.5406 13.3173 53.3899 12.4767 54.4646 11.87C55.5566 11.2633 56.7959 10.96 58.1826 10.96C59.5346 10.96 60.7392 11.2547 61.7966 11.844C62.8539 12.4333 63.6859 13.2653 64.2926 14.34C64.8992 15.4147 65.2026 16.68 65.2026 18.136C65.2026 18.2747 65.1939 18.4307 65.1766 18.604C65.1766 18.7773 65.1679 18.942 65.1506 19.098H53.5806V16.94H63.4346L62.1606 17.616C62.1779 16.8187 62.0132 16.1167 61.6666 15.51C61.3199 14.9033 60.8432 14.4267 60.2366 14.08C59.6472 13.7333 58.9626 13.56 58.1826 13.56C57.3852 13.56 56.6832 13.7333 56.0766 14.08C55.4872 14.4267 55.0192 14.912 54.6726 15.536C54.3432 16.1427 54.1786 16.862 54.1786 17.694V18.214C54.1786 19.046 54.3692 19.7827 54.7506 20.424C55.1319 21.0653 55.6692 21.5593 56.3626 21.906C57.0559 22.2527 57.8532 22.426 58.7546 22.426C59.5346 22.426 60.2366 22.3047 60.8606 22.062C61.4846 21.8193 62.0392 21.438 62.5246 20.918L64.2666 22.92C63.6426 23.648 62.8539 24.2113 61.9006 24.61C60.9646 24.9913 59.8899 25.182 58.6766 25.182ZM73.5504 25.182C72.025 25.182 70.8464 24.792 70.0144 24.012C69.1824 23.2147 68.7664 22.0447 68.7664 20.502V8.048H72.0164V20.424C72.0164 21.0827 72.181 21.594 72.5104 21.958C72.857 22.322 73.3337 22.504 73.9404 22.504C74.6684 22.504 75.275 22.3133 75.7604 21.932L76.6704 24.246C76.289 24.558 75.821 24.792 75.2664 24.948C74.7117 25.104 74.1397 25.182 73.5504 25.182ZM66.4784 13.82V11.22H75.7344V13.82H66.4784ZM79.3439 25V11.116H82.4379V14.938L82.0739 13.82C82.4899 12.884 83.1399 12.1733 84.0239 11.688C84.9252 11.2027 86.0432 10.96 87.3779 10.96V14.054C87.2392 14.0193 87.1092 14.002 86.9879 14.002C86.8666 13.9847 86.7452 13.976 86.6239 13.976C85.3932 13.976 84.4139 14.34 83.6859 15.068C82.9579 15.7787 82.5939 16.8447 82.5939 18.266V25H79.3439ZM96.248 25.182C94.8266 25.182 93.5613 24.8787 92.452 24.272C91.3426 23.648 90.4673 22.7987 89.826 21.724C89.1846 20.6493 88.864 19.4273 88.864 18.058C88.864 16.6713 89.1846 15.4493 89.826 14.392C90.4673 13.3173 91.3426 12.4767 92.452 11.87C93.5613 11.2633 94.8266 10.96 96.248 10.96C97.6866 10.96 98.9606 11.2633 100.07 11.87C101.197 12.4767 102.072 13.3087 102.696 14.366C103.337 15.4233 103.658 16.654 103.658 18.058C103.658 19.4273 103.337 20.6493 102.696 21.724C102.072 22.7987 101.197 23.648 100.07 24.272C98.9606 24.8787 97.6866 25.182 96.248 25.182ZM96.248 22.4C97.0453 22.4 97.756 22.2267 98.38 21.88C99.004 21.5333 99.4893 21.0307 99.836 20.372C100.2 19.7133 100.382 18.942 100.382 18.058C100.382 17.1567 100.2 16.3853 99.836 15.744C99.4893 15.0853 99.004 14.5827 98.38 14.236C97.756 13.8893 97.054 13.716 96.274 13.716C95.4766 13.716 94.766 13.8893 94.142 14.236C93.5353 14.5827 93.05 15.0853 92.686 15.744C92.322 16.3853 92.14 17.1567 92.14 18.058C92.14 18.942 92.322 19.7133 92.686 20.372C93.05 21.0307 93.5353 21.5333 94.142 21.88C94.766 22.2267 95.468 22.4 96.248 22.4Z" fill="#06B453"/>
<path d="M7.62154 30.9995C7.15014 30.9145 6.671 30.8527 6.20732 30.729C2.83018 29.848 0.449961 27.1201 0.094473 23.6347C-0.0214471 22.5373 0.040375 21.4168 0.024919 20.304C0.017191 19.8403 0.024919 19.3766 0.024919 18.8975C5.88274 18.8975 11.7174 18.8975 17.5443 18.8975C17.5598 18.9129 17.5675 18.9206 17.5675 18.9284C17.5366 20.814 17.753 22.7151 17.3588 24.5853C16.6788 27.8388 13.9431 30.4045 10.6509 30.8759C10.4114 30.9068 10.1795 30.9531 9.93995 30.9918C9.16714 30.9995 8.39434 30.9995 7.62154 30.9995Z" fill="#06B453"/>
<path d="M20.3731 1.32422C21.0377 1.71835 21.1382 2.02747 20.8522 2.7539C20.4813 3.69672 20.1103 4.6318 19.7317 5.57462C19.5153 6.11558 18.9434 6.32424 18.4797 6.05376C18.1165 5.8451 17.9465 5.4046 18.1011 5.00275C18.5029 3.95174 18.9125 2.90073 19.3607 1.86518C19.4535 1.64879 19.7317 1.50196 19.9171 1.32422C20.064 1.32422 20.2185 1.32422 20.3731 1.32422Z" fill="#06B453"/>
<path d="M7.95404 5.08792C7.95404 5.68298 7.95404 6.2394 7.95404 6.79581C7.95404 7.44497 7.96177 8.09412 7.94631 8.73554C7.94631 8.83601 7.87676 8.97511 7.79175 9.02148C6.77165 9.56244 6.24615 10.4434 6.1225 11.5485C5.99113 12.7386 6.32343 13.7819 7.25852 14.5934C7.34352 14.6706 7.43626 14.7634 7.54445 14.7943C7.93858 14.9179 7.97722 15.1884 7.96177 15.5516C7.93086 16.0694 7.95404 16.5872 7.95404 17.1281C5.30333 17.1281 2.68354 17.1281 0.0173827 17.1281C0.0173827 17.02 0.0173827 16.9118 0.0173827 16.7958C0.0173827 14.5084 0.0637498 12.2131 0.00192577 9.92565C-0.0676262 7.41405 1.75618 5.61343 3.95093 5.2193C4.66191 5.08792 5.41153 5.11111 6.14569 5.08792C6.73302 5.07247 7.32034 5.08792 7.95404 5.08792Z" fill="#06B453"/>
<path d="M9.69281 17.1283C9.69281 16.4559 9.68508 15.7991 9.70054 15.1422C9.70054 15.0649 9.801 14.9644 9.87828 14.9258C11.988 13.7898 12.1349 10.4513 10.1024 9.19935C9.75463 8.98296 9.67735 8.76658 9.68508 8.40336C9.70826 7.31371 9.69281 6.22407 9.69281 5.14214C9.72372 5.11896 9.73918 5.09578 9.75463 5.09578C11.0684 5.11896 12.3822 4.9644 13.6882 5.20397C15.6666 5.56719 17.1426 7.00459 17.5058 8.89023C17.5599 9.15298 17.5754 9.43119 17.5831 9.69394C17.5908 12.0896 17.5831 14.4853 17.5831 16.881C17.5831 16.9583 17.5831 17.0278 17.5831 17.1206C14.9479 17.1283 12.3435 17.1283 9.69281 17.1283Z" fill="#06B453"/>
<path d="M24.075 6.94219C24.0596 7.24358 23.9127 7.52952 23.5804 7.67635C22.599 8.14003 21.6098 8.59598 20.6129 9.04421C20.1569 9.24513 19.6701 9.05193 19.4691 8.61917C19.2682 8.1864 19.4382 7.68408 19.8942 7.47542C20.8679 7.01174 21.8494 6.55579 22.8308 6.11529C23.4336 5.85254 24.0673 6.2544 24.075 6.94219Z" fill="#06B453"/>
<path d="M25.5348 12.1822C25.5348 12.8622 24.9939 13.3027 24.4452 13.1173C23.3787 12.754 22.32 12.3599 21.269 11.9581C20.8362 11.788 20.6507 11.2934 20.813 10.8684C20.9753 10.4279 21.439 10.1961 21.8949 10.3506C22.9305 10.7138 23.9583 11.0925 24.9862 11.4789C25.3494 11.618 25.5271 11.904 25.5348 12.1822Z" fill="#06B453"/>
<path d="M7.83789 11.9809C7.83789 11.5713 7.93063 11.2004 8.18565 10.8758C8.54114 10.4353 9.05119 10.4276 9.42213 10.8526C9.92445 11.4322 9.91673 12.5605 9.41441 13.1324C9.05119 13.542 8.54887 13.542 8.19338 13.1092C7.93063 12.7846 7.83789 12.3982 7.83789 11.9809Z" fill="#06B453"/>
</svg>
