<svg width="161" height="32" viewBox="0 0 161 32" fill="none" xmlns="http://www.w3.org/2000/svg">
<path d="M3.08827 19.6642C4.01156 18.6454 4.90302 17.4037 5.66713 16.0029C6.04918 15.3024 6.43124 14.5702 6.78145 13.806C7.13167 13.0419 7.48189 12.246 7.86394 11.3864C8.0868 10.9725 8.27783 10.5268 8.62805 10.0173C8.72356 9.88999 8.81907 9.76264 8.97826 9.63529C9.13745 9.50794 9.32848 9.34875 9.64686 9.25324C9.80604 9.18956 9.96523 9.15772 10.1563 9.15772C10.2518 9.15772 10.3473 9.15772 10.411 9.18956H10.4746C10.4428 9.18956 10.5702 9.2214 10.5702 9.2214H10.602C10.8249 9.28508 10.9522 9.38059 11.0796 9.44427C11.2069 9.53978 11.3024 9.60345 11.3979 9.69897C11.7163 10.0492 11.8755 10.3676 12.0029 10.6541C12.1302 10.9406 12.1939 11.1953 12.2894 11.45C12.4486 11.9595 12.5441 12.4689 12.6078 12.9464C12.958 14.8885 13.1172 16.7988 13.34 18.6772C13.4674 19.6005 13.5947 20.5238 13.7858 21.3516C13.8176 21.5108 13.8495 21.67 13.9131 21.8292C14.0405 21.7018 14.1678 21.5745 14.2952 21.4471C14.8364 20.9059 15.3458 20.2691 15.7916 19.6005C16.7149 18.2633 17.4471 16.8625 18.0202 15.4935C18.5933 14.1244 19.0072 12.7554 19.2937 11.4819C19.7076 9.60346 19.835 7.94788 19.8031 6.6107C17.7337 4.98697 15.0911 4 12.2576 4C5.4761 4 0 9.50794 0 16.2576C0 18.1042 0.413889 19.8552 1.14616 21.4153C1.81475 20.9696 2.45151 20.3646 3.08827 19.6642Z" fill="#06B453"/>
<path d="M22.2868 17.4989C21.459 19.0908 20.4402 20.6827 19.1667 22.179C18.5299 22.9431 17.8295 23.6754 17.0017 24.3758C16.5878 24.7261 16.1421 25.0763 15.6008 25.3946C15.3143 25.5538 14.9959 25.713 14.582 25.8722C14.4547 25.9041 14.3591 25.9359 14.2318 25.9677L14.0408 25.9996C14.0089 25.9996 13.9453 25.9996 13.9134 26.0314H13.7542H13.595H13.5314H13.2767C13.0538 25.9996 12.8309 25.9677 12.6399 25.8722C12.226 25.713 11.9076 25.4902 11.6848 25.2673C11.4619 25.0444 11.3027 24.8216 11.2072 24.6305C10.9843 24.2485 10.857 23.8983 10.7615 23.6117C10.5704 23.0068 10.5068 22.4656 10.4431 21.9243C10.3157 20.8737 10.2839 19.8867 10.2521 18.8997C10.2202 16.9576 10.2521 15.0474 10.1247 13.2644C10.0929 12.8187 10.061 12.373 9.99737 11.9909C9.99737 11.9273 9.96553 11.8317 9.96553 11.7681C9.87002 11.9273 9.74266 12.1183 9.64715 12.2775C9.20142 13.0097 8.78753 13.8057 8.37364 14.5698C7.92791 15.3339 7.48218 16.0662 7.00462 16.7666C6.04948 18.1675 4.99883 19.4091 3.91634 20.3961C3.15224 21.0965 2.38813 21.7015 1.62402 22.2109C3.72532 25.9677 7.73688 28.5148 12.3534 28.5148C19.1348 28.5148 24.6109 23.0068 24.6109 16.2572C24.6109 15.1429 24.4517 14.0604 24.197 13.0416C23.6876 14.5061 23.0509 16.0025 22.2868 17.4989Z" fill="#06B453"/>
<path d="M14.1676 20.6832C14.0084 19.9191 13.8811 19.0913 13.7855 18.359C13.69 17.7223 13.6264 17.0855 13.5627 16.4488C13.4353 15.2389 13.2761 13.9654 13.0533 12.7237C12.9578 12.278 12.8623 11.7686 12.7031 11.1955C12.6394 10.9727 12.5439 10.6861 12.4165 10.3677V10.3359C12.2892 10.0494 12.13 9.69914 11.7479 9.31708C11.6524 9.22157 11.5251 9.12606 11.3659 8.99871C11.2067 8.90319 11.0475 8.80768 10.7928 8.71217L10.7291 8.68033C10.6654 8.64849 10.6018 8.6485 10.5699 8.6485H10.5381C10.4107 8.61666 10.3152 8.61666 10.2197 8.61666C9.99685 8.61666 9.77398 8.64849 9.58295 8.71217C9.2009 8.83952 8.91436 9.03055 8.75517 9.18973C8.56415 9.34892 8.43679 9.50811 8.34128 9.63546C7.99107 10.113 7.80003 10.5269 7.57717 10.909L7.5135 11.0363C7.32247 11.4821 7.13144 11.896 6.94041 12.3098C6.78123 12.6919 6.5902 13.074 6.43101 13.4242C6.04896 14.2201 5.69874 14.9205 5.34852 15.5573C4.58442 16.8945 3.75663 18.0725 2.83334 19.0595C2.38761 19.537 1.91004 20.0146 1.43248 20.4285C0.859395 19.0276 0.541016 17.5631 0.541016 16.0349C0.541016 9.63546 5.85793 4.41406 12.3847 4.41406C14.9954 4.41406 17.4469 5.21001 19.5164 6.73823C19.5164 8.23461 19.3253 9.73098 19.007 11.2274C18.7204 12.5327 18.3065 13.8381 17.7653 15.0797C17.1604 16.5124 16.4281 17.8496 15.5685 19.0276C15.0272 19.6962 14.5815 20.2375 14.1676 20.6832Z" fill="#06B453"/>
<path d="M12.3213 28.1331C8.15055 28.1331 4.29817 25.9363 2.16504 22.3705C2.86547 21.8929 3.53407 21.3198 4.17082 20.7467C5.28515 19.6961 6.3358 18.4544 7.32277 17.0217C7.7685 16.3531 8.21423 15.6209 8.72363 14.7931C8.9465 14.411 9.13752 14.029 9.36039 13.6469C9.48774 13.4559 9.58325 13.233 9.71061 13.042C9.71061 13.1375 9.7106 13.2012 9.74244 13.2967C9.80612 14.4429 9.83795 15.6527 9.83795 16.8944C9.83795 17.563 9.83796 18.2316 9.86979 18.9001C9.90163 19.8553 9.93347 20.8741 10.0608 21.9566C10.1245 22.466 10.22 23.0391 10.411 23.7077C10.5065 24.026 10.6339 24.3763 10.8886 24.822C11.0478 25.1085 11.2388 25.3314 11.4298 25.5543C11.6527 25.7771 12.0348 26.0637 12.5442 26.2547C12.7989 26.3502 13.0536 26.4139 13.2764 26.4139H13.563H13.6585H13.8495L14.0405 26.382C14.1042 26.382 14.1997 26.3502 14.2316 26.3502L14.4226 26.3184C14.5818 26.2865 14.6773 26.2547 14.8047 26.2228C15.2822 26.0637 15.6006 25.9045 15.8871 25.7134C16.5239 25.3314 16.9696 24.9812 17.3517 24.6628C18.1158 24.026 18.8162 23.2938 19.5485 22.4023C20.7265 20.9696 21.809 19.3777 22.7323 17.6266C23.2417 16.6397 23.7192 15.6209 24.1013 14.5702C24.165 15.1114 24.2286 15.6527 24.2286 16.2258C24.165 22.8162 18.8481 28.1331 12.3213 28.1331Z" fill="#06B453"/>
<path d="M32.444 25V6.8H35.226L46.64 20.814H45.262V6.8H48.616V25H45.834L34.42 10.986H35.798V25H32.444ZM59.7068 25.182C58.1642 25.182 56.8122 24.8787 55.6508 24.272C54.5068 23.648 53.6142 22.7987 52.9728 21.724C52.3488 20.6493 52.0368 19.4273 52.0368 18.058C52.0368 16.6713 52.3402 15.4493 52.9468 14.392C53.5708 13.3173 54.4202 12.4767 55.4948 11.87C56.5868 11.2633 57.8262 10.96 59.2128 10.96C60.5648 10.96 61.7695 11.2547 62.8268 11.844C63.8842 12.4333 64.7162 13.2653 65.3228 14.34C65.9295 15.4147 66.2328 16.68 66.2328 18.136C66.2328 18.2747 66.2242 18.4307 66.2068 18.604C66.2068 18.7773 66.1982 18.942 66.1808 19.098H54.6108V16.94H64.4648L63.1908 17.616C63.2082 16.8187 63.0435 16.1167 62.6968 15.51C62.3502 14.9033 61.8735 14.4267 61.2668 14.08C60.6775 13.7333 59.9928 13.56 59.2128 13.56C58.4155 13.56 57.7135 13.7333 57.1068 14.08C56.5175 14.4267 56.0495 14.912 55.7028 15.536C55.3735 16.1427 55.2088 16.862 55.2088 17.694V18.214C55.2088 19.046 55.3995 19.7827 55.7808 20.424C56.1622 21.0653 56.6995 21.5593 57.3928 21.906C58.0862 22.2527 58.8835 22.426 59.7848 22.426C60.5648 22.426 61.2668 22.3047 61.8908 22.062C62.5148 21.8193 63.0695 21.438 63.5548 20.918L65.2968 22.92C64.6728 23.648 63.8842 24.2113 62.9308 24.61C61.9948 24.9913 60.9202 25.182 59.7068 25.182ZM67.0758 25L73.1858 17.044L73.1338 18.786L67.3098 11.116H70.9238L75.0058 16.576H73.6278L77.7358 11.116H81.2458L75.3698 18.786L75.3958 17.044L81.4798 25H77.8138L73.5238 19.202L74.8758 19.384L70.6638 25H67.0758ZM89.1041 25.182C87.5788 25.182 86.4001 24.792 85.5681 24.012C84.7361 23.2147 84.3201 22.0447 84.3201 20.502V8.048H87.5701V20.424C87.5701 21.0827 87.7348 21.594 88.0641 21.958C88.4108 22.322 88.8874 22.504 89.4941 22.504C90.2221 22.504 90.8288 22.3133 91.3141 21.932L92.2241 24.246C91.8428 24.558 91.3748 24.792 90.8201 24.948C90.2654 25.104 89.6934 25.182 89.1041 25.182ZM82.0321 13.82V11.22H91.2881V13.82H82.0321ZM112.422 10.96C113.531 10.96 114.51 11.1767 115.36 11.61C116.226 12.0433 116.902 12.7107 117.388 13.612C117.873 14.496 118.116 15.64 118.116 17.044V25H114.866V17.46C114.866 16.2293 114.597 15.3107 114.06 14.704C113.522 14.0973 112.751 13.794 111.746 13.794C111.035 13.794 110.402 13.95 109.848 14.262C109.31 14.574 108.886 15.0333 108.574 15.64C108.279 16.2467 108.132 17.018 108.132 17.954V25H104.882V17.46C104.882 16.2293 104.613 15.3107 104.076 14.704C103.538 14.0973 102.767 13.794 101.762 13.794C101.051 13.794 100.418 13.95 99.8636 14.262C99.3263 14.574 98.9016 15.0333 98.5896 15.64C98.295 16.2467 98.1476 17.018 98.1476 17.954V25H94.8976V11.116H97.9916V14.808L97.4456 13.716C97.9136 12.8147 98.5896 12.13 99.4736 11.662C100.375 11.194 101.398 10.96 102.542 10.96C103.842 10.96 104.968 11.2807 105.922 11.922C106.892 12.5633 107.534 13.534 107.846 14.834L106.572 14.392C107.022 13.352 107.768 12.52 108.808 11.896C109.848 11.272 111.052 10.96 112.422 10.96ZM128.534 25.182C127.113 25.182 125.847 24.8787 124.738 24.272C123.629 23.648 122.753 22.7987 122.112 21.724C121.471 20.6493 121.15 19.4273 121.15 18.058C121.15 16.6713 121.471 15.4493 122.112 14.392C122.753 13.3173 123.629 12.4767 124.738 11.87C125.847 11.2633 127.113 10.96 128.534 10.96C129.973 10.96 131.247 11.2633 132.356 11.87C133.483 12.4767 134.358 13.3087 134.982 14.366C135.623 15.4233 135.944 16.654 135.944 18.058C135.944 19.4273 135.623 20.6493 134.982 21.724C134.358 22.7987 133.483 23.648 132.356 24.272C131.247 24.8787 129.973 25.182 128.534 25.182ZM128.534 22.4C129.331 22.4 130.042 22.2267 130.666 21.88C131.29 21.5333 131.775 21.0307 132.122 20.372C132.486 19.7133 132.668 18.942 132.668 18.058C132.668 17.1567 132.486 16.3853 132.122 15.744C131.775 15.0853 131.29 14.5827 130.666 14.236C130.042 13.8893 129.34 13.716 128.56 13.716C127.763 13.716 127.052 13.8893 126.428 14.236C125.821 14.5827 125.336 15.0853 124.972 15.744C124.608 16.3853 124.426 17.1567 124.426 18.058C124.426 18.942 124.608 19.7133 124.972 20.372C125.336 21.0307 125.821 21.5333 126.428 21.88C127.052 22.2267 127.754 22.4 128.534 22.4ZM139.052 25V5.708H142.302V25H139.052ZM155.122 25V22.192L154.94 21.594V16.68C154.94 15.7267 154.654 14.99 154.082 14.47C153.51 13.9327 152.643 13.664 151.482 13.664C150.702 13.664 149.93 13.7853 149.168 14.028C148.422 14.2707 147.79 14.6087 147.27 15.042L145.996 12.676C146.741 12.104 147.625 11.6793 148.648 11.402C149.688 11.1073 150.762 10.96 151.872 10.96C153.882 10.96 155.434 11.4453 156.526 12.416C157.635 13.3693 158.19 14.8513 158.19 16.862V25H155.122ZM150.754 25.182C149.714 25.182 148.804 25.0087 148.024 24.662C147.244 24.298 146.637 23.804 146.204 23.18C145.788 22.5387 145.58 21.8193 145.58 21.022C145.58 20.242 145.762 19.54 146.126 18.916C146.507 18.292 147.122 17.798 147.972 17.434C148.821 17.07 149.948 16.888 151.352 16.888H155.382V19.046H151.586C150.476 19.046 149.731 19.228 149.35 19.592C148.968 19.9387 148.778 20.372 148.778 20.892C148.778 21.4813 149.012 21.9493 149.48 22.296C149.948 22.6427 150.598 22.816 151.43 22.816C152.227 22.816 152.938 22.634 153.562 22.27C154.203 21.906 154.662 21.3687 154.94 20.658L155.486 22.608C155.174 23.4227 154.61 24.0553 153.796 24.506C152.998 24.9567 151.984 25.182 150.754 25.182Z" fill="#06B453"/>
</svg>
