<svg width="149" height="32" viewBox="0 0 149 32" fill="none" xmlns="http://www.w3.org/2000/svg">
<path d="M35.444 25V6.8H38.226L46.182 20.086H44.726L52.552 6.8H55.334L55.36 25H52.162L52.136 11.818H52.812L46.156 22.92H44.648L37.888 11.818H38.668V25H35.444ZM59.964 25V11.116H63.214V25H59.964ZM61.602 8.828C60.9954 8.828 60.4927 8.63733 60.094 8.256C59.7127 7.87467 59.522 7.41533 59.522 6.878C59.522 6.32333 59.7127 5.864 60.094 5.5C60.4927 5.11867 60.9954 4.928 61.602 4.928C62.2087 4.928 62.7027 5.11 63.084 5.474C63.4827 5.82067 63.682 6.26267 63.682 6.8C63.682 7.372 63.4914 7.85733 63.11 8.256C62.7287 8.63733 62.226 8.828 61.602 8.828ZM75.3577 10.96C76.467 10.96 77.455 11.1767 78.3217 11.61C79.2057 12.0433 79.899 12.7107 80.4017 13.612C80.9043 14.496 81.1557 15.64 81.1557 17.044V25H77.9057V17.46C77.9057 16.2293 77.611 15.3107 77.0217 14.704C76.4497 14.0973 75.6437 13.794 74.6037 13.794C73.841 13.794 73.165 13.95 72.5757 14.262C71.9863 14.574 71.527 15.042 71.1977 15.666C70.8857 16.2727 70.7297 17.044 70.7297 17.98V25H67.4797V11.116H70.5737V14.86L70.0277 13.716C70.513 12.832 71.215 12.156 72.1337 11.688C73.0697 11.2027 74.1443 10.96 75.3577 10.96ZM85.2785 25V11.116H88.5285V25H85.2785ZM86.9165 8.828C86.3098 8.828 85.8072 8.63733 85.4085 8.256C85.0272 7.87467 84.8365 7.41533 84.8365 6.878C84.8365 6.32333 85.0272 5.864 85.4085 5.5C85.8072 5.11867 86.3098 4.928 86.9165 4.928C87.5232 4.928 88.0172 5.11 88.3985 5.474C88.7972 5.82067 88.9965 6.26267 88.9965 6.8C88.9965 7.372 88.8058 7.85733 88.4245 8.256C88.0432 8.63733 87.5405 8.828 86.9165 8.828ZM99.0341 25.182C97.6128 25.182 96.3474 24.8787 95.2381 24.272C94.1288 23.648 93.2534 22.7987 92.6121 21.724C91.9708 20.6493 91.6501 19.4273 91.6501 18.058C91.6501 16.6713 91.9708 15.4493 92.6121 14.392C93.2534 13.3173 94.1288 12.4767 95.2381 11.87C96.3474 11.2633 97.6128 10.96 99.0341 10.96C100.473 10.96 101.747 11.2633 102.856 11.87C103.983 12.4767 104.858 13.3087 105.482 14.366C106.123 15.4233 106.444 16.654 106.444 18.058C106.444 19.4273 106.123 20.6493 105.482 21.724C104.858 22.7987 103.983 23.648 102.856 24.272C101.747 24.8787 100.473 25.182 99.0341 25.182ZM99.0341 22.4C99.8314 22.4 100.542 22.2267 101.166 21.88C101.79 21.5333 102.275 21.0307 102.622 20.372C102.986 19.7133 103.168 18.942 103.168 18.058C103.168 17.1567 102.986 16.3853 102.622 15.744C102.275 15.0853 101.79 14.5827 101.166 14.236C100.542 13.8893 99.8401 13.716 99.0601 13.716C98.2628 13.716 97.5521 13.8893 96.9281 14.236C96.3214 14.5827 95.8361 15.0853 95.4721 15.744C95.1081 16.3853 94.9261 17.1567 94.9261 18.058C94.9261 18.942 95.1081 19.7133 95.4721 20.372C95.8361 21.0307 96.3214 21.5333 96.9281 21.88C97.5521 22.2267 98.2541 22.4 99.0341 22.4ZM117.248 25.182C116.121 25.182 115.09 24.922 114.154 24.402C113.235 23.882 112.499 23.102 111.944 22.062C111.407 21.0047 111.138 19.67 111.138 18.058C111.138 16.4287 111.398 15.094 111.918 14.054C112.455 13.014 113.183 12.2427 114.102 11.74C115.021 11.22 116.069 10.96 117.248 10.96C118.617 10.96 119.822 11.2547 120.862 11.844C121.919 12.4333 122.751 13.2567 123.358 14.314C123.982 15.3713 124.294 16.6193 124.294 18.058C124.294 19.4967 123.982 20.7533 123.358 21.828C122.751 22.8853 121.919 23.7087 120.862 24.298C119.822 24.8873 118.617 25.182 117.248 25.182ZM109.552 30.044V11.116H112.646V14.392L112.542 18.084L112.802 21.776V30.044H109.552ZM116.884 22.4C117.664 22.4 118.357 22.2267 118.964 21.88C119.588 21.5333 120.082 21.0307 120.446 20.372C120.81 19.7133 120.992 18.942 120.992 18.058C120.992 17.1567 120.81 16.3853 120.446 15.744C120.082 15.0853 119.588 14.5827 118.964 14.236C118.357 13.8893 117.664 13.716 116.884 13.716C116.104 13.716 115.402 13.8893 114.778 14.236C114.154 14.5827 113.66 15.0853 113.296 15.744C112.932 16.3853 112.75 17.1567 112.75 18.058C112.75 18.942 112.932 19.7133 113.296 20.372C113.66 21.0307 114.154 21.5333 114.778 21.88C115.402 22.2267 116.104 22.4 116.884 22.4ZM135.752 25V22.192L135.57 21.594V16.68C135.57 15.7267 135.284 14.99 134.712 14.47C134.14 13.9327 133.274 13.664 132.112 13.664C131.332 13.664 130.561 13.7853 129.798 14.028C129.053 14.2707 128.42 14.6087 127.9 15.042L126.626 12.676C127.372 12.104 128.256 11.6793 129.278 11.402C130.318 11.1073 131.393 10.96 132.502 10.96C134.513 10.96 136.064 11.4453 137.156 12.416C138.266 13.3693 138.82 14.8513 138.82 16.862V25H135.752ZM131.384 25.182C130.344 25.182 129.434 25.0087 128.654 24.662C127.874 24.298 127.268 23.804 126.834 23.18C126.418 22.5387 126.21 21.8193 126.21 21.022C126.21 20.242 126.392 19.54 126.756 18.916C127.138 18.292 127.753 17.798 128.602 17.434C129.452 17.07 130.578 16.888 131.982 16.888H136.012V19.046H132.216C131.107 19.046 130.362 19.228 129.98 19.592C129.599 19.9387 129.408 20.372 129.408 20.892C129.408 21.4813 129.642 21.9493 130.11 22.296C130.578 22.6427 131.228 22.816 132.06 22.816C132.858 22.816 133.568 22.634 134.192 22.27C134.834 21.906 135.293 21.3687 135.57 20.658L136.116 22.608C135.804 23.4227 135.241 24.0553 134.426 24.506C133.629 24.9567 132.615 25.182 131.384 25.182ZM142.991 25V5.708H146.241V25H142.991Z" fill="#06B453"/>
<path d="M12.7395 31.2311C8.76271 28.8919 4.79365 26.5527 0.786133 24.19C0.878436 24.1272 0.939974 24.0801 1.0092 24.0409C2.4476 23.1931 3.886 22.3454 5.32439 21.4898C5.50131 21.3877 5.62438 21.3956 5.79361 21.4976C7.97813 22.7928 10.1703 24.0723 12.3549 25.3753C12.7856 25.6343 13.1625 25.6343 13.5933 25.3753C15.7778 24.0801 17.97 22.7928 20.1545 21.5055C20.293 21.427 20.4007 21.3642 20.5699 21.4662C22.0544 22.3532 23.5467 23.2245 25.0312 24.1037C25.062 24.1194 25.0928 24.1508 25.1543 24.1979C21.1545 26.5527 17.1777 28.8919 13.201 31.239C13.0471 31.2311 12.8933 31.2311 12.7395 31.2311Z" fill="#06B453"/>
<path d="M12.1764 1.76123C12.1764 3.517 12.1687 5.2805 12.1841 7.03626C12.1841 7.25283 12.115 7.36112 11.9384 7.46167C9.74266 8.73015 7.55459 10.0141 5.35884 11.2748C4.95962 11.5069 4.77536 11.8163 4.77536 12.2804C4.78304 14.8251 4.77536 17.362 4.78304 19.9067C4.78304 20.1388 4.72162 20.2625 4.51433 20.3863C3.11704 21.1907 1.71974 22.0028 0.330129 22.8149C0.237999 22.8691 0.145869 22.9155 0.00767555 22.9851C0.00767555 22.8382 0.00767555 22.7376 0.00767555 22.6371C0.00767555 18.2747 0.0153549 13.9201 0 9.55776C0 9.03954 0.199612 8.72241 0.637226 8.46717C4.39917 6.29374 8.14575 4.10483 11.9 1.92366C11.9768 1.87725 12.0536 1.81537 12.1227 1.76123C12.138 1.76123 12.1534 1.76123 12.1764 1.76123Z" fill="#06B453"/>
<path d="M14.2185 1.76123C14.8246 2.12463 15.4307 2.49575 16.0369 2.85142C19.2594 4.73025 22.4895 6.60909 25.7197 8.48019C26.157 8.72761 26.3335 9.06008 26.3335 9.56265C26.3258 13.9234 26.3258 18.2764 26.3258 22.6372C26.3258 22.7377 26.3258 22.8382 26.3258 22.9851C26.2031 22.9233 26.1263 22.8846 26.0496 22.8459C24.6302 22.0186 23.2107 21.1913 21.7913 20.3718C21.6072 20.2635 21.5458 20.1475 21.5458 19.9388C21.5535 17.4182 21.5381 14.8976 21.5611 12.3693C21.5611 11.8358 21.3617 11.4879 20.9013 11.225C18.73 9.98017 16.5663 8.71215 14.4026 7.45959C14.2261 7.35908 14.1494 7.25083 14.1494 7.03434C14.1571 5.27921 14.1571 3.51636 14.1571 1.76123C14.1801 1.76123 14.2031 1.76123 14.2185 1.76123Z" fill="#06B453"/>
<path d="M12.1823 23.3781C11.6471 23.0621 11.1639 22.7693 10.6733 22.4764C9.41709 21.7289 8.1683 20.9737 6.91207 20.2261C6.77827 20.1491 6.68164 20.072 6.68164 19.8793C6.68907 17.8294 6.68907 15.7794 6.68907 13.7218C6.68907 13.6755 6.69651 13.6293 6.70394 13.5522C6.78571 13.5908 6.84517 13.6062 6.90464 13.6447C8.59943 14.6543 10.2942 15.6716 11.989 16.6888C12.0782 16.7428 12.1748 16.8661 12.1748 16.9585C12.1897 19.0779 12.1823 21.1972 12.1823 23.3781Z" fill="#06B453"/>
<path d="M19.6296 13.5522C19.637 13.6757 19.6445 13.7684 19.6445 13.861C19.6445 15.8447 19.6445 17.8361 19.6519 19.8198C19.6519 20.0282 19.5924 20.144 19.414 20.2521C17.7409 21.2478 16.0678 22.2512 14.3948 23.2546C14.3279 23.2932 14.2684 23.3241 14.1717 23.3781C14.1643 23.2932 14.1494 23.2237 14.1494 23.1543C14.1494 21.1165 14.1494 19.0865 14.1494 17.0488C14.1494 16.9099 14.1643 16.8018 14.3056 16.7169C16.0455 15.6826 17.7781 14.6406 19.5181 13.5986C19.5329 13.5908 19.5627 13.5831 19.6296 13.5522Z" fill="#06B453"/>
<path d="M7.46777 11.9646C7.97074 11.6791 8.45823 11.4086 8.93799 11.138C10.2844 10.3866 11.6308 9.62763 12.9772 8.8837C13.0701 8.8311 13.2403 8.81607 13.3331 8.86867C15.1438 9.8681 16.9468 10.8826 18.7575 11.897C18.7884 11.912 18.8194 11.9421 18.8658 11.9797C18.7729 12.0323 18.6955 12.0849 18.6104 12.13C16.8771 13.0993 15.1516 14.0687 13.4183 15.0456C13.2403 15.1508 13.1087 15.1508 12.923 15.0456C11.1897 14.0612 9.44869 13.0918 7.70765 12.1149C7.63801 12.0698 7.56837 12.0248 7.46777 11.9646Z" fill="#06B453"/>
</svg>
