<svg width="158" height="32" viewBox="0 0 158 32" fill="none" xmlns="http://www.w3.org/2000/svg">
<path d="M42.086 25.26C40.6647 25.26 39.304 25.0607 38.004 24.662C36.704 24.246 35.6727 23.7173 34.91 23.076L36.08 20.45C36.808 21.022 37.7093 21.4987 38.784 21.88C39.8587 22.2613 40.9593 22.452 42.086 22.452C43.0393 22.452 43.8107 22.348 44.4 22.14C44.9893 21.932 45.4227 21.6547 45.7 21.308C45.9773 20.944 46.116 20.5367 46.116 20.086C46.116 19.5313 45.9167 19.0893 45.518 18.76C45.1193 18.4133 44.5993 18.1447 43.958 17.954C43.334 17.746 42.632 17.5553 41.852 17.382C41.0893 17.2087 40.318 17.0093 39.538 16.784C38.7753 16.5413 38.0733 16.238 37.432 15.874C36.808 15.4927 36.2967 14.99 35.898 14.366C35.4993 13.742 35.3 12.9447 35.3 11.974C35.3 10.986 35.56 10.0847 36.08 9.27C36.6173 8.438 37.4233 7.77933 38.498 7.294C39.59 6.79133 40.968 6.54 42.632 6.54C43.724 6.54 44.8073 6.67867 45.882 6.956C46.9567 7.23333 47.8927 7.632 48.69 8.152L47.624 10.778C46.8093 10.2927 45.9687 9.93733 45.102 9.712C44.2353 9.46933 43.4033 9.348 42.606 9.348C41.67 9.348 40.9073 9.46067 40.318 9.686C39.746 9.91133 39.3213 10.206 39.044 10.57C38.784 10.934 38.654 11.35 38.654 11.818C38.654 12.3727 38.8447 12.8233 39.226 13.17C39.6247 13.4993 40.136 13.7593 40.76 13.95C41.4013 14.1407 42.112 14.3313 42.892 14.522C43.672 14.6953 44.4433 14.8947 45.206 15.12C45.986 15.3453 46.688 15.64 47.312 16.004C47.9533 16.368 48.4647 16.862 48.846 17.486C49.2447 18.11 49.444 18.8987 49.444 19.852C49.444 20.8227 49.1753 21.724 48.638 22.556C48.118 23.3707 47.312 24.0293 46.22 24.532C45.128 25.0173 43.75 25.26 42.086 25.26ZM59.0096 25.182C57.4669 25.182 56.1149 24.8787 54.9536 24.272C53.8096 23.648 52.9169 22.7987 52.2756 21.724C51.6516 20.6493 51.3396 19.4273 51.3396 18.058C51.3396 16.6713 51.6429 15.4493 52.2496 14.392C52.8736 13.3173 53.7229 12.4767 54.7976 11.87C55.8896 11.2633 57.1289 10.96 58.5156 10.96C59.8676 10.96 61.0722 11.2547 62.1296 11.844C63.1869 12.4333 64.0189 13.2653 64.6256 14.34C65.2322 15.4147 65.5356 16.68 65.5356 18.136C65.5356 18.2747 65.5269 18.4307 65.5096 18.604C65.5096 18.7773 65.5009 18.942 65.4836 19.098H53.9136V16.94H63.7676L62.4936 17.616C62.5109 16.8187 62.3462 16.1167 61.9996 15.51C61.6529 14.9033 61.1762 14.4267 60.5696 14.08C59.9802 13.7333 59.2956 13.56 58.5156 13.56C57.7182 13.56 57.0162 13.7333 56.4096 14.08C55.8202 14.4267 55.3522 14.912 55.0056 15.536C54.6762 16.1427 54.5116 16.862 54.5116 17.694V18.214C54.5116 19.046 54.7022 19.7827 55.0836 20.424C55.4649 21.0653 56.0022 21.5593 56.6956 21.906C57.3889 22.2527 58.1862 22.426 59.0876 22.426C59.8676 22.426 60.5696 22.3047 61.1936 22.062C61.8176 21.8193 62.3722 21.438 62.8576 20.918L64.5996 22.92C63.9756 23.648 63.1869 24.2113 62.2336 24.61C61.2976 24.9913 60.2229 25.182 59.0096 25.182ZM75.0274 25.182C73.5714 25.182 72.2714 24.8787 71.1274 24.272C70.0007 23.648 69.1167 22.7987 68.4754 21.724C67.8341 20.6493 67.5134 19.4273 67.5134 18.058C67.5134 16.6713 67.8341 15.4493 68.4754 14.392C69.1167 13.3173 70.0007 12.4767 71.1274 11.87C72.2714 11.2633 73.5714 10.96 75.0274 10.96C76.3794 10.96 77.5667 11.2373 78.5894 11.792C79.6294 12.3293 80.4181 13.1267 80.9554 14.184L78.4594 15.64C78.0434 14.9813 77.5321 14.496 76.9254 14.184C76.3361 13.872 75.6947 13.716 75.0014 13.716C74.2041 13.716 73.4847 13.8893 72.8434 14.236C72.2021 14.5827 71.6994 15.0853 71.3354 15.744C70.9714 16.3853 70.7894 17.1567 70.7894 18.058C70.7894 18.9593 70.9714 19.7393 71.3354 20.398C71.6994 21.0393 72.2021 21.5333 72.8434 21.88C73.4847 22.2267 74.2041 22.4 75.0014 22.4C75.6947 22.4 76.3361 22.244 76.9254 21.932C77.5321 21.62 78.0434 21.1347 78.4594 20.476L80.9554 21.932C80.4181 22.972 79.6294 23.778 78.5894 24.35C77.5667 24.9047 76.3794 25.182 75.0274 25.182ZM89.6408 25.182C88.4621 25.182 87.4221 24.9653 86.5208 24.532C85.6195 24.0813 84.9175 23.4053 84.4148 22.504C83.9121 21.5853 83.6608 20.4327 83.6608 19.046V11.116H86.9108V18.604C86.9108 19.852 87.1881 20.788 87.7428 21.412C88.3148 22.0187 89.1208 22.322 90.1608 22.322C90.9235 22.322 91.5821 22.166 92.1368 21.854C92.7088 21.542 93.1508 21.074 93.4628 20.45C93.7921 19.826 93.9568 19.0547 93.9568 18.136V11.116H97.2068V25H94.1128V21.256L94.6588 22.4C94.1908 23.3013 93.5061 23.9947 92.6048 24.48C91.7035 24.948 90.7155 25.182 89.6408 25.182ZM101.462 25V11.116H104.556V14.938L104.192 13.82C104.608 12.884 105.258 12.1733 106.142 11.688C107.043 11.2027 108.161 10.96 109.496 10.96V14.054C109.357 14.0193 109.227 14.002 109.106 14.002C108.985 13.9847 108.863 13.976 108.742 13.976C107.511 13.976 106.532 14.34 105.804 15.068C105.076 15.7787 104.712 16.8447 104.712 18.266V25H101.462ZM118.652 25.182C117.109 25.182 115.757 24.8787 114.596 24.272C113.452 23.648 112.559 22.7987 111.918 21.724C111.294 20.6493 110.982 19.4273 110.982 18.058C110.982 16.6713 111.285 15.4493 111.892 14.392C112.516 13.3173 113.365 12.4767 114.44 11.87C115.532 11.2633 116.771 10.96 118.158 10.96C119.51 10.96 120.715 11.2547 121.772 11.844C122.829 12.4333 123.661 13.2653 124.268 14.34C124.875 15.4147 125.178 16.68 125.178 18.136C125.178 18.2747 125.169 18.4307 125.152 18.604C125.152 18.7773 125.143 18.942 125.126 19.098H113.556V16.94H123.41L122.136 17.616C122.153 16.8187 121.989 16.1167 121.642 15.51C121.295 14.9033 120.819 14.4267 120.212 14.08C119.623 13.7333 118.938 13.56 118.158 13.56C117.361 13.56 116.659 13.7333 116.052 14.08C115.463 14.4267 114.995 14.912 114.648 15.536C114.319 16.1427 114.154 16.862 114.154 17.694V18.214C114.154 19.046 114.345 19.7827 114.726 20.424C115.107 21.0653 115.645 21.5593 116.338 21.906C117.031 22.2527 117.829 22.426 118.73 22.426C119.51 22.426 120.212 22.3047 120.836 22.062C121.46 21.8193 122.015 21.438 122.5 20.918L124.242 22.92C123.618 23.648 122.829 24.2113 121.876 24.61C120.94 24.9913 119.865 25.182 118.652 25.182ZM135.798 25V6.8H139.178V25H135.798ZM147.792 25V9.66H141.76V6.8H157.204V9.66H151.172V25H147.792Z" fill="#06B453"/>
<path d="M13.2307 31.5684C13.034 31.5684 12.8315 31.5684 12.6349 31.5684C12.468 31.5147 12.2953 31.4729 12.1284 31.4132C10.4781 30.8279 8.89925 30.0875 7.4336 29.1201C5.24705 27.675 3.50137 25.8238 2.25617 23.5068C0.856058 20.8972 0.236435 18.0727 0.0815287 15.1466C-0.0316718 12.9013 0.00407683 10.65 0.0100347 8.40474C0.0159927 6.67896 1.21353 5.37118 2.93537 5.16218C3.57287 5.08455 4.22229 5.03678 4.85382 4.93526C7.23699 4.55905 9.34014 3.57971 11.1275 1.94948C11.5624 1.55535 12.0033 1.17915 12.5753 1C12.8136 1 13.0519 1 13.2902 1C13.9397 1.19109 14.4103 1.64493 14.8929 2.08682C14.8989 2.0928 14.9048 2.09877 14.9167 2.10474C16.2632 3.27516 17.7944 4.10521 19.5103 4.60085C20.6602 4.93526 21.8458 5.04872 23.0255 5.17412C24.5507 5.32938 25.8138 6.6909 25.8614 8.22559C25.9389 10.7516 25.9985 13.2775 25.7482 15.8035C25.5755 17.5412 25.2835 19.2491 24.7294 20.9092C23.6213 24.2115 21.6671 26.8807 18.8013 28.8693C17.0854 30.0516 15.2206 30.9474 13.2307 31.5684ZM20.5351 16.2753C20.5112 12.0713 17.1033 8.66151 12.9328 8.66151C8.75626 8.66151 5.34833 12.0772 5.33046 16.2753C5.31258 20.4553 8.79797 23.9427 12.9506 23.9009C17.1569 23.8591 20.5589 20.4434 20.5351 16.2753Z" fill="#06B453"/>
<path d="M18.8306 16.3244C18.7945 19.7006 16.1166 22.3374 12.9213 22.2881C9.63565 22.2327 7.05409 19.5281 7.09621 16.2628C7.14435 12.9175 9.79812 10.2252 12.9935 10.2806C16.2671 10.3361 18.8968 13.0653 18.8306 16.3244ZM11.5854 17.5258C11.2785 17.1993 11.0016 16.8851 10.7128 16.5893C10.2735 16.1458 9.73795 16.115 9.35282 16.5154C8.97973 16.8974 9.01583 17.4642 9.44308 17.9078C9.90042 18.3821 10.3638 18.8504 10.8271 19.3248C11.3687 19.8792 11.8381 19.8792 12.3797 19.3248C13.6915 17.9817 15.0034 16.6386 16.3092 15.2956C16.3874 15.2155 16.4656 15.1354 16.5318 15.0491C16.8989 14.5378 16.6702 13.8231 16.0745 13.626C15.6713 13.4966 15.3584 13.6506 15.0756 13.9402C13.9322 15.1169 12.7889 16.2936 11.5854 17.5258Z" fill="#06B453"/>
</svg>
