<svg width="16" height="16" viewBox="0 0 16 16" fill="none" xmlns="http://www.w3.org/2000/svg">
<g clip-path="url(#clip0_3_826)">
<path d="M8 0C3.58867 0 0 3.58867 0 8C0 12.4113 3.58867 16 8 16H16V8C16 3.58867 12.4113 0 8 0ZM14 14H8C4.692 14 2 11.308 2 8C2 4.692 4.692 2 8 2C11.308 2 14 4.692 14 8V14ZM9 8C9 8.552 8.552 9 8 9C7.448 9 7 8.552 7 8C7 7.448 7.448 7 8 7C8.552 7 9 7.448 9 8ZM12.3333 8C12.3333 8.552 11.8853 9 11.3333 9C10.7813 9 10.3333 8.552 10.3333 8C10.3333 7.448 10.7813 7 11.3333 7C11.8853 7 12.3333 7.448 12.3333 8ZM5.66667 8C5.66667 8.552 5.21867 9 4.66667 9C4.11467 9 3.66667 8.552 3.66667 8C3.66667 7.448 4.11467 7 4.66667 7C5.21867 7 5.66667 7.448 5.66667 8Z" fill="#0D0C17"/>
</g>
<defs>
<clipPath id="clip0_3_826">
<rect width="16" height="16" fill="white"/>
</clipPath>
</defs>
</svg>
