<svg width="16" height="12" viewBox="0 0 16 12" fill="none" xmlns="http://www.w3.org/2000/svg">
<path d="M0.902344 2.96688L7.13472 6.90502C7.39433 7.06919 7.69943 7.15681 8.01152 7.15681C8.32361 7.15681 8.6287 7.06919 8.88832 6.90502L15.1207 2.96688M2.48216 11.2025H13.5409C13.9599 11.2025 14.3617 11.0448 14.658 10.764C14.9542 10.4831 15.1207 10.1023 15.1207 9.70514V2.21819C15.1207 1.82105 14.9542 1.44019 14.658 1.15937C14.3617 0.878555 13.9599 0.720795 13.5409 0.720795H2.48216C2.06317 0.720795 1.66133 0.878555 1.36506 1.15937C1.06879 1.44019 0.902344 1.82105 0.902344 2.21819V9.70514C0.902344 10.1023 1.06879 10.4831 1.36506 10.764C1.66133 11.0448 2.06317 11.2025 2.48216 11.2025Z" stroke="#6B6B6B" stroke-width="1.05321" stroke-linecap="round" stroke-linejoin="round"/>
</svg>
