<svg width="20" height="20" viewBox="0 0 20 20" fill="none" xmlns="http://www.w3.org/2000/svg">
<path d="M19.8507 9.3175C19.1191 7.7175 16.2499 2.5 9.99989 2.5C3.74989 2.5 0.880726 7.7175 0.149059 9.3175C0.0508413 9.53192 0 9.76499 0 10.0008C0 10.2367 0.0508413 10.4697 0.149059 10.6842C0.880726 12.2825 3.74989 17.5 9.99989 17.5C16.2499 17.5 19.1191 12.2825 19.8507 10.6825C19.9487 10.4683 19.9995 10.2355 19.9995 10C19.9995 9.76446 19.9487 9.53168 19.8507 9.3175ZM9.99989 15.8333C4.74406 15.8333 2.29156 11.3617 1.66656 10.0092C2.29156 8.63833 4.74406 4.16667 9.99989 4.16667C15.2432 4.16667 17.6966 8.61917 18.3332 10C17.6966 11.3808 15.2432 15.8333 9.99989 15.8333Z" fill="#0D0C17"/>
<path d="M9.99968 5.83301C9.17559 5.83301 8.37001 6.07738 7.6848 6.53522C6.9996 6.99306 6.46554 7.6438 6.15018 8.40516C5.83481 9.16652 5.7523 10.0043 5.91307 10.8126C6.07384 11.6208 6.47068 12.3632 7.0534 12.946C7.63612 13.5287 8.37855 13.9255 9.1868 14.0863C9.99505 14.2471 10.8328 14.1645 11.5942 13.8492C12.3555 13.5338 13.0063 12.9998 13.4641 12.3146C13.922 11.6293 14.1663 10.8238 14.1663 9.99967C14.165 8.89501 13.7256 7.83597 12.9445 7.05486C12.1634 6.27374 11.1043 5.83433 9.99968 5.83301ZM9.99968 12.4997C9.50522 12.4997 9.02187 12.3531 8.61075 12.0783C8.19963 11.8036 7.8792 11.4132 7.68998 10.9564C7.50076 10.4996 7.45125 9.9969 7.54771 9.51195C7.64418 9.027 7.88228 8.58154 8.23191 8.23191C8.58154 7.88228 9.027 7.64417 9.51195 7.54771C9.9969 7.45125 10.4996 7.50076 10.9564 7.68998C11.4132 7.87919 11.8036 8.19963 12.0784 8.61075C12.3531 9.02187 12.4997 9.50522 12.4997 9.99967C12.4997 10.6627 12.2363 11.2986 11.7674 11.7674C11.2986 12.2363 10.6627 12.4997 9.99968 12.4997Z" fill="#191919"/>
</svg>
