<svg width="35" height="35" viewBox="0 0 35 35" fill="none" xmlns="http://www.w3.org/2000/svg">
<circle cx="17.5" cy="17.5" r="17.5" fill="#0866FF"/>
<path d="M15.511 18.0297C15.1142 18.0297 14.7447 18.0297 14.3805 18.0297C14.0707 18.0297 13.7555 18.0349 13.4457 18.0297C13.1197 18.0245 13.011 17.9307 13.011 17.6179C13.0001 16.7994 13.0001 15.9861 13.0055 15.1728C13.011 14.8652 13.1251 14.7661 13.4457 14.7661C14.049 14.7609 14.6523 14.7661 15.261 14.7661C15.337 14.7661 15.4077 14.7661 15.511 14.7661C15.511 14.6775 15.511 14.6045 15.511 14.5263C15.5273 13.786 15.4947 13.0405 15.5599 12.3002C15.7283 10.4181 17.2229 9.07828 19.1903 9.01572C19.9892 8.98965 20.7936 9.00529 21.5925 9.00529C21.8751 9.00529 21.9892 9.11478 21.9892 9.38587C21.9947 10.147 21.9947 10.9082 21.9892 11.6746C21.9892 11.9665 21.8805 12.0708 21.5707 12.0812C21.0218 12.0916 20.4729 12.0916 19.9186 12.1021C19.299 12.1125 19.0436 12.3419 19.0273 12.9258C19.0164 13.5149 19.0218 14.1092 19.0218 14.7244C19.1142 14.7244 19.1849 14.7244 19.261 14.7244C19.962 14.7244 20.6577 14.7244 21.3588 14.7244C21.799 14.7244 21.9023 14.8235 21.9023 15.2406C21.9023 16.0174 21.9023 16.7889 21.9023 17.5657C21.9023 17.915 21.8044 18.0037 21.4403 18.0089C20.6468 18.0141 19.8533 18.0089 19.0164 18.0089C19.0164 18.0975 19.0164 18.1809 19.0164 18.2591C19.0164 20.2976 19.0164 22.336 19.0164 24.3797C19.0164 24.9427 18.9566 25.0001 18.3588 25.0001C17.5762 25.0001 16.799 25.0001 16.0164 25.0001C15.5979 25.0001 15.4947 24.901 15.4947 24.5048C15.4947 22.4351 15.4947 20.3601 15.4947 18.2904C15.511 18.2122 15.511 18.134 15.511 18.0297Z" fill="white"/>
</svg>
