<svg width="35" height="35" viewBox="0 0 35 35" fill="none" xmlns="http://www.w3.org/2000/svg">
<path d="M34.1797 35C23.0599 35 11.9401 35 0.820312 35C0.4375 34.8359 0.164062 34.5625 0 34.1797C0 28.0456 0 21.9206 0 15.7865C0.264323 15.1576 0.729167 14.9115 1.40365 14.957C2.02344 14.9935 2.65234 14.9661 3.28125 14.9661C3.60026 14.9661 3.91016 14.9661 4.2474 14.9661C4.2474 14.7747 4.2474 14.6289 4.2474 14.4831C4.2474 10.1354 4.25651 5.79688 4.23828 1.44922C4.23828 0.77474 4.42057 0.273438 5.05859 0C13.3529 0 21.6471 0 29.9414 0C30.5703 0.282552 30.7617 0.783854 30.7617 1.45833C30.7435 5.82422 30.7526 10.181 30.7526 14.5469C30.7526 14.6745 30.7526 14.8112 30.7526 14.9661C31.7279 14.9661 32.6667 14.9935 33.5964 14.957C34.2708 14.9297 34.7357 15.1667 35 15.7865C35 21.9206 35 28.0456 35 34.1797C34.8359 34.5625 34.5625 34.8359 34.1797 35ZM6.46224 2.20573C6.46224 12.4232 6.46224 22.6042 6.46224 32.7943C8.39453 32.7943 10.2995 32.7943 12.2409 32.7943C12.2409 32.6484 12.2409 32.5299 12.2409 32.4023C12.2409 30.2422 12.2409 28.0729 12.2409 25.9128C12.2409 25.0924 12.6602 24.6732 13.4805 24.6732C15.6133 24.6732 17.737 24.6732 19.8698 24.6732C20.7083 24.6732 21.1276 25.0924 21.1276 25.931C21.1276 28.0911 21.1276 30.2604 21.1276 32.4206C21.1276 32.5391 21.1276 32.6667 21.1276 32.7943C23.625 32.7943 26.0768 32.7943 28.5469 32.7943C28.5469 22.5859 28.5469 12.4049 28.5469 2.20573C21.1732 2.20573 13.8359 2.20573 6.46224 2.20573ZM4.22917 32.8034C4.22917 27.5716 4.22917 22.3763 4.22917 17.181C3.53646 17.181 2.88021 17.181 2.21484 17.181C2.21484 22.4036 2.21484 27.599 2.21484 32.8034C2.88932 32.8034 3.54557 32.8034 4.22917 32.8034ZM32.7943 32.8034C32.7943 27.5807 32.7943 22.3854 32.7943 17.181C32.1107 17.181 31.4453 17.181 30.7708 17.181C30.7708 22.3945 30.7708 27.5898 30.7708 32.8034C31.4544 32.8034 32.1107 32.8034 32.7943 32.8034ZM14.4375 32.7943C15.9505 32.7943 17.4271 32.7943 18.9128 32.7943C18.9128 30.8164 18.9128 28.8477 18.9128 26.8789C17.4089 26.8789 15.9232 26.8789 14.4375 26.8789C14.4375 28.8568 14.4375 30.8164 14.4375 32.7943Z" fill="#34FF7E"/>
<path d="M21.6654 15.5678C22.3854 15.5678 23.0964 15.5587 23.8164 15.5678C24.5365 15.5769 24.974 15.9962 24.9831 16.7162C24.9922 18.1654 24.9922 19.6055 24.9831 21.0548C24.974 21.7657 24.5273 22.2032 23.8164 22.2032C22.3854 22.2123 20.9453 22.2123 19.5143 22.2032C18.8125 22.2032 18.3568 21.7475 18.3477 21.0456C18.3385 19.5964 18.3385 18.1563 18.3477 16.7071C18.3568 15.9962 18.8034 15.5769 19.5143 15.5678C20.2253 15.5678 20.9453 15.5678 21.6654 15.5678ZM20.5443 19.9975C21.3099 19.9975 22.0299 19.9975 22.7773 19.9975C22.7773 19.2501 22.7773 18.5209 22.7773 17.7826C22.0208 17.7826 21.2917 17.7826 20.5443 17.7826C20.5443 18.53 20.5443 19.2501 20.5443 19.9975Z" fill="#34FF7E"/>
<path d="M13.3343 7.2373C14.0544 7.2373 14.7744 7.2373 15.4854 7.2373C16.1963 7.24642 16.652 7.6748 16.652 8.38574C16.6611 9.83496 16.6611 11.2751 16.652 12.7243C16.6429 13.4352 16.1872 13.8727 15.4854 13.8727C14.0544 13.8818 12.6143 13.8818 11.1833 13.8727C10.4814 13.8727 10.0257 13.4352 10.0166 12.7243C10.0075 11.2751 10.0075 9.83496 10.0166 8.38574C10.0257 7.66569 10.4632 7.24642 11.1742 7.2373C11.8942 7.2373 12.6143 7.2373 13.3343 7.2373ZM12.2223 9.44303C12.2223 10.1995 12.2223 10.9287 12.2223 11.6761C12.9697 11.6761 13.708 11.6761 14.4554 11.6761C14.4554 10.9287 14.4554 10.1904 14.4554 9.44303C13.708 9.44303 12.9788 9.44303 12.2223 9.44303Z" fill="#34FF7E"/>
<path d="M21.6742 7.23696C22.3942 7.23696 23.1051 7.22785 23.8252 7.23696C24.5179 7.24608 24.9736 7.66535 24.9827 8.35805C25.001 9.81639 25.001 11.2747 24.9827 12.7331C24.9736 13.444 24.527 13.8724 23.8161 13.8724C22.3851 13.8724 20.945 13.8815 19.514 13.8724C18.8304 13.8724 18.3656 13.4258 18.3564 12.7513C18.3382 11.2838 18.3382 9.81639 18.3564 8.33983C18.3656 7.67446 18.8213 7.24608 19.4958 7.23696C20.2158 7.22785 20.945 7.23696 21.6742 7.23696ZM22.7861 9.4518C22.0205 9.4518 21.2913 9.4518 20.5531 9.4518C20.5531 10.2083 20.5531 10.9375 20.5531 11.6666C21.3096 11.6666 22.0479 11.6666 22.7861 11.6666C22.7861 10.9193 22.7861 10.1992 22.7861 9.4518Z" fill="#34FF7E"/>
<path d="M13.335 15.5675C14.055 15.5675 14.7659 15.5584 15.486 15.5675C16.1969 15.5766 16.6436 16.005 16.6527 16.716C16.6618 18.1652 16.6618 19.6053 16.6527 21.0545C16.6436 21.7563 16.1878 22.2029 15.486 22.2029C14.055 22.2121 12.6149 22.2121 11.1839 22.2029C10.4912 22.2029 10.0355 21.7654 10.0264 21.0819C10.0081 19.6144 10.0081 18.147 10.0264 16.6704C10.0355 15.9959 10.473 15.5766 11.1566 15.5675C11.8766 15.5584 12.6058 15.5675 13.335 15.5675ZM12.223 17.7733C12.223 18.5389 12.223 19.2589 12.223 19.9972C12.9704 19.9972 13.7087 19.9972 14.4469 19.9972C14.4469 19.2407 14.4469 18.5115 14.4469 17.7733C13.6995 17.7733 12.9795 17.7733 12.223 17.7733Z" fill="#34FF7E"/>
</svg>
