<svg width="627" height="668" viewBox="0 0 627 668" fill="none" xmlns="http://www.w3.org/2000/svg">
<g clip-path="url(#clip0_3_236)">
<path d="M561.7 41.0908C474.737 41.0908 474.582 166.882 561.7 166.882C648.663 166.882 648.818 41.0908 561.7 41.0908Z" fill="#EBEBEB"/>
<path d="M614.621 115.715C609.979 137.284 592.339 156.176 561.701 156.176C489.438 156.176 489.593 51.7964 561.701 51.7964C562.165 51.7964 562.629 51.7964 563.093 51.7964C495.163 53.0559 495.473 151.926 564.486 151.926C592.494 151.926 609.205 135.395 614.621 115.715Z" fill="#DBDBDB"/>
<path d="M562.164 65.4934C563.402 65.4934 564.485 66.438 564.485 67.5401V71.0037C571.294 71.476 576.09 73.6801 581.197 77.1437C581.97 77.7734 582.589 78.2457 582.589 79.1903C582.589 80.4498 581.506 81.3944 580.114 81.3944C579.495 81.3944 579.03 81.237 578.411 80.7647C573.769 77.3011 569.282 75.5693 564.33 75.097V99.657C578.566 102.491 584.601 107.371 584.601 116.03C584.601 125.319 576.245 131.931 564.485 132.246V139.016C564.485 140.118 563.402 141.063 562.164 141.063C560.926 141.063 559.843 140.118 559.843 139.016V132.246C551.642 131.616 544.988 128.783 538.644 123.745C538.025 123.272 537.561 122.643 537.561 121.855C537.561 120.753 538.644 119.651 539.882 119.651C540.655 119.651 541.274 119.966 541.584 120.281C546.845 124.847 552.57 127.523 559.843 128.31V103.278C545.762 100.444 539.882 95.5636 539.882 86.7472C539.882 77.9308 548.083 71.1611 559.688 70.8462V67.6975C559.998 66.5955 560.926 65.4934 562.164 65.4934ZM560.152 98.8698V74.9396C551.023 75.097 544.988 80.1349 544.988 86.4324C544.988 92.4149 548.083 96.036 560.152 98.8698ZM564.33 104.223V128.31C573.769 128.153 579.804 123.115 579.804 116.345C579.804 110.363 576.555 106.742 564.33 104.223Z" fill="#DBDBDB"/>
<path d="M107.389 139.173C42.3984 139.173 42.2437 233.163 107.389 233.163C172.379 233.32 172.533 139.173 107.389 139.173Z" fill="#EBEBEB"/>
<path d="M146.847 195.063C143.443 211.279 130.135 225.291 107.389 225.291C53.3848 225.291 53.3848 147.203 107.389 147.203C107.698 147.203 108.162 147.203 108.472 147.203C57.7175 148.147 58.027 221.985 109.4 221.985C130.445 222.142 142.978 209.705 146.847 195.063Z" fill="#DBDBDB"/>
<path d="M107.853 157.593C108.781 157.593 109.555 158.38 109.555 159.168V161.844C114.661 162.159 118.22 163.733 122.089 166.41C122.708 166.882 123.017 167.197 123.017 167.984C123.017 168.929 122.244 169.558 121.16 169.558C120.696 169.558 120.387 169.558 119.922 169.086C116.518 166.567 113.114 165.15 109.4 164.835V183.098C120.077 185.145 124.565 188.923 124.565 195.378C124.565 202.305 118.375 207.186 109.555 207.5V212.538C109.555 213.326 108.781 214.113 107.853 214.113C106.924 214.113 106.151 213.326 106.151 212.538V207.343C99.9612 206.871 95.0096 204.824 90.3674 201.046C89.9032 200.731 89.5938 200.258 89.5938 199.629C89.5938 198.841 90.3674 198.054 91.2959 198.054C91.9148 198.054 92.379 198.369 92.5338 198.527C96.4022 201.99 100.735 204.037 106.305 204.509V185.774C95.7833 183.57 91.4506 179.949 91.4506 173.494C91.4506 166.882 97.6401 161.844 106.151 161.687V159.168C106.151 158.223 106.924 157.593 107.853 157.593ZM106.305 182.468V164.678C99.497 164.835 95.0096 168.614 95.0096 173.337C94.8549 177.588 97.1759 180.421 106.305 182.468ZM109.4 186.404V204.509C116.363 204.352 121.006 200.573 121.006 195.535C121.006 190.97 118.53 188.293 109.4 186.404Z" fill="#DBDBDB"/>
<path d="M50.5992 351.397C-27.6984 365.724 -6.9635 483.643 71.3341 469.316C149.632 454.99 128.897 337.07 50.5992 351.397Z" fill="#DBDBDB"/>
<path d="M57.8721 349.98C-16.7118 363.519 4.02318 481.596 78.6071 467.899C153.346 454.36 132.611 336.44 57.8721 349.98Z" fill="#EBEBEB"/>
<path d="M115.589 411.852C115.125 432.791 103.21 453.258 76.9044 457.981C14.8543 469.316 -2.32163 371.391 59.5737 360.056C60.0379 360.056 60.3474 359.898 60.8116 359.898C2.78474 371.706 19.3417 464.436 78.4518 453.573C102.746 449.165 114.351 431.059 115.589 411.852Z" fill="#DBDBDB"/>
<path d="M62.359 372.966C63.4421 372.808 64.5253 373.438 64.68 374.54L65.299 377.846C71.1791 377.216 75.6665 378.476 80.6181 380.995C81.3918 381.467 82.0107 381.782 82.0107 382.727C82.1655 383.829 81.3918 384.931 80.3086 385.088C79.8444 385.246 79.3802 385.246 78.7612 384.773C74.2738 382.254 70.0959 381.31 65.7632 381.625L69.7864 404.61C82.475 404.925 88.5098 408.704 89.9024 416.733C91.4498 425.392 85.415 432.949 75.357 434.995L76.4402 441.45C76.5949 442.552 75.976 443.654 74.8928 443.812C73.8096 443.969 72.7264 443.339 72.5717 442.237L71.4885 435.782C64.3706 436.412 58.181 434.838 51.9915 431.059C51.3725 430.745 50.9083 430.272 50.7536 429.485C50.5989 428.383 51.3725 427.281 52.4557 427.123C53.2294 426.966 53.6936 427.281 54.0031 427.438C59.2642 430.902 64.68 432.476 71.0243 432.004L66.8464 408.546C54.3126 408.074 48.4325 404.453 47.0399 396.266C45.6472 387.922 51.5273 380.365 61.4305 378.318L60.8116 375.17C60.6568 374.225 61.4305 373.123 62.359 372.966ZM66.0727 404.453L62.0495 382.097C54.3126 383.671 49.9799 389.339 50.9083 395.321C52.1462 400.832 55.241 403.823 66.0727 404.453ZM70.5601 408.861L74.5833 431.532C82.6297 429.957 86.9624 424.132 85.8792 417.992C84.9508 412.167 81.5465 409.176 70.5601 408.861Z" fill="#DBDBDB"/>
<path d="M553.499 332.977C495.008 343.682 510.481 431.846 568.972 421.141C627.618 410.435 612.144 322.271 553.499 332.977Z" fill="#DBDBDB"/>
<path d="M559.069 332.032C503.363 342.266 518.837 430.43 574.543 420.196C630.403 409.963 614.929 321.799 559.069 332.032Z" fill="#EBEBEB"/>
<path d="M602.241 378.161C601.931 393.904 592.956 409.018 573.305 412.639C526.883 421.141 514.195 347.933 560.461 339.432C560.771 339.432 561.08 339.274 561.39 339.274C518.063 348.091 530.442 417.362 574.697 409.333C592.492 406.184 601.158 392.487 602.241 378.161Z" fill="#DBDBDB"/>
<path d="M570.21 349.035C570.984 349.193 571.603 349.822 571.448 350.767L571.139 353.286C575.471 354.231 578.411 356.12 581.506 358.954C581.97 359.426 582.28 359.898 582.125 360.528C581.97 361.473 581.197 361.945 580.423 361.945C580.113 361.945 579.804 361.787 579.34 361.315C576.709 358.481 573.924 356.907 570.674 356.12L568.663 373.438C577.638 376.586 581.197 380.522 580.423 386.662C579.649 393.275 573.769 397.211 566.032 396.581L565.413 401.461C565.259 402.248 564.64 402.878 563.711 402.721C562.937 402.563 562.319 401.934 562.473 400.989L563.092 396.108C557.831 395.006 553.808 392.487 550.094 388.394C549.785 387.922 549.475 387.607 549.63 386.977C549.785 386.19 550.558 385.56 551.332 385.56C551.951 385.56 552.261 385.875 552.415 386.19C555.51 389.811 558.914 392.173 563.711 393.275L565.723 375.642C556.903 372.493 553.498 368.715 554.117 362.417C554.891 356.12 560.771 352.026 568.199 352.814L568.508 350.452C568.663 349.507 569.437 349.035 570.21 349.035ZM566.187 372.493L568.199 355.647C562.319 355.018 557.986 358.166 557.522 362.575C556.903 366.668 558.45 369.502 566.187 372.493ZM568.353 376.586L566.342 393.589C572.377 394.219 576.864 391.071 577.328 386.347C577.947 382.097 576.09 379.263 568.353 376.586Z" fill="#DBDBDB"/>
<path d="M0 546.46C199.303 545.515 422.745 545.515 621.894 546.46C422.745 547.404 199.303 547.404 0 546.46Z" fill="#263238"/>
<path d="M314.119 668C484.184 668 622.048 648.828 622.048 625.178C622.048 601.527 484.184 582.355 314.119 582.355C144.054 582.355 6.18945 601.527 6.18945 625.178C6.18945 648.828 144.054 668 314.119 668Z" fill="#EBEBEB"/>
<path d="M516.516 89.7383H259.187V603.766H516.516V89.7383Z" fill="#37474F"/>
<path d="M550.559 126.106H516.517V532.133H550.559V126.106Z" fill="#455A64"/>
<path d="M525.646 126.106H516.517V532.133H525.646V126.106Z" fill="#263238"/>
<path d="M347.078 403.823H291.991V428.855H347.078V403.823Z" fill="#EBEBEB"/>
<path d="M415.473 403.823H360.386V428.855H415.473V403.823Z" fill="#EBEBEB"/>
<path d="M483.712 403.823H428.625V428.855H483.712V403.823Z" fill="#EBEBEB"/>
<path d="M347.078 439.246H291.991V464.278H347.078V439.246Z" fill="#EBEBEB"/>
<path d="M415.473 439.246H360.386V464.278H415.473V439.246Z" fill="#EBEBEB"/>
<path d="M483.712 439.246H428.625V464.278H483.712V439.246Z" fill="#EBEBEB"/>
<path d="M347.078 474.826H291.991V499.859H347.078V474.826Z" fill="#EBEBEB"/>
<path d="M415.473 474.826H360.386V499.859H415.473V474.826Z" fill="#EBEBEB"/>
<path d="M483.712 474.826H428.625V499.859H483.712V474.826Z" fill="#EBEBEB"/>
<path d="M347.078 510.249H291.991V535.282H347.078V510.249Z" fill="#EBEBEB"/>
<path d="M415.473 510.249H360.386V535.282H415.473V510.249Z" fill="#EBEBEB"/>
<path d="M483.712 510.249H428.625V535.282H483.712V510.249Z" fill="#EBEBEB"/>
<path d="M347.078 545.672H291.991V570.705H347.078V545.672Z" fill="#263238"/>
<path d="M415.473 545.672H360.386V570.705H415.473V545.672Z" fill="#AFA369"/>
<path d="M483.712 545.672H428.625V570.705H483.712V545.672Z" fill="#A6A6A6"/>
<path d="M502.745 60.7703H273.113V389.024H502.745V60.7703Z" fill="#263238"/>
<path d="M488.2 160.584H287.504V319.437H488.2V160.584Z" fill="white"/>
<path d="M465.453 0H310.405V118.864H465.453V0Z" fill="#EBEBEB"/>
<path d="M419.65 15.4287H356.053V17.9477H419.65V15.4287Z" fill="#C7C7C7"/>
<path d="M404.177 22.356H371.527V24.8749H404.177V22.356Z" fill="#C7C7C7"/>
<path d="M388.703 43.2949H325.105V45.8139H388.703V43.2949Z" fill="#C7C7C7"/>
<path d="M404.177 50.2219H325.105V52.7409H404.177V50.2219Z" fill="#C7C7C7"/>
<path d="M366.266 57.3066H325.105V59.8256H366.266V57.3066Z" fill="#C7C7C7"/>
<path d="M395.666 64.2339H325.105V66.7529H395.666V64.2339Z" fill="#C7C7C7"/>
<path d="M402.784 71.1609H325.105V73.6799H402.784V71.1609Z" fill="#C7C7C7"/>
<path d="M396.285 78.2456H325.105V80.7646H396.285V78.2456Z" fill="#C7C7C7"/>
<path d="M404.177 85.1729H325.105V87.6918H404.177V85.1729Z" fill="#C7C7C7"/>
<path d="M398.142 92.0999H325.105V94.6188H398.142V92.0999Z" fill="#C7C7C7"/>
<path d="M384.834 99.1846H325.105V101.704H384.834V99.1846Z" fill="#C7C7C7"/>
<path d="M403.558 106.112H325.105V108.631H403.558V106.112Z" fill="#C7C7C7"/>
<path d="M399.07 113.039H325.105V115.558H399.07V113.039Z" fill="#C7C7C7"/>
<path d="M450.599 50.2219H426.614V52.7409H450.599V50.2219Z" fill="#C7C7C7"/>
<path d="M450.599 57.3066H426.614V59.8256H450.599V57.3066Z" fill="#C7C7C7"/>
<path d="M450.599 64.2339H426.614V66.7529H450.599V64.2339Z" fill="#C7C7C7"/>
<path d="M450.599 71.1609H426.614V73.6799H450.599V71.1609Z" fill="#C7C7C7"/>
<path d="M450.599 78.2456H426.614V80.7646H450.599V78.2456Z" fill="#C7C7C7"/>
<path d="M450.599 85.1729H426.614V87.6918H450.599V85.1729Z" fill="#C7C7C7"/>
<path d="M450.599 92.0999H426.614V94.6188H450.599V92.0999Z" fill="#C7C7C7"/>
<path d="M450.599 99.1846H426.614V101.704H450.599V99.1846Z" fill="#C7C7C7"/>
<path d="M450.599 106.112H426.614V108.631H450.599V106.112Z" fill="#C7C7C7"/>
<path d="M450.599 113.039H426.614V115.558H450.599V113.039Z" fill="#C7C7C7"/>
<path d="M386.692 376.429C398.827 376.429 408.664 366.42 408.664 354.073C408.664 341.726 398.827 331.717 386.692 331.717C374.556 331.717 364.719 341.726 364.719 354.073C364.719 366.42 374.556 376.429 386.692 376.429Z" fill="#A6A6A6"/>
<path d="M344.138 331.717H292.92V349.035H344.138V331.717Z" fill="#A6A6A6"/>
<path d="M344.138 359.269H292.92V376.586H344.138V359.269Z" fill="#A6A6A6"/>
<path d="M483.713 331.717H432.494V349.035H483.713V331.717Z" fill="#A6A6A6"/>
<path d="M483.713 359.269H432.494V376.586H483.713V359.269Z" fill="#A6A6A6"/>
<path d="M387.929 284.959C412.37 284.959 432.184 264.8 432.184 239.932C432.184 215.065 412.37 194.906 387.929 194.906C363.488 194.906 343.674 215.065 343.674 239.932C343.674 264.8 363.488 284.959 387.929 284.959Z" fill="#FFC727"/>
<path d="M381.43 272.364L358.374 248.591L366.111 240.719L379.573 254.574L407.581 210.019L416.71 216.002L381.43 272.364Z" fill="#263238"/>
<path d="M284.099 642.968C280.695 644.07 185.84 643.755 182.126 641.551C180.734 640.606 179.96 626.594 179.496 609.591C179.341 605.97 179.341 602.192 179.186 598.256C179.186 593.69 179.032 589.125 179.032 584.559C178.877 564.407 179.186 546.617 179.186 546.617H241.082V584.559V598.256L240.772 609.591C240.772 609.591 277.136 626.279 280.849 629.271C284.563 632.105 287.348 641.866 284.099 642.968Z" fill="#AD6359"/>
<path d="M284.099 642.968C280.694 644.07 185.84 643.755 182.126 641.551C180.733 640.606 179.96 626.594 179.495 609.591C179.341 605.97 179.341 602.192 179.186 598.256C179.186 593.69 179.031 589.124 179.031 584.559H241.081V598.256L240.772 609.591C240.772 609.591 277.135 626.279 280.849 629.271C284.563 632.104 287.348 641.865 284.099 642.968Z" fill="white"/>
<path d="M284.408 642.968C282.242 643.755 241.7 643.912 212.3 643.283C205.492 643.125 199.302 642.968 194.196 642.653C187.232 642.338 182.59 641.866 181.817 641.393C180.114 640.291 179.341 619.667 179.031 597.784H241.236L240.927 609.119C240.927 609.119 277.445 625.807 281.159 628.956C284.718 632.105 287.658 641.866 284.408 642.968Z" fill="#AFA369"/>
<path d="M283.016 639.189C267.078 638.717 202.397 638.402 186.459 639.347C186.304 639.347 186.304 639.504 186.459 639.504C202.397 640.291 266.923 639.977 283.016 639.662C283.325 639.347 283.325 639.189 283.016 639.189Z" fill="#263238"/>
<path d="M243.093 605.813C236.749 604.553 229.012 605.498 224.215 610.064C224.06 610.221 224.215 610.536 224.524 610.379C230.714 608.332 236.594 607.072 243.093 606.443C243.557 606.443 243.557 605.813 243.093 605.813Z" fill="#263238"/>
<path d="M247.58 608.489C241.236 607.23 233.499 608.174 228.702 612.74C228.548 612.898 228.702 613.212 229.012 613.055C235.201 611.008 241.081 609.749 247.58 609.119C248.045 609.277 248.045 608.647 247.58 608.489Z" fill="#263238"/>
<path d="M252.223 611.323C245.879 610.064 238.142 611.008 233.345 615.574C233.19 615.731 233.345 616.046 233.654 615.889C239.844 613.842 245.724 612.583 252.223 611.953C252.687 612.11 252.687 611.481 252.223 611.323Z" fill="#263238"/>
<path d="M256.71 614.157C250.366 612.898 242.629 613.842 237.832 618.408C237.677 618.565 237.832 618.88 238.142 618.723C244.331 616.676 250.211 615.417 256.71 614.787C257.174 614.944 257.174 614.315 256.71 614.157Z" fill="#263238"/>
<path d="M254.853 591.014C252.378 587.55 247.735 589.125 245.105 591.329C240.772 594.95 237.059 600.617 235.356 605.97C235.356 606.128 235.356 606.128 235.511 606.128C235.511 606.6 235.975 607.072 236.44 606.915C241.701 605.026 247.426 603.609 251.913 599.988C254.544 598.099 257.175 594.32 254.853 591.014ZM243.712 602.349C241.236 603.294 238.606 604.239 236.13 605.341C237.987 602.507 239.844 599.515 242.01 596.839C243.093 595.58 244.177 594.32 245.414 593.218C247.271 591.486 254.699 587.865 253.616 594.792C252.997 598.728 246.807 601.09 243.712 602.349Z" fill="#263238"/>
<path d="M219.264 604.238C224.525 606.443 230.405 606.443 235.975 606.915C236.594 606.915 236.904 606.285 236.749 605.813C236.904 605.813 236.904 605.655 236.904 605.498C233.964 600.775 228.857 596.209 223.906 593.848C220.811 592.273 216.014 591.959 214.467 596.052C212.919 599.83 216.323 602.822 219.264 604.238ZM216.478 599.673C213.693 593.218 221.739 594.792 224.06 596.052C225.453 596.839 226.846 597.784 228.238 598.728C231.024 600.775 233.499 603.136 235.975 605.341C233.345 604.868 230.559 604.711 227.929 604.396C224.525 603.924 218.026 603.294 216.478 599.673Z" fill="#263238"/>
<path d="M158.761 278.189C158.761 278.189 175.472 446.33 175.937 448.534C175.937 448.849 176.091 451.998 176.246 457.351C177.175 486.319 179.341 576.53 179.341 576.53H247.581C247.581 576.53 243.093 469.631 240.617 444.599C237.368 412.797 216.788 278.189 216.788 278.189H158.761Z" fill="#455A64"/>
<path d="M183.983 454.517C181.817 418.149 178.722 381.624 174.544 345.414C172.223 324.947 169.283 304.638 166.343 284.172C166.343 284.014 166.033 284.014 166.033 284.172C171.294 320.382 175.008 356.907 178.258 393.432C181.507 429.957 183.673 466.482 185.221 503.007C185.994 523.789 186.613 544.413 187.387 565.194C187.387 565.667 188.161 565.667 188.161 565.194C187.078 528.354 185.994 491.357 183.983 454.517Z" fill="#263238"/>
<path d="M243.093 565.509C241.236 565.194 239.379 565.352 237.522 565.352C235.511 565.352 233.499 565.194 231.333 565.194C227.309 565.037 223.441 564.88 219.418 564.88C211.526 564.722 203.48 564.722 195.588 565.037C193.422 565.037 191.255 565.194 189.089 565.352C186.768 565.509 184.447 565.667 182.126 565.667C181.971 565.667 181.971 565.824 182.126 565.824C186.149 565.824 190.172 566.139 194.195 566.296C198.219 566.454 202.087 566.454 206.11 566.611C214.002 566.769 222.048 566.611 229.94 566.296C232.106 566.139 234.273 566.139 236.439 566.139C237.677 566.139 238.76 565.982 239.998 565.982C241.081 565.982 242.01 565.982 243.093 565.824C243.402 565.667 243.402 565.509 243.093 565.509Z" fill="#263238"/>
<path d="M158.761 278.189C158.761 278.189 175.472 446.33 175.937 448.534C175.937 448.849 176.091 451.998 176.246 457.351L208.432 278.189H158.761Z" fill="#263238"/>
<path d="M112.804 632.734C109.4 632.105 26.1508 585.504 23.9845 581.725C23.2108 580.308 29.0908 567.556 36.8277 552.442C38.5299 549.136 64.9901 496.238 64.9901 496.238L121.934 527.882L103.675 559.527L96.2473 572.436L90.6767 582.197C90.6767 582.197 114.661 614.472 116.518 619.037C118.22 623.446 116.209 633.364 112.804 632.734Z" fill="#AD6359"/>
<path d="M112.804 632.734C109.4 632.105 26.1508 585.504 23.9845 581.725C23.2108 580.308 29.0908 567.556 36.8277 552.442C38.5299 549.136 45.6478 534.022 47.9689 530.086C64.2164 539.06 88.9746 551.655 103.675 559.527L96.2473 572.436L90.6767 582.197C90.6767 582.197 114.661 614.472 116.518 619.037C118.22 623.446 116.209 633.364 112.804 632.734Z" fill="white"/>
<path d="M112.959 633.049C109.554 632.419 25.841 585.504 23.6746 581.725C22.7462 579.993 31.721 561.416 41.779 542.051L96.2469 572.436L90.5216 582.355C90.5216 582.355 114.661 614.944 116.518 619.352C118.529 623.76 116.518 633.679 112.959 633.049Z" fill="#AFA369"/>
<path d="M113.578 628.956C99.806 620.769 43.1718 588.967 28.7811 581.883C28.6264 581.883 28.6264 581.883 28.7811 582.04C42.3981 590.542 99.1871 621.714 113.423 629.113C113.732 629.428 113.887 629.113 113.578 628.956Z" fill="#263238"/>
<path d="M94.3899 580.151C89.4382 576.057 82.1655 573.066 75.8213 574.798C75.5118 574.798 75.6665 575.27 75.8213 575.27C82.1655 576.53 87.8909 578.262 93.9256 580.938C94.3899 581.095 94.6993 580.466 94.3899 580.151Z" fill="#263238"/>
<path d="M97.0207 584.874C92.0691 580.781 84.7964 577.789 78.4521 579.521C78.1426 579.521 78.2974 579.993 78.4521 579.993C84.7964 581.253 90.5217 582.985 96.5565 585.661C97.0207 585.819 97.3302 585.189 97.0207 584.874Z" fill="#263238"/>
<path d="M99.6516 589.597C94.7 585.503 87.4272 582.512 81.083 584.244C80.7735 584.244 80.9282 584.716 81.083 584.716C87.4272 585.976 93.1526 587.708 99.1874 590.384C99.6516 590.384 100.116 589.912 99.6516 589.597Z" fill="#263238"/>
<path d="M102.281 594.162C97.3298 590.069 90.0571 587.078 83.7129 588.81C83.4034 588.81 83.5581 589.282 83.7129 589.282C90.0571 590.541 95.7825 592.273 101.817 594.95C102.436 595.107 102.746 594.477 102.281 594.162Z" fill="#263238"/>
<path d="M111.566 572.909C111.102 568.658 106.305 567.713 102.901 568.501C97.4848 569.603 91.45 572.751 87.4268 576.687C87.272 576.845 87.4268 576.845 87.4268 577.002C87.272 577.474 87.272 578.104 87.891 578.262C93.3068 579.049 99.1869 580.623 104.757 579.836C108.007 579.049 112.03 577.002 111.566 572.909ZM96.5564 577.474C93.7711 577.159 91.1405 576.687 88.51 576.372C91.6047 574.798 94.5448 573.066 97.6395 571.807C99.1869 571.177 100.734 570.547 102.282 570.232C104.757 569.603 112.959 570.075 108.626 575.585C106.305 578.891 99.8059 577.947 96.5564 577.474Z" fill="#263238"/>
<path d="M74.2742 567.241C77.8332 571.807 83.0943 574.641 87.5817 577.789C88.0459 578.104 88.6649 577.789 88.6649 577.317C88.8196 577.317 88.8196 577.317 88.8196 577.16C88.3554 571.492 86.189 565.037 82.9395 560.471C80.9279 557.637 76.75 554.961 73.6552 557.795C70.5605 560.314 72.1079 564.565 74.2742 567.241ZM73.81 561.888C74.4289 554.804 80.7732 560.156 82.1658 562.361C83.0943 563.777 83.868 565.194 84.4869 566.769C86.0343 569.917 86.9627 573.224 88.2006 576.372C86.0343 574.641 83.7132 573.224 81.5469 571.492C78.9163 569.603 73.5005 565.824 73.81 561.888Z" fill="#263238"/>
<path d="M216.633 278.189C216.633 278.189 212.455 303.694 196.363 316.761C196.363 316.761 172.688 417.834 167.426 436.569C159.535 464.908 111.566 553.072 111.566 553.072L51.5273 521.585C51.5273 521.585 100.734 426.493 105.995 419.094C109.554 414.213 124.1 331.56 123.635 328.883C118.22 298.026 131.837 278.031 131.837 278.031L216.633 278.189Z" fill="#455A64"/>
<path d="M160.773 283.699C159.689 288.58 156.749 292.988 153.036 296.294C148.858 299.915 143.597 301.647 138.181 302.276C137.252 302.434 137.252 303.851 138.181 303.693C149.322 303.221 160.154 295.507 161.237 283.699C161.237 283.384 160.927 283.384 160.773 283.699Z" fill="#263238"/>
<path d="M206.73 308.574C202.707 310.306 199.148 312.825 195.589 315.344C191.875 317.863 188.471 320.854 184.912 323.688C184.757 323.845 184.912 324.003 185.066 324.003C188.78 321.484 192.803 319.437 196.517 316.918C200.076 314.399 203.945 312.038 207.039 309.046C207.039 308.889 206.885 308.574 206.73 308.574Z" fill="#263238"/>
<path d="M207.194 284.958C206.73 287.635 206.111 290.154 205.492 292.83C205.028 295.192 204.564 297.711 203.945 300.23C203.326 302.591 202.397 304.638 200.54 306.37C199.612 307.314 198.529 308.102 197.6 308.889C197.136 309.361 196.517 309.676 195.898 310.148C195.898 309.833 196.053 309.518 196.053 309.046C196.208 308.102 196.363 306.999 196.517 306.055C196.827 303.851 197.291 301.647 197.6 299.443C198.219 295.034 198.838 290.784 199.767 286.375C199.767 286.218 199.612 286.061 199.457 286.375C198.374 290.626 197.291 294.877 196.363 299.128C195.898 301.174 194.351 311.565 194.196 312.352C194.196 313.139 194.041 313.927 194.041 314.714C194.041 315.501 193.887 316.288 194.041 317.075C194.041 317.233 194.351 317.233 194.351 317.075C194.66 316.446 194.815 315.501 194.97 314.871C195.125 314.084 195.279 313.454 195.434 312.667C195.434 312.352 195.589 312.037 195.589 311.88C196.672 311.25 197.6 310.463 198.529 309.676C199.612 308.889 200.54 308.259 201.469 307.314C203.326 305.74 204.409 303.851 205.183 301.489C205.956 299.128 206.111 296.451 206.42 294.09C206.73 291.098 207.039 288.107 207.349 285.273C207.504 284.958 207.194 284.801 207.194 284.958Z" fill="#263238"/>
<path d="M114.351 539.217C112.804 538.115 111.101 537.328 109.554 536.384C107.697 535.439 105.995 534.337 104.138 533.392C100.734 531.346 97.1749 529.456 93.7707 527.567C86.8075 523.789 79.6895 520.01 72.4168 516.547C70.4052 515.602 68.3936 514.657 66.5367 513.713C64.3704 512.768 62.2041 511.824 60.1925 510.722C60.0377 510.564 59.883 510.879 60.0377 510.879C63.5967 512.768 67.001 514.972 70.5599 517.019C73.9642 519.066 77.5232 520.955 80.9274 522.844C87.8906 526.623 95.0086 530.401 102.281 533.865C104.293 534.809 106.15 535.754 108.161 536.856C109.245 537.328 110.328 537.801 111.411 538.43C112.339 538.903 113.268 539.375 114.196 539.847C114.506 539.532 114.506 539.375 114.351 539.217Z" fill="#263238"/>
<path d="M143.906 273.308C134.931 284.171 130.289 298.341 129.979 312.51C129.824 316.288 130.289 320.067 130.753 323.688C131.372 327.781 131.991 331.874 131.836 336.125C131.681 340.376 130.908 344.627 130.134 348.878C129.36 353.128 128.586 357.379 127.658 361.63C125.956 369.974 124.254 378.318 122.397 386.662C120.54 394.849 118.683 403.193 116.517 411.38C115.434 415.315 114.196 419.094 112.648 422.872C111.101 426.493 109.089 430.114 107.078 433.578C102.9 440.663 98.8767 447.747 95.163 455.147C91.2945 462.861 87.5808 470.575 83.8671 478.29C82.0102 482.068 80.1533 486.004 78.2965 489.783C76.4396 493.718 74.428 497.497 72.7259 501.59C71.7975 503.637 71.0238 505.526 69.9406 507.573C69.7859 507.73 70.0953 507.888 70.2501 507.73C72.2617 503.794 74.2733 500.016 76.2849 496.237C78.1417 492.459 80.1533 488.68 82.0102 484.902C85.8787 477.188 89.7471 469.631 93.4608 461.916C97.1746 454.359 100.888 446.96 105.221 439.718C109.244 432.948 113.267 426.178 115.898 418.622C118.528 410.75 120.231 402.721 122.087 394.691C123.944 386.347 125.801 378.003 127.503 369.659C129.205 361.315 131.062 352.813 132.3 344.312C132.919 340.219 133.383 336.283 133.074 332.189C132.764 328.096 131.836 324.003 131.526 319.752C130.134 305.268 133.693 290.469 141.275 278.189C142.203 276.614 143.132 275.198 144.215 273.623C144.215 273.308 144.06 273.151 143.906 273.308Z" fill="#263238"/>
<path d="M187.388 184.672C208.839 184.672 226.228 166.275 226.228 143.581C226.228 120.887 208.839 102.49 187.388 102.49C165.938 102.49 148.549 120.887 148.549 143.581C148.549 166.275 165.938 184.672 187.388 184.672Z" fill="#263238"/>
<path d="M168.82 173.179C168.82 176.17 166.499 178.689 163.404 178.689C160.464 178.689 157.988 176.328 157.988 173.179C157.988 170.188 160.309 167.669 163.404 167.669C166.344 167.826 168.82 170.188 168.82 173.179Z" fill="#263238"/>
<path d="M225.454 164.993C225.454 167.984 223.133 170.503 220.038 170.503C217.098 170.503 214.622 168.141 214.622 164.993C214.622 162.001 216.943 159.482 220.038 159.482C223.133 159.64 225.454 162.001 225.454 164.993Z" fill="#263238"/>
<path d="M230.87 139.646C230.87 142.637 228.549 145.156 225.454 145.156C222.514 145.156 220.038 142.794 220.038 139.646C220.038 136.654 222.359 134.135 225.454 134.135C228.549 134.135 230.87 136.654 230.87 139.646Z" fill="#263238"/>
<path d="M156.595 134.607C156.595 137.599 154.274 140.118 151.18 140.118C148.239 140.118 145.764 137.756 145.764 134.607C145.764 131.616 148.085 129.097 151.18 129.097C154.12 129.255 156.595 131.616 156.595 134.607Z" fill="#263238"/>
<path d="M163.404 119.966C163.404 122.957 161.083 125.476 157.988 125.476C155.048 125.476 152.572 123.115 152.572 119.966C152.572 116.975 154.893 114.456 157.988 114.456C161.083 114.613 163.404 116.975 163.404 119.966Z" fill="#263238"/>
<path d="M169.903 113.826C169.903 116.817 167.582 119.336 164.487 119.336C161.547 119.336 159.071 116.975 159.071 113.826C159.071 110.835 161.392 108.316 164.487 108.316C167.582 108.473 169.903 110.835 169.903 113.826Z" fill="#263238"/>
<path d="M176.402 107.056C176.402 110.047 174.081 112.566 170.986 112.566C168.046 112.566 165.57 110.205 165.57 107.056C165.57 104.065 167.891 101.546 170.986 101.546C173.926 101.703 176.402 104.065 176.402 107.056Z" fill="#263238"/>
<path d="M184.757 106.112C184.757 109.103 182.436 111.622 179.342 111.622C176.402 111.622 173.926 109.26 173.926 106.112C173.926 103.12 176.247 100.601 179.342 100.601C182.436 100.759 184.757 103.12 184.757 106.112Z" fill="#263238"/>
<path d="M209.671 106.112C209.671 109.103 207.349 111.622 204.255 111.622C201.16 111.622 198.839 109.26 198.839 106.112C198.839 103.12 201.16 100.601 204.255 100.601C207.349 100.601 209.671 103.12 209.671 106.112Z" fill="#263238"/>
<path d="M216.17 122.327C219.161 122.327 221.586 119.86 221.586 116.817C221.586 113.774 219.161 111.307 216.17 111.307C213.179 111.307 210.754 113.774 210.754 116.817C210.754 119.86 213.179 122.327 216.17 122.327Z" fill="#263238"/>
<path d="M159.226 158.538C159.226 161.529 156.905 164.048 153.81 164.048C150.87 164.048 148.395 161.686 148.395 158.538C148.395 155.546 150.716 153.027 153.81 153.027C156.75 153.185 159.226 155.546 159.226 158.538Z" fill="#263238"/>
<path d="M182.901 180.421C182.901 183.413 180.58 185.932 177.485 185.932C174.39 185.932 172.069 183.57 172.069 180.421C172.069 177.43 174.39 174.911 177.485 174.911C180.58 174.911 182.901 177.43 182.901 180.421Z" fill="#263238"/>
<path d="M190.483 180.579C190.483 183.57 188.162 186.089 185.067 186.089C182.127 186.089 179.651 183.727 179.651 180.579C179.651 177.43 181.972 175.068 185.067 175.068C188.007 175.068 190.483 177.587 190.483 180.579Z" fill="#263238"/>
<path d="M156.595 150.666C156.595 153.657 154.274 156.176 151.18 156.176C148.239 156.176 145.764 153.815 145.764 150.666C145.764 147.517 148.085 145.156 151.18 145.156C154.12 145.156 156.595 147.675 156.595 150.666Z" fill="#263238"/>
<path d="M162.32 166.567C162.32 169.243 160.154 171.448 157.523 171.448C154.893 171.448 152.727 169.243 152.727 166.567C152.727 163.891 154.893 161.687 157.523 161.687C160.154 161.687 162.32 163.891 162.32 166.567Z" fill="#263238"/>
<path d="M192.649 103.435C192.649 106.112 190.483 108.316 187.853 108.316C185.222 108.316 183.056 106.112 183.056 103.435C183.056 100.759 185.222 98.5547 187.853 98.5547C190.483 98.5547 192.649 100.759 192.649 103.435Z" fill="#263238"/>
<path d="M155.977 142.637C155.977 145.313 153.81 147.517 151.18 147.517C148.549 147.517 146.383 145.313 146.383 142.637C146.383 139.96 148.549 137.756 151.18 137.756C153.81 137.756 155.977 139.96 155.977 142.637Z" fill="#263238"/>
<path d="M158.762 127.208C158.762 129.884 156.595 132.088 153.965 132.088C151.334 132.088 149.168 129.884 149.168 127.208C149.168 124.532 151.334 122.327 153.965 122.327C156.595 122.327 158.762 124.532 158.762 127.208Z" fill="#263238"/>
<path d="M200.541 104.065C200.541 106.741 198.375 108.945 195.744 108.945C193.114 108.945 190.947 106.741 190.947 104.065C190.947 101.388 193.114 99.1843 195.744 99.1843C198.375 99.1843 200.541 101.388 200.541 104.065Z" fill="#263238"/>
<path d="M175.318 177.43C175.318 180.106 173.152 182.311 170.521 182.311C167.891 182.311 165.725 180.106 165.725 177.43C165.725 174.754 167.891 172.55 170.521 172.55C173.152 172.55 175.318 174.754 175.318 177.43Z" fill="#263238"/>
<path d="M197.601 182.468C197.601 185.144 195.434 187.349 192.804 187.349C190.173 187.349 188.007 185.144 188.007 182.468C188.007 179.792 190.173 177.588 192.804 177.588C195.434 177.43 197.601 179.634 197.601 182.468Z" fill="#263238"/>
<path d="M206.267 180.579C206.267 183.255 204.1 185.459 201.47 185.459C198.839 185.459 196.673 183.255 196.673 180.579C196.673 177.902 198.839 175.698 201.47 175.698C204.1 175.541 206.267 177.745 206.267 180.579Z" fill="#263238"/>
<path d="M213.075 175.541C213.075 178.217 210.909 180.421 208.278 180.421C205.648 180.421 203.481 178.217 203.481 175.541C203.481 172.864 205.648 170.66 208.278 170.66C210.909 170.66 213.075 172.864 213.075 175.541Z" fill="#263238"/>
<path d="M220.967 172.235C220.967 174.911 218.8 177.115 216.17 177.115C213.539 177.115 211.373 174.911 211.373 172.235C211.373 169.558 213.539 167.354 216.17 167.354C218.8 167.197 220.967 169.401 220.967 172.235Z" fill="#263238"/>
<path d="M229.632 158.065C229.632 160.742 227.466 162.946 224.835 162.946C222.204 162.946 220.038 160.742 220.038 158.065C220.038 155.389 222.204 153.185 224.835 153.185C227.466 153.185 229.632 155.389 229.632 158.065Z" fill="#263238"/>
<path d="M229.632 148.934C229.632 151.611 227.466 153.815 224.835 153.815C222.204 153.815 220.038 151.611 220.038 148.934C220.038 146.258 222.204 144.054 224.835 144.054C227.466 144.054 229.632 146.258 229.632 148.934Z" fill="#263238"/>
<path d="M211.218 114.456C213.867 114.456 216.015 112.271 216.015 109.575C216.015 106.88 213.867 104.695 211.218 104.695C208.569 104.695 206.421 106.88 206.421 109.575C206.421 112.271 208.569 114.456 211.218 114.456Z" fill="#263238"/>
<path d="M222.514 127.995C225.163 127.995 227.311 125.81 227.311 123.115C227.311 120.419 225.163 118.234 222.514 118.234C219.864 118.234 217.717 120.419 217.717 123.115C217.717 125.81 219.864 127.995 222.514 127.995Z" fill="#263238"/>
<path d="M228.394 130.986C228.394 133.663 226.227 135.867 223.597 135.867C220.966 135.867 218.8 133.663 218.8 130.986C218.8 128.31 220.966 126.106 223.597 126.106C226.227 125.948 228.394 128.31 228.394 130.986Z" fill="#263238"/>
<path d="M193.268 195.378C197.755 205.611 230.095 238.515 257.175 249.221C267.078 253.157 310.405 243.71 320.772 239.46C332.842 234.579 325.569 204.037 317.987 203.879C308.393 203.722 267.387 212.696 258.567 212.223C247.89 211.751 223.751 194.59 202.862 185.774C192.185 181.208 189.709 187.506 193.268 195.378Z" fill="#AD6359"/>
<path d="M320.772 239.46C324.64 238.2 341.971 230.486 346.149 227.18C350.482 223.873 362.242 213.64 360.23 210.019C358.064 206.398 354.505 209.075 354.505 209.075C354.505 209.075 358.838 203.879 356.362 200.573C353.886 197.109 348.315 201.518 348.315 201.518C348.315 201.518 352.339 196.007 349.708 192.701C347.078 189.395 342.126 194.905 342.126 194.905C342.126 194.905 345.994 190.025 342.745 188.293C338.722 186.246 332.532 196.165 327.426 199.313C326.343 200.101 303.132 212.381 303.132 212.381L320.772 239.46Z" fill="#AD6359"/>
<path d="M342.436 194.433C337.794 201.675 334.544 204.036 326.962 207.657C326.807 207.657 326.807 207.972 327.117 207.972C334.854 205.139 339.341 202.777 342.9 194.59C343.055 194.275 342.745 194.118 342.436 194.433Z" fill="#263238"/>
<path d="M348.625 201.045C343.209 208.13 339.65 210.806 332.068 215.214C331.913 215.214 332.068 215.529 332.223 215.372C340.114 211.751 344.602 209.232 349.089 201.36C349.089 201.045 348.78 200.73 348.625 201.045Z" fill="#263238"/>
<path d="M354.041 209.389C348.316 216.001 344.602 218.993 336.556 222.299C336.401 222.299 336.401 222.614 336.71 222.614C345.221 220.095 349.863 216.316 354.196 209.704C354.505 209.232 354.351 209.074 354.041 209.389Z" fill="#263238"/>
<path d="M296.014 212.853C296.014 212.853 302.977 204.509 306.691 201.675C310.559 198.684 328.818 193.016 330.211 196.952C332.068 201.99 322.164 207.5 316.903 209.389C316.903 209.389 321.236 221.197 314.892 226.55C308.857 231.903 296.014 212.853 296.014 212.853Z" fill="#AD6359"/>
<path d="M330.366 198.526C328.818 204.351 321.855 206.556 316.903 208.917C316.594 209.074 316.594 209.389 316.749 209.704C318.141 214.742 318.915 222.299 315.356 226.707C315.201 226.865 315.356 227.022 315.511 226.865C319.843 222.771 319.843 215.214 317.832 209.862C322.938 207.343 329.901 204.981 330.366 198.526C330.366 198.369 330.366 198.369 330.366 198.526Z" fill="#263238"/>
<path d="M222.823 232.847L241.546 203.879C241.546 203.879 218.954 190.812 206.266 185.774C193.577 180.736 183.21 184.672 195.434 201.832C205.647 216.474 222.823 232.847 222.823 232.847Z" fill="#263238"/>
<path d="M220.038 255.361L220.502 296.294C220.502 296.294 139.729 287.32 122.553 283.069C122.553 283.069 152.881 215.529 178.568 187.663C190.019 177.902 201.005 183.413 207.814 191.284C209.516 193.174 227.156 224.976 227.62 236.154C227.775 245.915 220.038 255.361 220.038 255.361Z" fill="#AFA369"/>
<path d="M188.162 185.932C188.472 187.506 195.899 197.424 202.862 196.952C205.183 196.795 204.874 184.2 204.874 184.2L205.029 183.255L207.659 170.188L192.495 160.584L190.329 159.325C190.329 159.325 189.864 162.946 189.245 167.512C189.245 167.669 189.245 167.984 189.091 168.141C189.091 168.456 188.936 168.614 188.936 168.929C188.781 169.558 188.781 170.345 188.626 170.975C188.626 171.448 188.472 172.077 188.472 172.55C188.472 173.179 188.317 173.652 188.317 174.124C188.007 179.634 188.007 185.302 188.162 185.932Z" fill="#AD6359"/>
<path d="M189.4 167.512C193.269 177.902 201.47 181.996 205.184 183.255L207.814 170.188L192.65 160.584L190.484 159.325C190.484 159.325 189.865 162.946 189.4 167.512Z" fill="#263238"/>
<path d="M224.99 149.092C227.466 172.392 214.004 176.485 209.052 177.115C204.565 177.587 189.245 178.69 184.449 155.704C179.652 132.718 189.555 124.217 199.768 122.642C209.826 120.911 222.514 125.791 224.99 149.092Z" fill="#AD6359"/>
<path d="M220.348 145.943C219.729 145.943 219.265 145.786 218.801 145.628C218.182 145.471 217.718 145.471 217.254 144.998C216.944 144.684 216.944 144.211 217.254 144.054C217.718 143.424 218.492 143.424 219.265 143.424C220.039 143.582 220.658 143.896 221.122 144.369C221.586 145.156 221.122 145.943 220.348 145.943Z" fill="#263238"/>
<path d="M204.41 147.045C204.874 146.888 205.493 146.73 205.957 146.73C206.576 146.573 207.041 146.573 207.505 146.101C207.66 145.786 207.66 145.313 207.505 145.156C207.041 144.526 206.267 144.526 205.493 144.684C204.72 144.841 204.101 145.156 203.636 145.786C203.017 146.258 203.636 147.203 204.41 147.045Z" fill="#263238"/>
<path d="M207.659 152.87C207.504 152.87 207.659 152.713 207.659 152.87C207.659 154.602 207.659 156.491 206.267 157.121V157.278C207.969 156.806 208.123 154.287 207.659 152.87Z" fill="#263238"/>
<path d="M206.266 151.296C203.791 151.296 203.791 156.334 206.112 156.491C208.433 156.491 208.278 151.296 206.266 151.296Z" fill="#263238"/>
<path d="M205.184 151.611C204.719 151.926 204.255 152.398 203.791 152.555C203.172 152.555 202.708 152.083 202.244 151.611H202.089C202.089 152.555 202.553 153.657 203.482 153.657C204.41 153.815 205.029 152.87 205.338 151.926C205.493 151.768 205.338 151.453 205.184 151.611Z" fill="#263238"/>
<path d="M217.563 151.926C217.718 153.657 217.873 155.547 219.265 156.019V156.176C217.563 155.862 217.254 153.343 217.563 151.926Z" fill="#263238"/>
<path d="M218.956 150.194C221.432 150.036 221.742 155.074 219.421 155.389C217.099 155.547 216.79 150.351 218.956 150.194Z" fill="#263238"/>
<path d="M220.039 150.509C220.503 150.824 220.813 151.296 221.277 151.296C221.896 151.296 222.205 150.666 222.515 150.194C222.515 150.194 222.515 150.194 222.67 150.194C222.824 151.138 222.515 152.241 221.586 152.398C220.813 152.555 220.039 151.768 219.729 150.824C219.729 150.666 219.729 150.351 220.039 150.509Z" fill="#263238"/>
<path d="M208.743 165.15C209.052 165.465 209.516 166.095 209.981 166.095C210.599 166.095 211.218 165.937 211.683 165.78C211.683 165.78 211.837 165.78 211.683 165.937C211.218 166.567 210.445 166.882 209.671 166.725C209.052 166.41 208.743 165.78 208.743 165.15C208.743 164.993 208.588 164.993 208.743 165.15Z" fill="#263238"/>
<path d="M215.087 159.01C215.087 159.01 215.551 161.372 215.551 162.474C215.551 162.631 215.242 162.631 214.932 162.631C212.921 162.946 211.064 162.316 209.826 160.742C209.671 160.585 209.826 160.585 209.981 160.585C211.528 161.687 213.075 161.844 214.777 161.844C214.777 161.529 214.004 157.751 214.158 157.751C214.777 157.751 216.015 158.066 216.634 158.223C216.015 153.185 214.468 148.462 213.849 143.424C213.849 143.267 214.004 143.109 214.158 143.267C216.015 148.147 216.944 153.972 217.872 159.01C217.872 159.955 215.551 159.325 215.087 159.01Z" fill="#263238"/>
<path d="M186.925 157.121C190.948 158.853 189.091 151.926 189.091 151.926C189.091 151.926 192.495 149.879 190.793 144.841C190.793 144.841 195.59 146.258 196.054 139.331C196.054 139.331 200.232 139.016 199.768 134.293C199.768 134.293 205.338 137.441 207.659 132.089C207.659 132.089 211.683 136.654 214.932 132.089C214.932 132.089 216.634 135.237 219.884 134.135C219.884 134.135 220.503 137.441 222.824 138.543C222.824 138.543 216.015 114.613 194.816 122.957C175.164 130.987 182.282 155.074 186.925 157.121Z" fill="#263238"/>
<path d="M188.317 157.751C188.317 157.751 183.21 150.509 179.961 152.398C176.711 154.287 180.735 164.835 184.603 166.252C188.472 167.669 189.709 164.048 189.709 164.048L188.317 157.751Z" fill="#AD6359"/>
<path d="M181.199 155.389C183.829 156.491 185.377 159.01 186.46 161.687C185.686 160.742 184.603 160.112 183.21 161.214V161.372C184.293 161.057 185.067 161.214 185.841 162.159C186.305 162.789 186.769 163.576 187.079 164.363C187.233 164.678 187.698 164.52 187.543 164.206C187.698 160.427 184.912 155.704 181.199 155.389Z" fill="#263238"/>
<path d="M462.204 164.048L462.513 295.507C462.513 302.906 456.633 308.889 449.515 308.889L244.487 309.519C237.214 309.519 231.334 303.536 231.334 296.294L231.024 164.835C231.024 158.065 236.44 152.398 243.094 152.398L449.825 151.925C456.788 151.768 462.204 157.278 462.204 164.048Z" fill="#AFA369"/>
<path opacity="0.2" d="M462.204 164.048L462.513 295.507C462.513 302.906 456.633 308.889 449.515 308.889L244.487 309.519C237.214 309.519 231.334 303.536 231.334 296.294L231.024 164.835C231.024 158.065 236.44 152.398 243.094 152.398L449.825 151.925C456.788 151.768 462.204 157.278 462.204 164.048Z" fill="black"/>
<path d="M287.504 205.296L257.175 205.454C253.616 205.454 250.676 202.462 250.676 198.841V181.523C250.676 177.902 253.616 174.911 257.175 174.911L287.504 174.754C291.063 174.754 294.003 177.745 294.003 181.366V198.684C294.003 202.305 291.063 205.296 287.504 205.296Z" fill="#AFA369"/>
<path d="M249.129 233.162L247.427 234.264H247.272C247.117 234.264 246.963 234.107 246.963 234.107C246.808 233.792 246.963 233.634 247.117 233.477L249.593 231.903C249.748 231.745 250.057 231.903 250.212 232.06C250.212 232.217 250.212 232.217 250.212 232.375V244.183C250.212 244.497 250.057 244.655 249.748 244.655C249.438 244.655 249.284 244.497 249.284 244.183L249.129 233.162Z" fill="#F8F8F8"/>
<path d="M253.152 243.868L259.032 238.515C259.806 237.885 260.115 236.941 260.115 235.996C260.115 235.209 259.806 234.422 259.187 233.792C258.568 233.005 257.64 232.69 256.866 232.69C256.092 232.69 255.319 233.005 254.7 233.477L254.081 234.107C253.926 234.264 253.616 234.264 253.462 234.107C253.307 233.949 253.307 233.635 253.462 233.477L254.081 232.847C254.854 232.06 255.937 231.745 256.866 231.745C257.949 231.745 259.032 232.218 259.961 233.162C260.734 233.949 261.044 234.894 261.044 235.996C261.044 237.098 260.58 238.2 259.651 239.145L254.7 243.71H260.58C260.889 243.71 261.044 243.868 261.044 244.183C261.044 244.498 260.889 244.655 260.58 244.655H253.616C253.462 244.655 253.307 244.655 253.307 244.498C252.843 244.34 252.843 244.025 253.152 243.868Z" fill="#F8F8F8"/>
<path d="M271.256 232.69L268.007 236.153C268.781 236.311 269.554 236.626 270.173 237.255C270.947 238.043 271.411 239.145 271.411 240.404C271.411 241.506 270.947 242.608 270.173 243.553C269.4 244.34 268.316 244.812 267.079 244.812C265.995 244.812 264.912 244.34 264.139 243.553C263.984 243.395 263.984 243.081 264.139 242.923C264.293 242.766 264.603 242.766 264.757 242.923C265.376 243.553 266.305 243.868 267.079 243.868C268.007 243.868 268.781 243.553 269.4 242.923C270.019 242.293 270.328 241.349 270.328 240.562C270.328 239.617 270.019 238.83 269.4 238.2C268.781 237.57 267.852 237.255 267.079 237.255C266.924 237.255 266.769 237.255 266.769 237.098C266.614 236.941 266.614 236.626 266.769 236.468L269.864 233.162H265.067C264.757 233.162 264.603 233.005 264.603 232.69C264.603 232.375 264.757 232.218 265.067 232.218H270.947C271.256 232.218 271.411 232.375 271.411 232.69C271.411 232.375 271.411 232.375 271.256 232.69C271.411 232.532 271.256 232.532 271.256 232.69Z" fill="#F8F8F8"/>
<path d="M281.933 241.979H275.125C274.97 241.979 274.97 241.979 274.815 241.821C274.661 241.664 274.661 241.349 274.815 241.191L282.088 231.903C282.243 231.745 282.552 231.745 282.707 231.903L282.862 232.06V240.877H283.635C283.945 240.877 284.1 241.034 284.1 241.349C284.1 241.664 283.945 241.821 283.635 241.821H282.862V244.025C282.862 244.34 282.707 244.498 282.397 244.498C282.088 244.498 281.933 244.34 281.933 244.025V241.979ZM281.933 241.034V233.477L276.053 241.034H281.933Z" fill="#F8F8F8"/>
<path d="M297.716 243.238C297.562 243.081 297.562 242.766 297.716 242.608C297.871 242.451 298.18 242.451 298.335 242.608C298.954 243.238 299.883 243.553 300.656 243.553C301.585 243.553 302.358 243.238 302.977 242.608C303.596 241.979 303.906 241.034 303.906 240.247C303.906 239.302 303.596 238.515 302.977 237.885C302.358 237.256 301.43 236.941 300.656 236.941C299.728 236.941 298.954 237.256 298.335 237.885C298.18 238.043 297.871 238.043 297.716 237.885L297.562 237.728V237.57C297.562 237.57 297.562 237.57 297.562 237.413L298.18 232.218C298.18 232.06 298.18 231.903 298.335 231.903C298.335 231.903 298.49 231.745 298.645 231.745H304.525C304.834 231.745 304.989 231.903 304.989 232.218C304.989 232.533 304.834 232.69 304.525 232.69H299.109L298.645 236.468C299.264 236.154 300.037 235.839 300.811 235.839C301.894 235.839 302.977 236.311 303.751 237.098C304.525 237.885 304.989 238.987 304.989 240.247C304.989 241.349 304.525 242.451 303.751 243.396C302.977 244.183 301.739 244.655 300.656 244.655C299.573 244.498 298.49 244.183 297.716 243.238Z" fill="#F8F8F8"/>
<path d="M309.632 234.579C310.56 233.005 311.953 231.903 313.965 231.745C314.274 231.745 314.429 231.903 314.429 232.218C314.429 232.533 314.274 232.69 313.965 232.69C312.262 232.69 311.025 233.635 310.251 235.052C309.787 235.839 309.477 236.626 309.322 237.57C310.096 236.626 311.179 236.154 312.417 236.154C314.738 236.154 316.595 238.043 316.595 240.404C316.595 242.766 314.738 244.655 312.417 244.655C310.096 244.655 308.394 242.923 308.239 240.562C308.239 240.247 308.239 240.089 308.239 239.775C308.394 237.885 308.703 235.996 309.632 234.579ZM309.322 240.404C309.322 240.562 309.322 240.562 309.322 240.719V240.877C309.477 242.451 310.87 243.71 312.572 243.71C314.429 243.71 315.821 242.136 315.821 240.404C315.821 238.515 314.274 237.098 312.572 237.098C310.715 236.941 309.322 238.515 309.322 240.404Z" fill="#F8F8F8"/>
<path d="M321.392 243.868L326.034 232.69H319.999C319.69 232.69 319.535 232.533 319.535 232.218C319.535 231.903 319.69 231.745 319.999 231.745H326.653C326.808 231.745 326.808 231.745 326.963 231.745C327.117 231.745 327.117 231.903 327.272 232.06V232.218C327.272 232.375 327.272 232.375 327.272 232.533L322.475 244.34C322.475 244.498 322.166 244.655 322.011 244.655H321.856C321.392 244.34 321.237 244.183 321.392 243.868Z" fill="#F8F8F8"/>
<path d="M333.771 231.745C335.164 231.745 336.402 233.005 336.402 234.422C336.402 235.366 335.938 236.154 335.319 236.626C336.866 237.256 337.794 238.673 337.794 240.404C337.794 242.766 335.938 244.498 333.771 244.498C331.45 244.498 329.748 242.608 329.748 240.404C329.748 238.673 330.831 237.256 332.224 236.626C331.605 236.154 331.141 235.366 331.141 234.422C331.141 232.847 332.224 231.745 333.771 231.745ZM333.771 243.553C335.628 243.553 337.021 242.136 337.021 240.247C337.021 238.515 335.628 236.941 333.771 236.941C332.069 236.941 330.522 238.358 330.522 240.247C330.522 242.136 332.069 243.553 333.771 243.553ZM333.771 236.154C334.7 236.154 335.473 235.366 335.473 234.264C335.473 233.32 334.7 232.533 333.771 232.533C332.843 232.533 332.069 233.32 332.069 234.264C332.069 235.366 332.843 236.154 333.771 236.154Z" fill="#F8F8F8"/>
<path d="M356.053 231.588C358.22 231.588 359.922 233.162 360.231 235.366C360.231 235.366 360.231 235.366 360.231 235.524C360.231 235.839 360.231 236.311 360.231 236.626C360.231 238.358 359.922 240.247 358.994 241.664C358.065 243.238 356.672 244.34 354.661 244.498C354.351 244.498 354.197 244.34 354.197 244.025C354.197 243.71 354.351 243.553 354.661 243.553C356.363 243.553 357.601 242.608 358.375 241.191C358.839 240.404 359.148 239.617 359.303 238.673C358.529 239.617 357.446 240.089 356.208 240.089C353.887 240.089 352.03 238.2 352.03 235.839C352.03 233.477 353.887 231.588 356.053 231.588ZM359.458 235.839C359.458 233.949 358.065 232.532 356.208 232.532C354.351 232.532 352.959 233.949 352.959 235.839C352.959 237.728 354.506 239.145 356.208 239.145C357.91 239.145 359.458 237.728 359.458 235.839Z" fill="#F8F8F8"/>
<path d="M363.48 238.043C363.48 236.311 363.945 234.737 364.718 233.635C365.492 232.533 366.575 231.745 367.813 231.745C369.051 231.745 370.134 232.533 370.908 233.635C371.682 234.894 372.146 236.468 372.146 238.043C372.146 239.775 371.682 241.349 370.908 242.451C370.134 243.553 369.051 244.34 367.813 244.34C366.575 244.34 365.492 243.553 364.718 242.451C363.945 241.349 363.48 239.775 363.48 238.043ZM364.409 238.043C364.409 239.617 364.873 241.034 365.492 241.979C366.111 242.923 367.039 243.553 367.968 243.553C368.896 243.553 369.67 242.923 370.444 241.979C371.063 241.034 371.527 239.617 371.527 238.043C371.527 236.468 371.063 235.052 370.444 234.107C369.825 233.162 368.896 232.533 367.968 232.533C367.039 232.533 366.266 233.005 365.492 234.107C364.718 235.052 364.409 236.468 364.409 238.043Z" fill="#F8F8F8"/>
<path d="M378.026 232.847L376.324 233.949H376.169C376.015 233.949 375.86 233.792 375.86 233.792C375.705 233.477 375.86 233.32 376.015 233.162L378.491 231.588C378.645 231.43 378.955 231.588 379.11 231.745C379.11 231.903 379.11 231.903 379.11 232.06V243.868C379.11 244.183 378.955 244.34 378.645 244.34C378.336 244.34 378.181 244.183 378.181 243.868L378.026 232.847Z" fill="#F8F8F8"/>
<path d="M382.049 243.553L387.929 238.2C388.702 237.57 389.012 236.626 389.012 235.681C389.012 234.894 388.702 234.107 388.084 233.477C387.465 232.69 386.536 232.375 385.762 232.375C384.989 232.375 384.215 232.69 383.596 233.162L382.977 233.792C382.822 233.949 382.513 233.949 382.358 233.792C382.203 233.635 382.203 233.32 382.358 233.162L382.977 232.532C383.751 231.745 384.834 231.43 385.762 231.43C386.846 231.43 387.929 231.903 388.857 232.847C389.631 233.635 389.94 234.579 389.94 235.681C389.94 236.783 389.476 237.885 388.548 238.83L383.596 243.396H389.476C389.786 243.396 389.94 243.553 389.94 243.868C389.94 244.183 389.786 244.34 389.476 244.34H382.513C382.358 244.34 382.203 244.34 382.203 244.183C381.739 244.025 381.739 243.71 382.049 243.553Z" fill="#F8F8F8"/>
<path d="M410.986 232.218L407.736 235.681C408.51 235.839 409.283 236.154 409.902 236.783C410.676 237.57 411.14 238.673 411.14 239.932C411.14 241.034 410.676 242.136 409.902 243.081C409.129 243.868 408.045 244.34 406.962 244.34C405.879 244.34 404.796 243.868 404.022 243.081C403.868 242.923 403.868 242.608 404.022 242.451C404.177 242.294 404.487 242.294 404.641 242.451C405.26 243.081 406.189 243.396 406.962 243.396C407.891 243.396 408.664 243.081 409.283 242.451C409.902 241.821 410.212 240.877 410.212 240.089C410.212 239.145 409.902 238.358 409.283 237.728C408.664 237.098 407.736 236.783 406.962 236.783C406.808 236.783 406.653 236.783 406.653 236.626C406.498 236.468 406.498 236.154 406.653 235.996L409.748 232.69H404.951C404.641 232.69 404.487 232.533 404.487 232.218C404.487 231.903 404.641 231.745 404.951 231.745H410.831C411.14 231.745 411.295 231.903 411.295 232.218C411.14 232.06 411.14 232.06 410.986 232.218Z" fill="#F8F8F8"/>
<path d="M421.507 241.664H414.699C414.544 241.664 414.544 241.664 414.389 241.506C414.235 241.349 414.235 241.034 414.389 240.877L421.662 231.588C421.817 231.43 422.126 231.43 422.281 231.588L422.436 231.745V240.562H423.21C423.519 240.562 423.674 240.719 423.674 241.034C423.674 241.349 423.519 241.506 423.21 241.506H422.436V243.71C422.436 244.025 422.281 244.183 421.972 244.183C421.662 244.183 421.507 244.025 421.507 243.71V241.664ZM421.507 240.719V233.162L415.627 240.719H421.507Z" fill="#F8F8F8"/>
<path d="M426.614 242.923C426.459 242.766 426.459 242.451 426.614 242.293C426.768 242.136 427.078 242.136 427.233 242.293C427.852 242.923 428.78 243.238 429.554 243.238C430.482 243.238 431.256 242.923 431.875 242.293C432.494 241.664 432.803 240.719 432.803 239.932C432.803 238.987 432.494 238.2 431.875 237.57C431.256 236.941 430.327 236.626 429.554 236.626C428.625 236.626 427.852 236.941 427.233 237.57C427.078 237.728 426.768 237.728 426.614 237.57L426.459 237.413V237.256C426.459 237.256 426.459 237.256 426.459 237.098L427.078 231.903C427.078 231.745 427.078 231.588 427.233 231.588C427.233 231.588 427.387 231.43 427.542 231.43H433.422C433.732 231.43 433.886 231.588 433.886 231.903C433.886 232.218 433.732 232.375 433.422 232.375H428.006L427.542 236.153C428.161 235.839 428.935 235.524 429.708 235.524C430.792 235.524 431.875 235.996 432.649 236.783C433.422 237.57 433.886 238.672 433.886 239.932C433.886 241.034 433.422 242.136 432.649 243.081C431.875 243.868 430.637 244.34 429.554 244.34C428.471 244.183 427.387 243.868 426.614 242.923Z" fill="#F8F8F8"/>
<path d="M438.528 234.264C439.457 232.69 440.849 231.588 442.861 231.43C443.171 231.43 443.325 231.588 443.325 231.903C443.325 232.218 443.171 232.375 442.861 232.375C441.159 232.375 439.921 233.32 439.147 234.737C438.683 235.524 438.374 236.311 438.219 237.256C438.993 236.311 440.076 235.839 441.314 235.839C443.635 235.839 445.492 237.728 445.492 240.089C445.492 242.451 443.635 244.34 441.314 244.34C438.993 244.34 437.29 242.608 437.136 240.247C437.136 239.932 437.136 239.775 437.136 239.46C437.29 237.57 437.6 235.681 438.528 234.264ZM438.219 240.089C438.219 240.247 438.219 240.247 438.219 240.404V240.562C438.374 242.136 439.766 243.396 441.468 243.396C443.325 243.396 444.718 241.821 444.718 240.089C444.718 238.2 443.171 236.783 441.468 236.783C439.612 236.626 438.219 238.2 438.219 240.089Z" fill="#F8F8F8"/>
<path d="M360.535 266.395L250.825 266.684L250.839 272.195L360.549 271.905L360.535 266.395Z" fill="#37474F"/>
<path d="M328.504 278.717L250.825 278.922L250.839 284.432L328.518 284.227L328.504 278.717Z" fill="#37474F"/>
<path d="M400.148 174.525L345.37 174.669L345.384 180.179L400.162 180.035L400.148 174.525Z" fill="#37474F"/>
<path d="M440.076 197.897C439.767 197.582 439.457 197.267 438.993 196.795C438.838 196.637 438.529 196.322 438.374 196.165C441.005 193.331 442.552 190.025 442.552 186.089C442.552 182.153 441.159 178.847 438.374 176.013C438.529 175.856 438.838 175.698 438.993 175.383C439.302 175.068 439.612 174.754 440.076 174.281C440.386 174.754 440.85 175.226 441.159 175.541C441.933 176.485 442.552 177.587 443.016 178.532C443.635 179.792 444.099 181.208 444.409 182.625C444.564 183.255 444.564 184.042 444.718 184.672C444.718 184.829 444.718 186.404 444.718 186.404C444.718 186.876 444.718 187.348 444.564 187.821C444.409 189.08 444.099 190.34 443.635 191.599C443.326 192.544 442.861 193.331 442.552 194.118C442.088 194.905 441.469 195.85 440.85 196.48C440.85 197.267 440.54 197.582 440.076 197.897C440.231 197.897 440.231 197.897 440.076 197.897Z" fill="white"/>
<path d="M435.28 179.477C435.744 178.847 436.363 178.375 436.827 177.745C438.684 179.634 439.767 181.838 440.077 184.515C440.541 188.45 439.458 191.757 436.827 194.59C436.208 193.961 435.744 193.488 435.125 192.859C436.982 190.969 437.91 188.765 437.91 186.089C438.065 183.57 437.137 181.366 435.28 179.477Z" fill="white"/>
<path d="M433.732 191.284C433.268 190.812 432.649 190.182 432.185 189.71C433.113 188.765 433.577 187.663 433.577 186.246C433.577 184.83 433.113 183.727 432.185 182.783C432.649 182.153 433.268 181.681 433.732 181.208C436.363 183.727 436.517 188.451 433.732 191.284Z" fill="white"/>
<path d="M175.01 205.768C173.462 229.384 173.462 277.874 184.294 291.414C198.375 309.361 236.596 319.122 247.892 322.114C252.843 323.373 263.056 290.626 260.116 286.061C257.021 281.495 217.718 272.994 214.468 270.317C211.219 267.798 199.458 223.874 194.043 204.509C187.234 180.264 176.402 185.774 175.01 205.768Z" fill="#AD6359"/>
<path d="M235.513 317.705C248.665 324.318 264.758 333.291 281.315 332.032C284.565 331.717 286.267 329.985 286.267 329.985C293.694 329.513 295.706 325.892 295.706 325.892C302.514 323.373 304.062 319.28 304.062 319.28C304.062 319.28 312.727 318.65 313.346 313.297C313.965 307.157 301.586 309.204 294.159 306.213C276.983 299.128 254.7 284.014 249.903 281.495L235.513 317.705Z" fill="#AD6359"/>
<path d="M271.103 311.565C276.209 313.612 281.161 315.659 286.422 316.918C292.302 318.335 298.182 318.65 304.062 319.122C304.217 319.122 304.217 319.437 304.062 319.437C293.076 320.224 280.542 317.076 270.948 311.723C270.639 311.565 270.793 311.408 271.103 311.565Z" fill="#263238"/>
<path d="M265.377 321.484C270.484 323.216 279.304 326.05 295.861 325.892V326.05C285.184 327.624 275.126 326.05 265.223 321.799C264.913 321.484 264.913 321.326 265.377 321.484Z" fill="#263238"/>
<path d="M262.282 326.837C270.948 329.356 276.828 329.828 286.267 330.143V330.3C275.435 331.087 271.412 330.143 262.128 327.151C261.818 326.994 261.973 326.679 262.282 326.837Z" fill="#263238"/>
<path d="M274.043 296.294C272.186 294.405 273.114 293.46 277.756 293.933C282.398 294.405 300.039 300.23 301.586 293.775C303.133 287.32 277.911 279.448 270.174 279.291C262.437 279.134 249.903 281.653 249.903 281.653C254.545 284.014 265.068 291.256 274.043 296.294Z" fill="#AD6359"/>
<path d="M172.224 242.766L205.493 235.366C205.493 235.366 198.375 210.019 192.959 197.267C187.389 184.672 177.331 180.106 174.081 200.888C171.141 218.836 172.224 242.766 172.224 242.766Z" fill="#263238"/>
<path d="M471.488 630.058H606.42L586.614 490.413H491.14L471.488 630.058Z" fill="#AFA369"/>
<path opacity="0.1" d="M491.14 490.413L506.15 630.058H471.488L491.14 490.413Z" fill="#263238"/>
<path d="M559.071 500.174C559.071 500.016 556.595 488.366 553.964 476.558C551.798 466.64 542.204 462.074 534.158 463.491C531.372 463.963 522.088 466.482 523.326 478.447C524.719 492.302 525.802 499.072 525.802 499.072L520.077 500.016C520.077 499.701 518.993 493.089 517.601 479.077C516.518 467.899 522.707 459.398 533.229 457.666C543.906 455.934 556.75 462.074 559.535 475.299C562.165 487.106 564.641 498.914 564.641 499.072L559.071 500.174Z" fill="#263238"/>
<path d="M504.293 629.113C501.198 627.697 498.258 626.122 495.164 624.39C492.224 622.816 489.284 621.084 486.344 619.352H487.117C484.796 621.084 482.475 622.816 480.154 624.39C477.833 625.965 475.357 627.697 473.036 629.113C475.202 627.224 477.369 625.335 479.535 623.603C481.701 621.714 484.023 619.982 486.344 618.25L486.653 617.936L487.117 618.093C490.057 619.825 492.997 621.557 495.783 623.446C498.723 625.178 501.508 627.067 504.293 629.113Z" fill="white"/>
<path d="M486.808 618.723C486.808 609.749 486.962 600.933 487.117 591.959C487.272 582.985 487.581 574.169 487.891 565.195C488.2 556.221 488.51 547.404 488.974 538.431L489.593 525.049C489.902 520.64 490.057 516.075 490.367 511.667C490.367 516.075 490.367 520.64 490.212 525.049L489.902 538.431C489.748 547.404 489.438 556.221 489.129 565.195C488.819 574.169 488.51 582.985 488.046 591.959C487.736 600.933 487.272 609.749 486.808 618.723Z" fill="white"/>
<path d="M556.13 499.544C556.13 502.693 558.76 505.369 561.855 505.369C564.95 505.369 567.581 502.693 567.581 499.544C567.581 496.395 564.95 493.719 561.855 493.719C558.76 493.719 556.13 496.395 556.13 499.544Z" fill="#263238"/>
<path d="M517.601 499.544C517.601 502.693 520.231 505.369 523.326 505.369C526.421 505.369 529.051 502.693 529.051 499.544C529.051 496.395 526.421 493.719 523.326 493.719C520.231 493.719 517.601 496.395 517.601 499.544Z" fill="#263238"/>
<path d="M566.653 307.787C564.022 305.111 561.391 302.434 558.761 299.758C557.213 298.183 555.821 296.766 554.273 295.192C574.854 273.623 585.84 247.961 585.84 217.891C585.84 187.821 574.854 162.159 554.273 140.433C555.666 139.016 557.213 137.599 558.761 136.025C561.391 133.348 564.022 130.829 566.653 128.153C566.653 128.153 566.807 127.995 566.807 127.838H566.962C567.117 127.995 567.271 128.31 567.426 128.468C570.366 131.774 573.461 135.08 576.246 138.544C582.126 145.786 586.923 153.657 590.946 162.001C595.743 171.92 599.302 182.311 601.159 193.174C602.088 198.369 602.552 203.565 603.171 208.76C603.325 210.492 603.48 221.984 603.325 222.299C603.016 225.763 602.861 229.384 602.552 232.848C601.469 242.609 599.148 252.055 595.898 261.343C593.422 267.956 590.482 274.411 587.078 280.708C583.364 287.163 579.186 293.46 574.389 299.128C571.914 301.962 569.438 304.796 566.962 307.63C566.807 307.787 566.807 307.787 566.653 307.787Z" fill="#AFA369"/>
<path d="M529.67 166.095C533.848 161.844 537.871 157.751 542.049 153.343C555.975 167.827 564.796 184.83 567.426 204.981C571.449 234.894 562.474 260.714 542.204 282.597C538.026 278.347 533.848 274.096 529.825 269.845C543.442 255.518 550.869 238.2 550.869 218.049C550.714 197.739 543.442 180.579 529.67 166.095Z" fill="#AFA369"/>
<path d="M517.136 257.093C512.958 252.842 508.935 248.749 504.757 244.498C511.72 237.256 515.589 228.282 515.589 217.891C515.589 207.5 511.72 198.684 504.757 191.285C508.935 187.034 512.958 182.94 517.136 178.69C537.716 198.841 539.418 234.894 517.136 257.093Z" fill="#AFA369"/>
</g>
<defs>
<clipPath id="clip0_3_236">
<rect width="627" height="668" fill="white"/>
</clipPath>
</defs>
</svg>
