<svg width="15" height="16" viewBox="0 0 15 16" fill="none" xmlns="http://www.w3.org/2000/svg">
<g clip-path="url(#clip0_3_817)">
<path d="M1.25 4.78469V12.6667C1.25099 13.5504 1.58055 14.3977 2.16639 15.0225C2.75222 15.6474 3.5465 15.999 4.375 16H10.625C11.4535 15.999 12.2478 15.6474 12.8336 15.0225C13.4194 14.3977 13.749 13.5504 13.75 12.6667V4.78469C13.75 4.42808 13.6605 4.07797 13.491 3.77063C13.3214 3.46328 13.0779 3.20989 12.7856 3.03669L7.80375 0.0840275C7.71085 0.0289207 7.6063 0 7.5 0C7.3937 0 7.28915 0.0289207 7.19625 0.0840275L2.21438 3.03669C1.92213 3.20989 1.67861 3.46328 1.50905 3.77063C1.33949 4.07797 1.25005 4.42808 1.25 4.78469ZM7.5 3.66669C7.68542 3.66669 7.86668 3.72534 8.02085 3.83522C8.17502 3.94511 8.29518 4.10128 8.36614 4.28401C8.43709 4.46674 8.45566 4.6678 8.41949 4.86178C8.38331 5.05577 8.29402 5.23395 8.16291 5.3738C8.0318 5.51365 7.86475 5.60889 7.6829 5.64748C7.50104 5.68606 7.31254 5.66626 7.14123 5.59057C6.96993 5.51489 6.82351 5.38671 6.7205 5.22226C6.61748 5.05782 6.5625 4.86448 6.5625 4.66669C6.5625 4.40148 6.66127 4.14712 6.83709 3.95959C7.0129 3.77205 7.25136 3.66669 7.5 3.66669Z" fill="#06B453"/>
</g>
<defs>
<clipPath id="clip0_3_817">
<rect width="15" height="16" fill="white"/>
</clipPath>
</defs>
</svg>
