<svg width="35" height="35" viewBox="0 0 35 35" fill="none" xmlns="http://www.w3.org/2000/svg">
<circle cx="17.5" cy="17.5" r="17.5" fill="#0A66C2"/>
<path d="M14.048 22.7701H11.4565V14.4123H14.048V22.7701ZM12.7508 13.2722C11.9222 13.2722 11.25 12.5848 11.25 11.7549C11.25 11.3563 11.4081 10.974 11.6896 10.6921C11.971 10.4102 12.3528 10.2519 12.7508 10.2519C13.1489 10.2519 13.5306 10.4102 13.8121 10.6921C14.0936 10.974 14.2517 11.3563 14.2517 11.7549C14.2517 12.5848 13.5792 13.2722 12.7508 13.2722ZM23.7472 22.7701H21.1613V18.7016C21.1613 17.7319 21.1417 16.4885 19.8139 16.4885C18.4665 16.4885 18.26 17.5419 18.26 18.6317V22.7701H15.6713V14.4123H18.1568V15.5524H18.1931C18.5391 14.8957 19.3842 14.2027 20.6451 14.2027C23.2679 14.2027 23.75 15.9324 23.75 18.179V22.7701H23.7472Z" fill="white"/>
</svg>
