<svg width="20" height="19" viewBox="0 0 20 19" fill="none" xmlns="http://www.w3.org/2000/svg">
<g clip-path="url(#clip0_76_53)">
<path d="M10.0107 11.4591V12.9565M5.27122 15.9512H14.7501C15.1691 15.9512 15.5709 15.7935 15.8672 15.5127C16.1635 15.2318 16.3299 14.851 16.3299 14.4538V9.96167C16.3299 9.56454 16.1635 9.18367 15.8672 8.90286C15.5709 8.62204 15.1691 8.46428 14.7501 8.46428H5.27122C4.85223 8.46428 4.4504 8.62204 4.15412 8.90286C3.85785 9.18367 3.69141 9.56454 3.69141 9.96167V14.4538C3.69141 14.851 3.85785 15.2318 4.15412 15.5127C4.4504 15.7935 4.85223 15.9512 5.27122 15.9512ZM13.1703 8.46428V5.4695C13.1703 4.67523 12.8374 3.9135 12.2449 3.35187C11.6523 2.79024 10.8487 2.47472 10.0107 2.47472C9.17269 2.47472 8.36902 2.79024 7.77647 3.35187C7.18393 3.9135 6.85104 4.67523 6.85104 5.4695V8.46428H13.1703Z" stroke="#6B6B6B" stroke-width="1.05321" stroke-linecap="round" stroke-linejoin="round"/>
</g>
<defs>
<clipPath id="clip0_76_53">
<rect x="0.532227" y="0.97731" width="18.9578" height="17.9687" rx="5.26606" fill="white"/>
</clipPath>
</defs>
</svg>
