<svg width="73" height="39" viewBox="0 0 73 39" fill="none" xmlns="http://www.w3.org/2000/svg">
<path d="M1.98 31V8.65H10.56C12.1 8.65 13.46 8.92 14.64 9.46C15.84 10 16.78 10.8 17.46 11.86C18.14 12.92 18.48 14.23 18.48 15.79C18.48 17.31 18.13 18.6 17.43 19.66C16.75 20.72 15.81 21.53 14.61 22.09C13.43 22.63 12.08 22.9 10.56 22.9H6.63V31H1.98ZM6.63 18.85H10.59C11.25 18.85 11.82 18.72 12.3 18.46C12.78 18.2 13.15 17.84 13.41 17.38C13.69 16.92 13.83 16.39 13.83 15.79C13.83 15.17 13.69 14.63 13.41 14.17C13.15 13.71 12.78 13.35 12.3 13.09C11.82 12.83 11.25 12.7 10.59 12.7H6.63V18.85Z" fill="#06B453"/>
<path d="M28.6765 31.36C27.0565 31.36 25.5765 30.99 24.2365 30.25C22.9165 29.51 21.8565 28.5 21.0565 27.22C20.2765 25.92 19.8865 24.45 19.8865 22.81C19.8865 21.15 20.2765 19.68 21.0565 18.4C21.8565 17.12 22.9165 16.11 24.2365 15.37C25.5765 14.63 27.0565 14.26 28.6765 14.26C30.2965 14.26 31.7665 14.63 33.0865 15.37C34.4065 16.11 35.4565 17.12 36.2365 18.4C37.0365 19.68 37.4365 21.15 37.4365 22.81C37.4365 24.45 37.0365 25.92 36.2365 27.22C35.4565 28.5 34.4065 29.51 33.0865 30.25C31.7665 30.99 30.2965 31.36 28.6765 31.36ZM28.6765 27.31C29.4965 27.31 30.2065 27.12 30.8065 26.74C31.4265 26.36 31.9065 25.83 32.2465 25.15C32.6065 24.47 32.7865 23.69 32.7865 22.81C32.7865 21.93 32.6065 21.16 32.2465 20.5C31.9065 19.82 31.4265 19.29 30.8065 18.91C30.2065 18.51 29.4965 18.31 28.6765 18.31C27.8565 18.31 27.1365 18.51 26.5165 18.91C25.8965 19.29 25.4065 19.82 25.0465 20.5C24.7065 21.16 24.5365 21.93 24.5365 22.81C24.5365 23.69 24.7065 24.47 25.0465 25.15C25.4065 25.83 25.8965 26.36 26.5165 26.74C27.1365 27.12 27.8565 27.31 28.6765 27.31ZM38.7675 31V27.4L48.1875 17.02L48.8475 18.52H39.1575V14.62H52.8375V18.22L43.6575 28.63L42.9975 27.1H52.8675V31H38.7675ZM62.7431 31.36C61.0031 31.36 59.4931 30.98 58.2131 30.22C56.9331 29.44 55.9431 28.4 55.2431 27.1C54.5431 25.8 54.1931 24.36 54.1931 22.78C54.1931 21.14 54.5531 19.68 55.2731 18.4C56.0131 17.12 57.0031 16.11 58.2431 15.37C59.4831 14.63 60.8831 14.26 62.4431 14.26C63.7431 14.26 64.8931 14.47 65.8931 14.89C66.8931 15.29 67.7331 15.86 68.4131 16.6C69.1131 17.34 69.6431 18.2 70.0031 19.18C70.3631 20.14 70.5431 21.19 70.5431 22.33C70.5431 22.65 70.5231 22.97 70.4831 23.29C70.4631 23.59 70.4131 23.85 70.3331 24.07H58.0631V20.77H67.7831L65.6531 22.33C65.8531 21.47 65.8431 20.71 65.6231 20.05C65.4031 19.37 65.0131 18.84 64.4531 18.46C63.9131 18.06 63.2431 17.86 62.4431 17.86C61.6631 17.86 60.9931 18.05 60.4331 18.43C59.8731 18.81 59.4531 19.37 59.1731 20.11C58.8931 20.85 58.7831 21.75 58.8431 22.81C58.7631 23.73 58.8731 24.54 59.1731 25.24C59.4731 25.94 59.9331 26.49 60.5531 26.89C61.1731 27.27 61.9231 27.46 62.8031 27.46C63.6031 27.46 64.2831 27.3 64.8431 26.98C65.4231 26.66 65.8731 26.22 66.1931 25.66L69.7931 27.37C69.4731 28.17 68.9631 28.87 68.2631 29.47C67.5831 30.07 66.7731 30.54 65.8331 30.88C64.8931 31.2 63.8631 31.36 62.7431 31.36Z" fill="#0D0C17"/>
</svg>
