<svg width="71" height="24" viewBox="0 0 71 24" fill="none" xmlns="http://www.w3.org/2000/svg">
<path d="M0.98 23V0.649998H9.56C11.1 0.649998 12.46 0.919998 13.64 1.46C14.84 2 15.78 2.8 16.46 3.86C17.14 4.92 17.48 6.23 17.48 7.79C17.48 9.31 17.13 10.6 16.43 11.66C15.75 12.72 14.81 13.53 13.61 14.09C12.43 14.63 11.08 14.9 9.56 14.9H5.63V23H0.98ZM5.63 10.85H9.59C10.25 10.85 10.82 10.72 11.3 10.46C11.78 10.2 12.15 9.84 12.41 9.38C12.69 8.92 12.83 8.39 12.83 7.79C12.83 7.17 12.69 6.63 12.41 6.17C12.15 5.71 11.78 5.35 11.3 5.09C10.82 4.83 10.25 4.7 9.59 4.7H5.63V10.85Z" fill="#06B453"/>
<path d="M28.2624 23.36C26.6424 23.36 25.1624 22.99 23.8224 22.25C22.5024 21.51 21.4424 20.5 20.6424 19.22C19.8624 17.92 19.4724 16.45 19.4724 14.81C19.4724 13.15 19.8624 11.68 20.6424 10.4C21.4424 9.12 22.5024 8.11 23.8224 7.37C25.1624 6.63 26.6424 6.26 28.2624 6.26C29.8824 6.26 31.3524 6.63 32.6724 7.37C33.9924 8.11 35.0424 9.12 35.8224 10.4C36.6224 11.68 37.0224 13.15 37.0224 14.81C37.0224 16.45 36.6224 17.92 35.8224 19.22C35.0424 20.5 33.9924 21.51 32.6724 22.25C31.3524 22.99 29.8824 23.36 28.2624 23.36ZM28.2624 19.31C29.0824 19.31 29.7924 19.12 30.3924 18.74C31.0124 18.36 31.4924 17.83 31.8324 17.15C32.1924 16.47 32.3724 15.69 32.3724 14.81C32.3724 13.93 32.1924 13.16 31.8324 12.5C31.4924 11.82 31.0124 11.29 30.3924 10.91C29.7924 10.51 29.0824 10.31 28.2624 10.31C27.4424 10.31 26.7224 10.51 26.1024 10.91C25.4824 11.29 24.9924 11.82 24.6324 12.5C24.2924 13.16 24.1224 13.93 24.1224 14.81C24.1224 15.69 24.2924 16.47 24.6324 17.15C24.9924 17.83 25.4824 18.36 26.1024 18.74C26.7224 19.12 27.4424 19.31 28.2624 19.31ZM38.3534 23V19.4L47.7734 9.02L48.4334 10.52H38.7434V6.62H52.4234V10.22L43.2434 20.63L42.5834 19.1H52.4534V23H38.3534ZM62.3291 23.36C60.5891 23.36 59.0791 22.98 57.7991 22.22C56.5191 21.44 55.5291 20.4 54.8291 19.1C54.1291 17.8 53.7791 16.36 53.7791 14.78C53.7791 13.14 54.1391 11.68 54.8591 10.4C55.5991 9.12 56.5891 8.11 57.8291 7.37C59.0691 6.63 60.4691 6.26 62.0291 6.26C63.3291 6.26 64.4791 6.47 65.4791 6.89C66.4791 7.29 67.3191 7.86 67.9991 8.6C68.6991 9.34 69.2291 10.2 69.5891 11.18C69.9491 12.14 70.1291 13.19 70.1291 14.33C70.1291 14.65 70.1091 14.97 70.0691 15.29C70.0491 15.59 69.9991 15.85 69.9191 16.07H57.6491V12.77H67.3691L65.2391 14.33C65.4391 13.47 65.4291 12.71 65.2091 12.05C64.9891 11.37 64.5991 10.84 64.0391 10.46C63.4991 10.06 62.8291 9.86 62.0291 9.86C61.2491 9.86 60.5791 10.05 60.0191 10.43C59.4591 10.81 59.0391 11.37 58.7591 12.11C58.4791 12.85 58.3691 13.75 58.4291 14.81C58.3491 15.73 58.4591 16.54 58.7591 17.24C59.0591 17.94 59.5191 18.49 60.1391 18.89C60.7591 19.27 61.5091 19.46 62.3891 19.46C63.1891 19.46 63.8691 19.3 64.4291 18.98C65.0091 18.66 65.4591 18.22 65.7791 17.66L69.3791 19.37C69.0591 20.17 68.5491 20.87 67.8491 21.47C67.1691 22.07 66.3591 22.54 65.4191 22.88C64.4791 23.2 63.4491 23.36 62.3291 23.36Z" fill="#0D0C17"/>
</svg>
