<svg width="55" height="55" viewBox="0 0 55 55" fill="none" xmlns="http://www.w3.org/2000/svg">
<path d="M55 34.4896C55 35.3203 55 36.1367 55 36.9674C54.9714 37.0534 54.9284 37.1393 54.9284 37.2253C54.8854 38.2708 54.2695 38.8724 53.3385 39.2161C52.7227 39.4453 52.1068 39.6888 51.5052 39.9609C51.319 40.0469 51.1471 40.2331 51.0612 40.4193C50.6458 41.3646 50.2591 42.3242 49.8867 43.2839C49.8151 43.4844 49.8008 43.7708 49.8724 43.9714C50.1302 44.6732 50.4453 45.3607 50.7461 46.0482C51.0898 46.8503 50.9896 47.6094 50.4023 48.2396C49.7148 48.9844 48.9844 49.7005 48.2396 50.4023C47.6094 50.9896 46.8503 51.0898 46.0482 50.7461C45.375 50.4596 44.7161 50.1445 44.0286 49.901C43.7995 49.8151 43.4844 49.8294 43.2409 49.9154C42.7396 50.1016 42.2813 50.474 41.78 50.5599C40.3477 50.832 39.6602 51.7201 39.3307 53.0378C39.0586 54.1406 38.3711 54.8568 37.1966 55C36.2227 55 35.263 55 34.2891 55C33.1432 54.8281 32.5273 54.0977 32.2122 53.0378C32.0547 52.5078 31.8255 51.9922 31.5964 51.5052C31.5104 51.319 31.3099 51.1471 31.1237 51.0612C30.1784 50.6458 29.2188 50.2448 28.2591 49.8724C28.0729 49.8008 27.8008 49.7865 27.6146 49.8438C26.8841 50.1159 26.168 50.4596 25.4375 50.7461C24.6927 51.0469 23.9766 50.9753 23.375 50.4453C22.5729 49.7148 21.7995 48.9414 21.069 48.1393C20.5391 47.5664 20.4818 46.8503 20.7539 46.1341C20.9401 45.6471 21.1263 45.1602 21.3698 44.7018C21.7708 43.9714 21.8854 43.2982 21.3268 42.5964C21.1836 42.4245 21.1263 42.181 21.0404 41.9661C20.7682 41.3216 20.6536 40.5052 20.1953 40.0612C19.7083 39.5885 18.8919 39.4453 18.2044 39.2018C17.1016 38.8151 16.5716 38.0417 16.5716 36.8958C16.5716 36.2227 16.5716 35.5495 16.5716 34.8333C16.2995 34.8333 16.0846 34.8333 15.8698 34.8333C11.8594 34.8333 7.86328 34.8333 3.85286 34.8333C1.93359 34.8333 0.630208 33.8164 0.128906 31.9974C0.114583 31.9258 0.0716146 31.8685 0.0286458 31.8112C0.0286458 29.5482 0.0286458 27.2995 0.0286458 25.0365C0.401042 24.306 0.759115 23.5755 1.07422 22.9453C0.730469 22.2148 0.372396 21.4701 0.0286458 20.7396C0.0286458 18.5195 0.0286458 16.2995 0.0286458 14.0794C0.386719 13.3346 0.759115 12.5898 1.07422 11.931C0.730469 11.2148 0.372396 10.4987 0.0286458 9.78255C0 7.51953 0 5.27083 0 3.00781C0.272135 2.22005 0.558594 1.40365 1.28906 0.902344C1.81901 0.529948 2.4349 0.286458 3.00781 0C14.4375 0 25.8529 0 37.2826 0C37.3255 0.0286458 37.3685 0.0716146 37.4115 0.0859375C39.3307 0.615885 40.319 1.8763 40.3333 3.86719C40.3477 5.57161 40.3333 7.26172 40.3333 8.96615C40.3333 9.73958 40.1901 10.4557 39.7604 11.1003C39.5599 11.3867 39.3307 11.6589 39.1016 11.9596C40.0898 12.8333 40.362 13.9505 40.3333 15.2109C40.3047 16.8008 40.3333 18.3906 40.319 19.9805C40.319 20.3385 40.4336 20.4531 40.7487 20.582C41.5794 20.8971 42.4102 21.2409 43.2122 21.6276C43.4987 21.7565 43.7135 21.7708 44 21.6419C44.6445 21.3411 45.3177 21.0833 45.9622 20.7969C46.8216 20.4245 47.6094 20.5391 48.2826 21.1836C48.9701 21.8424 49.6432 22.5156 50.2878 23.1888C50.9466 23.8906 51.0612 24.6784 50.6745 25.5664C50.388 26.2253 50.0872 26.8698 49.8438 27.543C49.7721 27.7435 49.7721 28.0299 49.8438 28.2305C50.2161 29.1901 50.6172 30.1497 51.0326 31.0951C51.1185 31.2813 51.2904 31.4818 51.4766 31.5677C52.1927 31.8828 52.9375 32.1549 53.6536 32.4557C54.3841 32.7708 54.8138 33.3294 54.8997 34.1315C54.9284 34.2461 54.9714 34.3607 55 34.4896ZM49.0846 46.8789C49.0273 46.7357 48.9844 46.6211 48.9414 46.5065C48.5977 45.7044 48.2682 44.888 47.9102 44.0859C47.724 43.6562 47.7956 43.2839 47.9818 42.8685C48.4974 41.7227 48.9844 40.5482 49.4284 39.3594C49.6003 38.901 49.8294 38.6003 50.3021 38.4284C51.1042 38.1419 51.8919 37.7839 52.694 37.4831C52.9805 37.3685 53.138 37.2109 53.1237 36.8958C53.1094 36.1081 53.138 35.3203 53.0951 34.5326C53.0807 34.3607 52.8945 34.1172 52.7227 34.0456C51.9206 33.6875 51.1042 33.3724 50.2878 33.0573C49.8294 32.8854 49.5859 32.5703 49.4141 32.1263C48.9701 30.9375 48.4974 29.763 47.9674 28.6172C47.7669 28.1732 47.724 27.7865 47.9102 27.3424C48.2539 26.5547 48.569 25.7669 48.9271 24.9792C49.0703 24.6641 49.0417 24.4635 48.7982 24.2344C48.2539 23.7188 47.724 23.1888 47.2083 22.6445C46.9792 22.4154 46.7786 22.401 46.4922 22.5299C45.7044 22.888 44.9023 23.1888 44.1289 23.5469C43.6563 23.7617 43.2695 23.6901 42.8112 23.4896C41.6654 22.9596 40.4909 22.487 39.3021 22.0286C38.8867 21.8711 38.5859 21.6563 38.4284 21.2409C38.1133 20.4245 37.7695 19.6224 37.4688 18.7917C37.3542 18.4909 37.1966 18.319 36.8529 18.3333C36.1081 18.3477 35.349 18.3477 34.6042 18.3333C34.2891 18.3333 34.1315 18.4622 34.0169 18.763C33.7161 19.5651 33.3724 20.3529 33.0716 21.1549C32.8997 21.6276 32.5703 21.8711 32.0977 22.043C30.9089 22.487 29.7487 22.974 28.5885 23.5039C28.1875 23.6901 27.8294 23.7474 27.4141 23.5612C26.5977 23.2031 25.7812 22.8307 24.9505 22.5156C24.7643 22.444 24.4492 22.487 24.306 22.6159C23.7331 23.1315 23.2031 23.6901 22.6589 24.2344C22.4297 24.4492 22.401 24.6497 22.5443 24.9505C22.9023 25.7526 23.2318 26.5547 23.5898 27.3568C23.776 27.7865 23.7331 28.1589 23.5326 28.5742C23.0026 29.7201 22.5156 30.8945 22.0716 32.0833C21.8997 32.5703 21.6419 32.8711 21.1693 33.0573C20.3672 33.3581 19.5651 33.6732 18.7917 34.0169C18.6055 34.1029 18.4049 34.3464 18.3906 34.5326C18.3477 35.3203 18.3477 36.1081 18.3906 36.8958C18.4049 37.082 18.6055 37.3398 18.7917 37.4115C19.5938 37.7695 20.4102 38.0846 21.2266 38.3997C21.6706 38.5716 21.8854 38.8581 22.0573 39.3021C22.5156 40.5052 23.0026 41.694 23.5326 42.8542C23.7331 43.2839 23.776 43.6419 23.5755 44.0716C23.2174 44.8737 22.9023 45.6901 22.5299 46.4779C22.401 46.7643 22.4297 46.9648 22.6589 47.194C23.2174 47.724 23.7617 48.2682 24.2917 48.8268C24.5065 49.0417 24.6927 49.056 24.9505 48.9271C25.7526 48.569 26.5547 48.2396 27.3568 47.8815C27.8008 47.681 28.1875 47.7383 28.6315 47.9531C29.763 48.4688 30.9232 48.9414 32.0833 49.3854C32.556 49.5573 32.8854 49.8008 33.0573 50.2734C33.3581 51.0755 33.6732 51.8776 34.0169 52.6654C34.1029 52.8516 34.3464 53.0664 34.5326 53.0664C35.3203 53.1094 36.1081 53.0807 36.8958 53.0951C37.2253 53.0951 37.3542 52.9232 37.4688 52.6367C37.7839 51.8203 38.1276 51.0182 38.4284 50.1875C38.5859 49.7578 38.8867 49.5573 39.3021 49.3997C40.5052 48.9414 41.694 48.4544 42.8542 47.9388C43.2839 47.7526 43.6562 47.6953 44.0859 47.8815C44.9023 48.2396 45.7188 48.5977 46.5495 48.9271C46.7214 48.9987 47.0221 48.9557 47.151 48.8411C47.7383 48.2969 48.2969 47.7096 48.8698 47.1367C48.9701 47.0794 49.0273 46.9648 49.0846 46.8789ZM20.1523 10.9857C25.5807 10.9857 30.9948 10.9857 36.4232 10.9857C37.7839 10.9857 38.4857 10.2839 38.4857 8.95182C38.4857 7.2474 38.5 5.55729 38.4857 3.85286C38.4857 2.54948 37.7552 1.83333 36.4518 1.83333C25.6094 1.83333 14.7526 1.83333 3.91016 1.83333C2.54948 1.83333 1.83333 2.5638 1.83333 3.9388C1.83333 5.52865 1.83333 7.11849 1.83333 8.72266C1.83333 10.3555 2.46354 11 4.09635 11C9.45313 11 14.7956 10.9857 20.1523 10.9857ZM38.4857 16.944C38.4857 16.2422 38.4857 15.5547 38.4857 14.8672C38.4714 13.5638 37.7695 12.8477 36.4518 12.8477C25.5807 12.8477 14.724 12.8477 3.85286 12.8477C2.54948 12.8477 1.83333 13.5924 1.81901 14.8815C1.81901 16.5286 1.81901 18.1758 1.81901 19.8229C1.81901 21.3268 2.50651 22.0143 4.02474 22.0143C9.66797 22.0143 15.2969 22 20.9401 22.0286C21.8568 22.0286 22.5729 21.8711 23.2174 21.1836C23.862 20.4961 24.6784 20.4388 25.5378 20.8112C26.1966 21.0977 26.8411 21.3984 27.5143 21.6419C27.7292 21.7135 28.0299 21.7135 28.2448 21.6276C29.1901 21.2695 30.1354 20.8685 31.0664 20.4531C31.2669 20.3672 31.4818 20.181 31.5677 19.9805C31.8828 19.2786 32.1406 18.5625 32.4414 17.8464C32.6992 17.2161 33.1576 16.7292 33.8451 16.6432C35.3776 16.4714 36.9388 16.2995 38.4857 16.944ZM20.7109 23.8763C20.5391 23.862 20.3958 23.8477 20.2526 23.8477C14.7669 23.8477 9.26693 23.8477 3.78125 23.8477C2.59245 23.8477 1.83333 24.6068 1.83333 25.7956C1.81901 27.5286 1.83333 29.2617 1.83333 30.9948C1.83333 32.2552 2.5638 33 3.83854 33C8.12109 33 12.3893 33 16.6719 33C16.8294 33 17.0013 33 17.1445 32.9427C18.0039 32.5417 18.8203 32.0833 19.694 31.7396C20.1953 31.5391 20.4818 31.2812 20.5964 30.7513C20.668 30.3646 20.8398 30.0065 20.9974 29.6484C21.2552 29.0326 21.7279 28.4167 21.7135 27.8008C21.7135 27.1706 21.2552 26.5404 20.9688 25.9245C20.6536 25.2656 20.4531 24.6068 20.7109 23.8763Z" fill="#E54800"/>
<path d="M35.4066 47.6667C28.5746 47.3516 23.5043 41.8659 23.8767 35.0339C24.2061 28.5599 29.792 23.4896 36.5238 23.8477C42.8259 24.1914 47.9535 29.8347 47.6527 36.2084C47.3519 42.8685 41.9092 47.8099 35.4066 47.6667ZM36.0082 45.8334C41.6514 45.6042 46.0342 40.9922 45.8337 35.5065C45.6189 29.7344 40.9353 25.4232 35.1488 25.681C29.7061 25.9245 25.4522 30.6941 25.6814 36.28C25.8962 41.6368 30.6657 46.0482 36.0082 45.8334Z" fill="#E54800"/>
<path d="M28.8749 7.31901C26.9413 7.31901 25.0077 7.31901 23.0885 7.31901C22.5872 7.31901 22.2005 7.16146 22.0429 6.66016C21.871 6.10156 22.2721 5.5 22.888 5.5C26.8697 5.48568 30.8658 5.48568 34.8476 5.5C35.3919 5.5 35.7643 5.95833 35.7356 6.44531C35.707 6.94661 35.3346 7.30469 34.7617 7.30469C32.8137 7.33333 30.8372 7.31901 28.8749 7.31901Z" fill="#E54800"/>
<path d="M7.33333 9.1523C5.82943 9.16663 4.59766 7.94918 4.59766 6.44527C4.59766 4.8984 5.80078 3.66663 7.33333 3.66663C8.82292 3.66663 10.069 4.88407 10.0833 6.38798C10.0977 7.90621 8.88021 9.13798 7.33333 9.1523ZM8.25 6.4023C8.23568 5.901 7.79167 5.48564 7.30469 5.49996C6.80339 5.52861 6.41667 5.94397 6.43099 6.45959C6.44531 6.9609 6.83203 7.31897 7.33333 7.31897C7.84896 7.31897 8.26432 6.88928 8.25 6.4023Z" fill="#E54800"/>
<path d="M14.6527 9.1523C13.1488 9.1523 11.917 7.93486 11.917 6.43095C11.917 4.8984 13.1488 3.6523 14.667 3.66663C16.1709 3.66663 17.3883 4.8984 17.4027 6.4023C17.417 7.93486 16.1995 9.1523 14.6527 9.1523ZM15.5693 6.43095C15.5693 5.92965 15.154 5.49996 14.6527 5.49996C14.1657 5.49996 13.736 5.92965 13.736 6.43095C13.736 6.91793 14.1227 7.30465 14.624 7.31897C15.154 7.33329 15.5693 6.94657 15.5693 6.43095Z" fill="#E54800"/>
<path d="M4.59778 17.4024C4.6121 15.8555 5.82955 14.6524 7.37643 14.681C8.89466 14.6954 10.0978 15.9271 10.0835 17.431C10.0691 18.9493 8.80872 20.181 7.29049 20.1667C5.80091 20.1524 4.58346 18.9063 4.59778 17.4024ZM7.34778 16.5144C6.81783 16.5144 6.43112 16.9011 6.43112 17.4167C6.43112 17.918 6.84648 18.3477 7.34778 18.3334C7.82044 18.3191 8.2358 17.918 8.25013 17.4454C8.26445 16.9441 7.84908 16.5144 7.34778 16.5144Z" fill="#E54800"/>
<path d="M17.4027 17.4023C17.4027 18.9349 16.1852 20.1667 14.6527 20.181C13.1774 20.181 11.917 18.9349 11.917 17.4453C11.917 15.8984 13.1344 14.681 14.667 14.6953C16.1852 14.681 17.4027 15.8841 17.4027 17.4023ZM14.6383 16.5143C14.1227 16.5287 13.7217 16.944 13.7503 17.4453C13.7646 17.918 14.18 18.319 14.6527 18.3333C15.154 18.3333 15.5693 17.9037 15.5693 17.4023C15.5693 16.901 15.1683 16.5 14.6383 16.5143Z" fill="#E54800"/>
<path d="M25.667 18.3476C24.8076 18.3476 23.9482 18.3619 23.0889 18.3476C22.4014 18.3333 22.0146 17.9895 22.0146 17.4166C22.0146 16.8437 22.4014 16.5143 23.1032 16.5143C24.8219 16.5143 26.5264 16.5143 28.2451 16.5143C28.9326 16.5143 29.3337 16.858 29.3337 17.4309C29.3337 17.9895 28.9183 18.3476 28.2451 18.3476C27.3857 18.3476 26.5264 18.3476 25.667 18.3476Z" fill="#E54800"/>
<path d="M14.5806 31.1523C13.091 31.1237 11.8879 29.8633 11.9165 28.3593C11.9452 26.8411 13.2056 25.638 14.7381 25.6666C16.2277 25.6953 17.4165 26.9414 17.3879 28.4596C17.3879 29.9922 16.1275 31.181 14.5806 31.1523ZM14.6665 29.3333C15.1678 29.3333 15.5832 28.9179 15.5832 28.4166C15.5832 27.9297 15.1821 27.5286 14.7095 27.5143C14.2082 27.5 13.7785 27.9153 13.7642 28.4166C13.7355 28.9036 14.1509 29.319 14.6665 29.3333Z" fill="#E54800"/>
<path d="M4.59719 28.3737C4.62583 26.8268 5.8576 25.638 7.40448 25.6666C8.89406 25.6953 10.1115 26.97 10.0829 28.4596C10.0542 29.9778 8.80812 31.181 7.26125 31.1523C5.75734 31.138 4.56854 29.8919 4.59719 28.3737ZM8.24953 28.431C8.24953 27.944 7.81984 27.5 7.33286 27.5143C6.84589 27.5143 6.45917 27.901 6.43052 28.388C6.4162 28.9036 6.78859 29.319 7.30422 29.3333C7.80552 29.3333 8.24953 28.9179 8.24953 28.431Z" fill="#E54800"/>
<path d="M35.7068 42.1666C32.169 42.1523 29.3187 39.2591 29.3331 35.707C29.3474 32.2265 32.2693 29.319 35.7641 29.3333C39.3161 29.3476 42.195 32.2409 42.1664 35.7786C42.1377 39.3307 39.2732 42.181 35.7068 42.1666ZM40.3187 35.8502C40.376 33.3008 38.3565 31.2096 35.807 31.1666C33.3292 31.1237 31.2237 33.1432 31.1664 35.6211C31.0948 38.1705 33.1 40.2617 35.6638 40.319C38.1846 40.3906 40.2614 38.3854 40.3187 35.8502Z" fill="#E54800"/>
</svg>
