<svg width="57" height="55" viewBox="0 0 57 55" fill="none" xmlns="http://www.w3.org/2000/svg">
<path d="M55.9997 17.6172C55.8564 18.0898 55.7562 18.5768 55.5557 19.0352C54.6247 21.2409 52.9489 22.5586 50.557 22.8307C48.3083 23.0885 46.4606 22.2292 45.0426 20.4674C44.9424 20.3529 44.8564 20.224 44.7562 20.0807C42.3929 24.306 36.4775 24.4349 33.8851 20.3385C31.307 24.4635 25.5348 24.2344 23.0856 20.2956C21.7679 22.2721 19.9775 23.375 17.5856 23.3177C15.208 23.2604 13.4749 22.0716 12.2288 20.0378C11.3408 21.3555 10.195 22.2435 8.7054 22.6589C5.28223 23.6042 1.81608 21.4557 1.09993 17.9609C1.07129 17.8464 1.02832 17.7318 0.985352 17.6172C0.985352 17.0729 0.985352 16.543 0.985352 15.9987C1.73014 13.3203 2.389 10.6276 3.19108 7.96354C3.86426 5.74349 4.29395 3.50911 4.10775 1.17448C4.06478 0.658854 4.22233 0.272135 4.66634 0C20.5648 0 36.4632 0 52.3617 0C52.7913 0.272135 52.9346 0.673177 52.9202 1.17448C52.8486 3.1224 52.8486 5.07031 53.5505 6.93229C53.6364 7.16146 53.6937 7.40495 53.751 7.64844C54.5101 10.4271 55.2549 13.2201 56.014 15.9987C55.9997 16.543 55.9997 17.0872 55.9997 17.6172ZM24.6038 5.58594C24.5752 5.94401 24.5466 6.28776 24.5322 6.61719C24.4749 7.70573 24.4176 8.79427 24.3604 9.88281C24.2314 12.3177 24.0452 14.7383 24.0023 17.1732C23.945 20.0378 26.7093 22.1719 29.488 21.513C31.708 20.9974 33.0973 19.0924 32.9827 16.7148C32.8538 13.9792 32.6963 11.2435 32.5387 8.52213C32.4814 7.54818 32.4242 6.57422 32.3669 5.60026C29.7601 5.58594 27.1963 5.58594 24.6038 5.58594ZM15.0934 5.58594C14.5062 9.16667 13.9189 12.6901 13.3604 16.2279C13.0309 18.319 13.8617 20.0807 15.5231 21.0404C18.5023 22.7305 22.0687 20.6823 22.2549 17.1875C22.3838 14.6667 22.527 12.1458 22.6702 9.63932C22.7419 8.30729 22.7992 6.97526 22.8708 5.60026C20.264 5.58594 17.7002 5.58594 15.0934 5.58594ZM41.9202 5.58594C39.2992 5.58594 36.7354 5.58594 34.1429 5.58594C34.1429 5.71484 34.1429 5.80078 34.1429 5.88672C34.2718 8.39323 34.4007 10.8854 34.5439 13.3919C34.6299 14.9102 34.6585 16.4427 34.8591 17.9323C35.1742 20.2956 37.5088 21.9284 39.915 21.5703C42.2783 21.2266 44.0257 18.9779 43.682 16.6432C43.1234 12.9766 42.5075 9.3099 41.9202 5.58594ZM43.682 5.55729C43.682 5.70052 43.6676 5.74349 43.682 5.80078C44.3122 9.63932 44.9281 13.4922 45.5726 17.3307C46.0166 19.9948 48.3083 21.599 50.8721 21.0547C53.3213 20.5391 54.7679 18.0755 54.0947 15.526C53.2497 12.3464 52.376 9.18099 51.5309 6.0013C51.4307 5.61458 51.2588 5.54297 50.9007 5.54297C49.2966 5.55729 47.6781 5.54297 46.0739 5.54297C45.2861 5.55729 44.4984 5.55729 43.682 5.55729ZM13.346 5.62891C13.2601 5.58594 13.2314 5.57161 13.2028 5.57161C10.7679 5.57161 8.33301 5.55729 5.91243 5.57161C5.78353 5.57161 5.56869 5.75781 5.54004 5.90104C4.6377 9.19531 3.70671 12.4753 2.87598 15.7839C2.26009 18.2187 3.84994 20.6107 6.25619 21.0833C8.73405 21.556 11.0114 19.9661 11.4411 17.4596C11.57 16.7005 11.6846 15.9414 11.8135 15.1823C12.3148 11.9883 12.8304 8.82292 13.346 5.62891ZM5.84082 3.79557C20.9801 3.79557 36.0622 3.79557 51.1442 3.79557C51.1442 3.09375 51.1442 2.42057 51.1442 1.76172C36.0192 1.76172 20.9515 1.76172 5.84082 1.76172C5.84082 2.44922 5.84082 3.09375 5.84082 3.79557Z" fill="#E54800"/>
<path d="M1 49.9584C1.30078 49.5287 1.73047 49.3855 2.24609 49.4141C2.83333 49.4571 3.42057 49.4284 4.09375 49.4284C4.09375 49.1706 4.09375 48.9558 4.09375 48.7266C4.09375 40.9206 4.09375 33.1146 4.09375 25.3086C4.09375 25.1368 4.09375 24.9506 4.09375 24.7787C4.1224 24.2774 4.4375 23.9623 4.89583 23.948C5.35417 23.9336 5.71224 24.2201 5.78385 24.6927C5.8125 24.8789 5.79818 25.0795 5.79818 25.28C5.79818 33.0717 5.79818 40.849 5.79818 48.6407C5.79818 48.8698 5.79818 49.099 5.79818 49.3855C15.6667 49.3855 25.5208 49.3855 35.4323 49.3855C35.4323 49.1706 35.4323 48.9558 35.4323 48.7552C35.4323 42.1524 35.4323 35.5495 35.4323 28.9323C35.4323 27.8724 35.6615 27.6433 36.7214 27.6433C40.1589 27.6433 43.5964 27.6433 47.0339 27.6433C48.0221 27.6433 48.2656 27.8868 48.2656 28.8894C48.2656 35.4922 48.2656 42.0951 48.2656 48.7123C48.2656 48.9271 48.2656 49.142 48.2656 49.3855C49.2253 49.3855 50.1419 49.3855 51.1445 49.3855C51.1445 49.1849 51.1445 48.9558 51.1445 48.7266C51.1445 40.9206 51.1445 33.1146 51.1445 25.3086C51.1445 25.1368 51.1302 24.9506 51.1445 24.7787C51.1875 24.2631 51.5312 23.9336 52.0039 23.9193C52.5052 23.9193 52.8346 24.2631 52.8633 24.8217C52.8776 24.9935 52.8633 25.1797 52.8633 25.3516C52.8633 33.1433 52.8633 40.9206 52.8633 48.7123C52.8633 48.9271 52.8633 49.142 52.8633 49.4141C53.5078 49.4141 54.1094 49.4427 54.7109 49.3998C55.2409 49.3711 55.6563 49.5144 55.957 49.9441C55.957 51.6342 55.957 53.3099 55.957 55C37.6237 55 19.2904 55 0.957031 55C1 53.3243 1 51.6342 1 49.9584ZM37.2227 29.3907C37.2227 36.0938 37.2227 42.7396 37.2227 49.3998C40.3451 49.3998 43.4388 49.3998 46.5469 49.3998C46.5469 42.7253 46.5469 36.0795 46.5469 29.3907C43.4245 29.3907 40.3451 29.3907 37.2227 29.3907ZM54.2526 51.1758C37.0508 51.1758 19.9063 51.1758 2.7474 51.1758C2.7474 51.892 2.7474 52.5651 2.7474 53.2526C19.9206 53.2526 37.0794 53.2526 54.2526 53.2526C54.2526 52.5508 54.2526 51.8776 54.2526 51.1758Z" fill="#E54800"/>
<path d="M20.8376 27.6289C24.0459 27.6289 27.2399 27.6289 30.4482 27.6289C31.4079 27.6289 31.6657 27.8867 31.6657 28.832C31.6657 32.7135 31.6657 36.5951 31.6657 40.4766C31.6657 41.3932 31.3936 41.651 30.4769 41.6654C24.0173 41.6654 17.5576 41.6654 11.098 41.6654C10.1813 41.6654 9.90918 41.3932 9.90918 40.4909C9.90918 36.5951 9.90918 32.6849 9.90918 28.7891C9.90918 27.9154 10.1813 27.6289 11.0693 27.6289C14.3206 27.6289 17.5863 27.6289 20.8376 27.6289ZM11.6566 39.918C17.7725 39.918 23.8311 39.918 29.9183 39.918C29.9183 36.3945 29.9183 32.8997 29.9183 29.3906C23.8167 29.3906 17.7438 29.3906 11.6566 29.3906C11.6566 32.9141 11.6566 36.3945 11.6566 39.918Z" fill="#E54800"/>
</svg>
