<svg width="80" height="80" viewBox="0 0 80 80" fill="none" xmlns="http://www.w3.org/2000/svg">
<circle cx="40" cy="40" r="39.5" stroke="#A3A2A3"/>
<path d="M57.1797 58C46.0599 58 34.9401 58 23.8203 58C23.4375 57.8359 23.1641 57.5625 23 57.1797C23 51.0456 23 44.9206 23 38.7865C23.2643 38.1576 23.7292 37.9115 24.4036 37.957C25.0234 37.9935 25.6523 37.9661 26.2812 37.9661C26.6003 37.9661 26.9102 37.9661 27.2474 37.9661C27.2474 37.7747 27.2474 37.6289 27.2474 37.4831C27.2474 33.1354 27.2565 28.7969 27.2383 24.4492C27.2383 23.7747 27.4206 23.2734 28.0586 23C36.3529 23 44.6471 23 52.9414 23C53.5703 23.2826 53.7617 23.7839 53.7617 24.4583C53.7435 28.8242 53.7526 33.181 53.7526 37.5469C53.7526 37.6745 53.7526 37.8112 53.7526 37.9661C54.7279 37.9661 55.6667 37.9935 56.5964 37.957C57.2708 37.9297 57.7357 38.1667 58 38.7865C58 44.9206 58 51.0456 58 57.1797C57.8359 57.5625 57.5625 57.8359 57.1797 58ZM29.4622 25.2057C29.4622 35.4232 29.4622 45.6042 29.4622 55.7943C31.3945 55.7943 33.2995 55.7943 35.2409 55.7943C35.2409 55.6484 35.2409 55.5299 35.2409 55.4023C35.2409 53.2422 35.2409 51.0729 35.2409 48.9128C35.2409 48.0924 35.6602 47.6732 36.4805 47.6732C38.6133 47.6732 40.737 47.6732 42.8698 47.6732C43.7083 47.6732 44.1276 48.0924 44.1276 48.931C44.1276 51.0911 44.1276 53.2604 44.1276 55.4206C44.1276 55.5391 44.1276 55.6667 44.1276 55.7943C46.625 55.7943 49.0768 55.7943 51.5469 55.7943C51.5469 45.5859 51.5469 35.4049 51.5469 25.2057C44.1732 25.2057 36.8359 25.2057 29.4622 25.2057ZM27.2292 55.8034C27.2292 50.5716 27.2292 45.3763 27.2292 40.181C26.5365 40.181 25.8802 40.181 25.2148 40.181C25.2148 45.4036 25.2148 50.599 25.2148 55.8034C25.8893 55.8034 26.5456 55.8034 27.2292 55.8034ZM55.7943 55.8034C55.7943 50.5807 55.7943 45.3854 55.7943 40.181C55.1107 40.181 54.4453 40.181 53.7708 40.181C53.7708 45.3945 53.7708 50.5898 53.7708 55.8034C54.4544 55.8034 55.1107 55.8034 55.7943 55.8034ZM37.4375 55.7943C38.9505 55.7943 40.4271 55.7943 41.9128 55.7943C41.9128 53.8164 41.9128 51.8477 41.9128 49.8789C40.4089 49.8789 38.9232 49.8789 37.4375 49.8789C37.4375 51.8568 37.4375 53.8164 37.4375 55.7943Z" fill="#0D0C17"/>
<path d="M44.6654 38.5678C45.3854 38.5678 46.0964 38.5587 46.8164 38.5678C47.5365 38.5769 47.974 38.9962 47.9831 39.7162C47.9922 41.1654 47.9922 42.6055 47.9831 44.0548C47.974 44.7657 47.5273 45.2032 46.8164 45.2032C45.3854 45.2123 43.9453 45.2123 42.5143 45.2032C41.8125 45.2032 41.3568 44.7475 41.3477 44.0456C41.3385 42.5964 41.3385 41.1563 41.3477 39.7071C41.3568 38.9962 41.8034 38.5769 42.5143 38.5678C43.2253 38.5678 43.9453 38.5678 44.6654 38.5678ZM43.5443 42.9975C44.3099 42.9975 45.0299 42.9975 45.7773 42.9975C45.7773 42.2501 45.7773 41.5209 45.7773 40.7826C45.0208 40.7826 44.2917 40.7826 43.5443 40.7826C43.5443 41.53 43.5443 42.2501 43.5443 42.9975Z" fill="#0D0C17"/>
<path d="M36.3343 30.2373C37.0544 30.2373 37.7744 30.2373 38.4854 30.2373C39.1963 30.2464 39.652 30.6748 39.652 31.3857C39.6611 32.835 39.6611 34.2751 39.652 35.7243C39.6429 36.4352 39.1872 36.8727 38.4854 36.8727C37.0544 36.8818 35.6143 36.8818 34.1833 36.8727C33.4814 36.8727 33.0257 36.4352 33.0166 35.7243C33.0075 34.2751 33.0075 32.835 33.0166 31.3857C33.0257 30.6657 33.4632 30.2464 34.1742 30.2373C34.8942 30.2373 35.6143 30.2373 36.3343 30.2373ZM35.2223 32.443C35.2223 33.1995 35.2223 33.9287 35.2223 34.6761C35.9697 34.6761 36.708 34.6761 37.4554 34.6761C37.4554 33.9287 37.4554 33.1904 37.4554 32.443C36.708 32.443 35.9788 32.443 35.2223 32.443Z" fill="#0D0C17"/>
<path d="M44.6742 30.237C45.3942 30.237 46.1051 30.2278 46.8252 30.237C47.5179 30.2461 47.9736 30.6653 47.9827 31.3581C48.001 32.8164 48.001 34.2747 47.9827 35.7331C47.9736 36.444 47.527 36.8724 46.8161 36.8724C45.3851 36.8724 43.945 36.8815 42.514 36.8724C41.8304 36.8724 41.3656 36.4258 41.3564 35.7513C41.3382 34.2838 41.3382 32.8164 41.3564 31.3398C41.3656 30.6745 41.8213 30.2461 42.4958 30.237C43.2158 30.2278 43.945 30.237 44.6742 30.237ZM45.7861 32.4518C45.0205 32.4518 44.2913 32.4518 43.5531 32.4518C43.5531 33.2083 43.5531 33.9375 43.5531 34.6666C44.3096 34.6666 45.0479 34.6666 45.7861 34.6666C45.7861 33.9193 45.7861 33.1992 45.7861 32.4518Z" fill="#0D0C17"/>
<path d="M36.335 38.5675C37.055 38.5675 37.7659 38.5584 38.486 38.5675C39.1969 38.5766 39.6436 39.005 39.6527 39.716C39.6618 41.1652 39.6618 42.6053 39.6527 44.0545C39.6436 44.7563 39.1878 45.2029 38.486 45.2029C37.055 45.2121 35.6149 45.2121 34.1839 45.2029C33.4912 45.2029 33.0355 44.7654 33.0264 44.0819C33.0081 42.6144 33.0081 41.147 33.0264 39.6704C33.0355 38.9959 33.473 38.5766 34.1566 38.5675C34.8766 38.5584 35.6058 38.5675 36.335 38.5675ZM35.223 40.7733C35.223 41.5389 35.223 42.2589 35.223 42.9972C35.9704 42.9972 36.7087 42.9972 37.4469 42.9972C37.4469 42.2407 37.4469 41.5115 37.4469 40.7733C36.6995 40.7733 35.9795 40.7733 35.223 40.7733Z" fill="#0D0C17"/>
</svg>
