<svg width="80" height="80" viewBox="0 0 80 80" fill="none" xmlns="http://www.w3.org/2000/svg">
<circle cx="40" cy="40" r="40" fill="white"/>
<path d="M57 33.5347C56.5716 34.9416 56.1341 36.3485 55.7148 37.7646C54.4115 42.1149 53.1081 46.4651 51.8047 50.8246C51.5495 51.6761 51.112 52.0093 50.2279 52.0093C43.0729 52.0093 35.9271 52.0093 28.7721 52.0093C27.888 52.0093 27.4505 51.6854 27.1953 50.8338C25.4818 45.0952 23.7773 39.3751 22.0638 33.655C22.0456 33.6087 22.0182 33.5717 22 33.5347C22 33.3496 22 33.1645 22 32.9794C22.0365 32.8868 22.082 32.7942 22.1185 32.6924C22.4557 31.9242 23.2669 31.665 24.0781 32.063C26.3932 33.2015 28.6992 34.3492 31.0143 35.4877C31.151 35.5525 31.2786 35.6173 31.4427 35.7006C31.7891 35.2933 32.1445 34.8861 32.4909 34.4788C34.4688 32.1741 36.4375 29.8601 38.4062 27.5554C39.0443 26.8057 39.9648 26.815 40.6211 27.5832C42.8633 30.2119 45.1146 32.8405 47.3568 35.4784C47.4115 35.5432 47.4753 35.6173 47.5573 35.7006C48.3138 35.3303 49.0703 34.9508 49.8268 34.5806C51.4674 33.7754 53.099 32.9608 54.7396 32.1556C55.8516 31.6095 56.5169 31.8501 57.0091 32.9794C57 33.1645 57 33.3496 57 33.5347ZM53.3997 35.9135C53.2266 35.9968 53.1172 36.043 53.0078 36.0986C51.3398 36.9223 49.6719 37.7461 48.0039 38.5699C47.1836 38.9771 46.6276 38.8568 46.0352 38.1626C43.9206 35.6913 41.8151 33.22 39.7005 30.7394C39.6367 30.6654 39.6094 30.5543 39.5638 30.4525C39.4271 30.6006 39.3906 30.6469 39.3542 30.6839C37.2305 33.1737 35.0977 35.6635 32.974 38.1534C32.3815 38.8568 31.8255 38.9679 31.0052 38.5606C29.3281 37.7276 27.651 36.9038 25.974 36.0708C25.8737 36.0153 25.7643 35.9782 25.6094 35.9135C25.6458 36.0523 25.6641 36.1171 25.6823 36.1819C26.9492 40.421 28.2253 44.6695 29.4831 48.9086C29.556 49.1678 29.6836 49.2141 29.9115 49.2141C36.2917 49.2048 42.6719 49.2048 49.0521 49.2141C49.3346 49.2141 49.4622 49.1308 49.5443 48.8531C50.6745 45.0397 51.8229 41.2263 52.9622 37.4129C53.099 36.9408 53.2448 36.4595 53.3997 35.9135Z" fill="#0D0C17"/>
</svg>
