<svg width="35" height="35" viewBox="0 0 35 35" fill="none" xmlns="http://www.w3.org/2000/svg">
<circle cx="17.5" cy="17.5" r="17.5" fill="#0D0C17"/>
<path d="M22.6767 12C22.1312 12.6225 21.5846 13.2439 21.038 13.8664C20.3658 14.6312 19.6926 15.396 19.0204 16.1597C19.0004 16.1814 18.9827 16.2042 18.956 16.2347C20.3014 18.1488 21.6468 20.0641 23 21.9902C22.9633 21.9935 22.9389 21.9967 22.9145 21.9978C21.979 21.9978 21.0447 21.9978 20.1092 22C20.0437 22 20.0092 21.9772 19.9737 21.9261C19.1071 20.6898 18.2383 19.4546 17.3695 18.2194C17.3473 18.1879 17.324 18.1564 17.2962 18.1184C17.0418 18.4074 16.794 18.6877 16.5474 18.969C15.6775 19.9576 14.8076 20.9473 13.9355 21.9348C13.9055 21.9685 13.8488 21.9946 13.8032 21.9957C13.5444 22.0011 13.2844 21.9989 13 21.9989C14.3087 20.5106 15.6042 19.0386 16.904 17.5622C16.8851 17.5329 16.8685 17.5068 16.8496 17.4807C15.5953 15.6915 14.3387 13.9033 13.0833 12.1152C13.0578 12.0782 13.0356 12.038 13.0111 12C14.0032 12 14.9953 12 15.9863 12C15.9941 12.0141 16.0008 12.0293 16.0097 12.0424C16.8474 13.2352 17.685 14.428 18.5227 15.6198C18.5349 15.6372 18.5449 15.6578 18.5572 15.6806C19.6504 14.4411 20.7247 13.22 21.7979 12C22.0912 12 22.3845 12 22.6767 12ZM21.7912 21.371C21.7601 21.3254 21.7401 21.296 21.719 21.2667C21.1802 20.5128 20.6403 19.7588 20.1014 19.0038C18.6116 16.9202 17.1207 14.8365 15.6342 12.7507C15.5775 12.6714 15.5197 12.6442 15.4231 12.6453C15.0542 12.6507 14.6843 12.6475 14.3154 12.6475C14.2843 12.6475 14.2532 12.6507 14.211 12.6529C14.2343 12.6877 14.2488 12.7127 14.2654 12.7355C16.3074 15.5926 18.3505 18.4487 20.3914 21.3069C20.4281 21.358 20.4658 21.3775 20.5303 21.3775C20.9158 21.3743 21.3024 21.3764 21.6879 21.3753C21.7157 21.3764 21.7446 21.3732 21.7912 21.371Z" fill="white"/>
</svg>
