<svg width="55" height="56" viewBox="0 0 55 56" fill="none" xmlns="http://www.w3.org/2000/svg">
<path d="M16.7726 55.309C15.9122 55.0555 15.0632 54.7789 14.3978 54.1335C14.0651 53.8108 13.7783 53.4535 13.4111 53.0386C13.9962 52.6928 14.4896 52.4047 15.0403 52.082C15.8663 53.4304 17.1627 53.4881 18.5394 53.4766C24.815 53.4535 31.0791 53.465 37.3546 53.465C38.9034 53.465 40.1425 52.5891 40.2916 51.2522C40.4063 50.1919 40.3146 49.1085 40.3146 47.956C34.865 47.956 29.3926 47.956 23.8972 47.956C23.8972 47.3221 23.8972 46.7574 23.8972 46.112C29.3581 46.112 34.8306 46.112 40.3604 46.112C40.3604 44.8673 40.3604 43.6802 40.3604 42.447C40.9914 42.447 41.5651 42.447 42.1846 42.447C42.1961 42.5853 42.219 42.7236 42.219 42.8619C42.219 45.3859 42.2305 47.8984 42.219 50.4224C42.2075 52.4047 41.393 53.926 39.5803 54.825C39.1443 55.044 38.6395 55.1362 38.1692 55.2975C31.0446 55.309 23.9086 55.309 16.7726 55.309Z" fill="#E54800"/>
<path d="M32.101 23.0387C32.101 23.6726 32.101 24.2373 32.101 24.8827C31.2979 24.8827 30.5178 24.8942 29.7376 24.8712C29.4164 24.8597 29.2902 24.9864 29.2673 25.2976C28.7166 30.8758 24.1849 35.3821 18.5633 35.8777C18.5288 35.8777 18.4944 35.9007 18.3912 35.9353C18.3912 36.8112 18.3912 37.7217 18.3912 38.6667C17.7602 38.6667 17.1865 38.6667 16.5326 38.6667C16.5326 37.9868 16.4982 37.2952 16.5441 36.6037C16.5785 36.0736 16.4408 35.8892 15.8672 35.82C10.4062 35.1055 6.31044 30.8873 5.61061 25.3322C5.59914 25.2054 5.57619 25.0902 5.55325 24.8942C4.64691 24.8942 3.74056 24.8942 2.7998 24.8942C2.7998 24.2604 2.7998 23.6956 2.7998 23.0502C3.71762 23.0502 4.61249 23.0502 5.54177 23.0502C5.71386 21.4713 6.08099 20.0191 6.75788 18.6591C7.99693 16.1697 9.86697 14.3257 12.368 13.1386C12.7237 12.9657 12.8613 12.7813 12.8613 12.378C12.8384 9.88854 12.8384 7.41064 12.8499 4.92122C12.8613 1.92469 14.8002 0 17.7716 0C21.3167 0 24.8732 0 28.4183 0C31.4127 0 34.407 0 37.4014 0C38.7437 0 39.6959 0.345753 40.6367 1.17556C40.2466 1.61352 39.8565 2.05147 39.4435 2.53552C38.6749 1.85554 37.7685 1.83249 36.8392 1.83249C30.4719 1.84402 24.0931 1.84402 17.7143 1.84402C16.2114 1.84402 15.1329 2.59315 14.8117 3.90701C14.6855 4.40259 14.7199 4.93275 14.6625 5.509C19.5958 5.509 24.4373 5.509 29.3246 5.509C29.3246 6.14288 29.3246 6.71914 29.3246 7.36454C24.4717 7.36454 19.6187 7.36454 14.7314 7.36454C14.7314 9.03568 14.7314 10.6377 14.7314 12.2858C15.2362 12.2166 15.7295 12.182 16.2114 12.0668C16.349 12.0322 16.5097 11.7902 16.5097 11.6288C16.5441 10.8567 16.5211 10.0845 16.5211 9.26619C17.1292 9.26619 17.7143 9.26619 18.3568 9.26619C18.3568 10.0499 18.3797 10.8106 18.3453 11.5827C18.3338 11.9515 18.46 12.0668 18.8271 12.1129C24.2652 12.7122 28.6133 17.0802 29.2443 22.5662C29.2902 22.9234 29.3935 23.0733 29.7721 23.0502C30.5407 23.0156 31.3094 23.0387 32.101 23.0387ZM14.4331 25.6434C12.4369 23.1078 12.368 20.7106 14.2036 18.8436C15.7639 17.2416 18.3797 17.0456 20.158 18.3941C21.0872 19.0971 21.6838 20.0076 21.9248 21.1486C22.2919 22.9119 21.6953 24.3871 20.4333 25.6434C22.7737 27.0149 23.8636 29.0433 23.8981 31.7862C26.0205 29.9192 27.1907 27.6948 27.489 24.8942C26.8695 24.8942 26.3073 24.8942 25.7452 24.8942C25.7452 24.2488 25.7452 23.6841 25.7452 23.0387C26.3303 23.0387 26.8924 23.0387 27.4661 23.0387C27.0875 17.8524 22.5328 14.0837 18.3912 13.9684C18.3912 14.5216 18.3912 15.0633 18.3912 15.6511C17.7602 15.6511 17.1751 15.6511 16.5441 15.6511C16.5441 15.0748 16.5441 14.5216 16.5441 13.9684C11.7944 14.1413 7.60686 18.6015 7.5036 23.0733C8.05429 23.0733 8.59351 23.0733 9.15567 23.0733C9.15567 23.7071 9.15567 24.2949 9.15567 24.9288C8.55909 24.9288 8.01987 24.9288 7.42329 24.9288C7.74453 27.6833 8.88032 29.9192 11.0257 31.7978C11.0257 29.0087 12.1386 26.9918 14.4331 25.6434ZM18.3682 34.0106C19.309 34.0221 21.1217 33.5381 21.8215 33.0771C21.9248 33.0079 22.028 32.835 22.028 32.7083C22.028 32.0398 22.028 31.3713 21.9592 30.7144C21.7527 28.8128 20.2153 27.1762 18.3109 26.8189C16.4179 26.4616 14.4331 27.3952 13.4923 29.0202C12.804 30.2073 12.8499 31.4981 12.8728 32.8005C12.8728 32.8927 12.9416 33.0194 13.0105 33.054C14.1004 33.5957 15.2477 33.953 16.5441 34.0336C16.5441 33.4228 16.5441 32.8696 16.5441 32.3164C17.1751 32.3164 17.7602 32.3164 18.3682 32.3164C18.3682 32.9042 18.3682 33.4343 18.3682 34.0106ZM17.4504 24.8712C18.9533 24.8712 20.1924 23.638 20.1924 22.1282C20.1924 20.6415 18.9533 19.3737 17.4504 19.3507C15.936 19.3276 14.6855 20.6069 14.697 22.1397C14.7199 23.6726 15.9245 24.8827 17.4504 24.8712Z" fill="#E54800"/>
<path d="M40.4417 27.8331C40.4417 24.6983 40.4417 21.6095 40.4417 18.4862C40.9923 18.4862 41.5774 18.4862 42.2084 18.4862C42.2084 21.0218 42.2084 23.5573 42.2084 26.2542C42.4838 26.0237 42.6559 25.8854 42.8165 25.7355C45.2487 23.5803 47.6809 21.4251 50.1131 19.2699C51.6046 17.9561 53.6926 18.2442 54.6448 19.8693C55.207 20.8143 55.0923 22.3817 54.3465 23.2576C52.8895 24.9634 51.3866 26.6345 49.9066 28.3287C47.1302 31.4866 44.3538 34.6444 41.5889 37.8138C41.4168 38.0098 41.2792 38.2979 41.2333 38.563C40.6941 41.9629 38.2045 44.1872 34.7742 44.2449C32.755 44.2794 30.7243 44.2564 28.7051 44.2564C28.1888 44.2564 27.7299 44.1296 27.5693 43.5534C27.4202 43.0001 27.7414 42.6774 28.1659 42.4124C29.0263 41.8822 29.382 41.087 29.359 40.0958C29.3361 38.7589 29.3132 37.422 29.8983 36.1773C30.9193 33.9645 32.6402 32.6852 35.038 32.3164C35.2331 32.2818 35.474 32.2357 35.6117 32.1089C37.2522 30.6798 38.8699 29.2276 40.4417 27.8331ZM40.4072 36.3963C40.4646 36.3386 40.5334 36.2349 40.6137 36.1542C44.6521 31.5557 48.702 26.9457 52.7404 22.3472C52.8895 22.1743 53.0387 21.9783 53.1304 21.7709C53.3255 21.3445 53.2107 20.9526 52.901 20.6299C52.5912 20.3072 52.1782 20.215 51.7652 20.3879C51.5357 20.4801 51.3407 20.653 51.1571 20.8143C47.6235 23.9376 44.09 27.0724 40.5564 30.2073C39.4321 31.21 38.3077 32.2011 37.2064 33.1808C38.2733 34.2526 39.3288 35.3014 40.4072 36.3963ZM30.7014 42.3663C32.2846 42.3663 33.776 42.4239 35.2675 42.3547C37.3899 42.2395 39.0764 40.6144 39.3747 38.4823C39.3976 38.321 39.3403 38.0905 39.2255 37.9752C38.0324 36.7535 36.8278 35.5549 35.6231 34.3563C35.5199 34.2526 35.3134 34.1719 35.1642 34.1834C33.1794 34.4024 31.5159 36.1312 31.2635 38.1135C31.08 39.5196 31.4815 40.9948 30.7014 42.3663Z" fill="#E54800"/>
<path d="M42.254 3.67651C45.4778 3.67651 48.7016 3.67651 51.9255 3.67651C52.9351 3.67651 53.2333 3.97617 53.2333 5.0019C53.2333 8.42486 53.2333 11.8363 53.2333 15.2592C53.2333 16.2965 52.9465 16.5962 51.9369 16.5962C45.4549 16.5962 38.9728 16.5962 32.4793 16.5962C31.5041 16.5962 31.1943 16.2735 31.1943 15.2938C31.1943 11.8593 31.1943 8.42486 31.1943 4.97885C31.1943 3.97617 31.5041 3.67651 32.5252 3.67651C35.7719 3.67651 39.0187 3.67651 42.254 3.67651ZM33.0644 5.55511C33.0644 8.62078 33.0644 11.6519 33.0644 14.7176C39.1793 14.7176 45.2713 14.7176 51.3633 14.7176C51.3633 11.6404 51.3633 8.60926 51.3633 5.55511C45.2598 5.55511 39.1793 5.55511 33.0644 5.55511Z" fill="#E54800"/>
<path d="M12.8494 41.4904C12.8494 39.9461 12.8494 38.4478 12.8494 36.9034C13.4804 36.9034 14.0426 36.9034 14.6736 36.9034C14.6736 38.4132 14.6736 39.923 14.6736 41.4904C14.926 41.4904 15.121 41.4904 15.316 41.4904C17.1631 41.4904 19.0102 41.4904 20.8573 41.4904C21.6948 41.4904 22.039 41.8247 22.039 42.666C22.0505 44.948 22.039 47.2415 22.039 49.5234C22.039 50.3648 21.7063 50.699 20.8573 50.699C14.295 50.699 7.74406 50.699 1.18169 50.699C0.332708 50.699 0 50.3648 0 49.5234C0 47.2415 0 44.948 0 42.666C0 41.8247 0.34418 41.4904 1.18169 41.4904C4.85294 41.4904 8.5242 41.4904 12.2069 41.4904C12.402 41.4904 12.597 41.4904 12.8494 41.4904ZM1.85857 48.8204C7.97351 48.8204 14.054 48.8204 20.169 48.8204C20.169 46.9879 20.169 45.1785 20.169 43.3575C14.054 43.3575 7.97351 43.3575 1.85857 43.3575C1.85857 45.1785 1.85857 46.9649 1.85857 48.8204Z" fill="#E54800"/>
<path d="M5.5413 3.67651C6.95244 3.67651 8.37505 3.67651 9.78619 3.67651C10.6925 3.68804 11.0138 3.99922 11.0138 4.92123C11.0252 7.16862 11.0252 9.42754 11.0138 11.6749C11.0138 12.6085 10.7155 12.9081 9.78619 12.9081C6.94097 12.9081 4.08427 12.9081 1.23905 12.9081C0.321235 12.9081 0 12.5969 0 11.6865C0 9.43907 0 7.18015 0 4.93275C0 4.01074 0.332708 3.68804 1.23905 3.68804C2.67313 3.67651 4.10722 3.67651 5.5413 3.67651ZM1.85857 11.018C4.30225 11.018 6.71151 11.018 9.13225 11.018C9.13225 9.18551 9.13225 7.37607 9.13225 5.54358C6.68857 5.54358 4.29078 5.54358 1.85857 5.54358C1.85857 7.37607 1.85857 9.16246 1.85857 11.018Z" fill="#E54800"/>
<path d="M28.4289 49.8346C28.4289 50.4454 28.4289 51.0102 28.4289 51.5979C27.8323 51.5979 27.2702 51.5979 26.6621 51.5979C26.6621 51.0102 26.6621 50.4454 26.6621 49.8346C27.2243 49.8346 27.8094 49.8346 28.4289 49.8346Z" fill="#E54800"/>
<path d="M49.5503 11.0986C49.5503 11.7095 49.5503 12.2627 49.5503 12.862C44.6629 12.862 39.81 12.862 34.9111 12.862C34.9111 12.2742 34.9111 11.7095 34.9111 11.0986C39.787 11.0986 44.64 11.0986 49.5503 11.0986Z" fill="#E54800"/>
<path d="M40.418 9.18551C40.418 8.5862 40.418 8.02148 40.418 7.41064C43.4582 7.41064 46.4755 7.41064 49.5273 7.41064C49.5273 7.99843 49.5273 8.57468 49.5273 9.18551C46.487 9.18551 43.4697 9.18551 40.418 9.18551Z" fill="#E54800"/>
<path d="M34.9111 7.39917C36.1158 7.39917 37.286 7.39917 38.5021 7.39917C38.5021 7.98695 38.5021 8.55168 38.5021 9.16251C37.3204 9.16251 36.1387 9.16251 34.9111 9.16251C34.9111 8.59778 34.9111 8.03305 34.9111 7.39917Z" fill="#E54800"/>
<path d="M10.1309 46.9763C10.1309 46.3655 10.1309 45.7892 10.1309 45.2014C12.8614 45.2014 15.5804 45.2014 18.3338 45.2014C18.3338 45.7892 18.3338 46.3655 18.3338 46.9763C15.6033 46.9763 12.8843 46.9763 10.1309 46.9763Z" fill="#E54800"/>
<path d="M3.68262 46.9648C3.68262 46.3655 3.68262 45.8123 3.68262 45.213C5.19701 45.213 6.7114 45.213 8.23727 45.213C8.23727 45.7893 8.23727 46.354 8.23727 46.9648C6.73435 46.9648 5.23143 46.9648 3.68262 46.9648Z" fill="#E54800"/>
<path d="M3.69434 7.38757C4.91044 7.38757 6.08065 7.38757 7.29676 7.38757C7.29676 7.98688 7.29676 8.56313 7.29676 9.17396C6.09212 9.17396 4.91044 9.17396 3.69434 9.17396C3.69434 8.58618 3.69434 8.02145 3.69434 7.38757Z" fill="#E54800"/>
</svg>
