<svg width="16" height="16" viewBox="0 0 16 16" fill="none" xmlns="http://www.w3.org/2000/svg">
<g clip-path="url(#clip0_3_812)">
<path d="M6 8C8.206 8 10 6.206 10 4C10 1.794 8.206 0 6 0C3.794 0 2 1.794 2 4C2 6.206 3.794 8 6 8ZM10.724 16H8.66667V13.9427L13.5167 9.09267C14.0847 8.52467 15.006 8.52467 15.574 9.09267C16.142 9.66067 16.142 10.582 15.574 11.15L10.724 16ZM7.33333 16H0V12.6667C0 10.8287 1.49533 9.33333 3.33333 9.33333H8.66667C9.43 9.33333 10.126 9.602 10.6887 10.0353L7.33333 13.3907V16Z" fill="#06B453"/>
</g>
<defs>
<clipPath id="clip0_3_812">
<rect width="16" height="16" fill="white"/>
</clipPath>
</defs>
</svg>
