<svg width="476" height="105" viewBox="0 0 476 105" fill="none" xmlns="http://www.w3.org/2000/svg">
<path d="M1.30571 42.8421C0.269831 43.2255 -0.259069 44.3761 0.124377 45.412C0.507824 46.4479 1.65841 46.9768 2.69429 46.5933L1.30571 42.8421ZM302.5 82.7178L303.752 84.2776L303.812 84.2292L303.868 84.1763L302.5 82.7178ZM218.5 96.2178L219.301 94.385L218.5 96.2178ZM2.69429 46.5933C32.7726 35.4594 81.9076 20.4199 131.479 11.5112C156.263 7.05709 181.111 4.14383 203.715 4.00518C226.346 3.86636 246.582 6.51081 262.228 13.0625L263.772 9.37293C247.418 2.52462 226.571 -0.135095 203.691 0.00525248C180.785 0.145762 155.695 3.09501 130.771 7.57425C80.9257 16.5322 31.5608 31.6427 1.30571 42.8421L2.69429 46.5933ZM262.228 13.0625C294.02 26.3756 306.566 40.7436 309.884 52.7985C313.187 64.7984 307.536 75.2502 301.132 81.2593L303.868 84.1763C310.964 77.5187 317.563 65.6204 313.741 51.7369C309.934 37.9085 295.98 22.8598 263.772 9.37293L262.228 13.0625ZM301.248 81.1579C294.703 86.41 282.654 93.4504 267.981 97.2956C253.328 101.135 236.184 101.759 219.301 94.385L217.699 98.0506C235.616 105.876 253.722 105.167 268.994 101.165C284.246 97.1684 296.797 89.8589 303.752 84.2776L301.248 81.1579ZM219.301 94.385C208.955 89.8663 203.766 82.7191 202.838 74.6914C201.898 66.555 205.283 57.0572 213.086 47.8889C228.671 29.5742 261.418 13.2177 308.5 13.2177V9.21771C260.582 9.21771 226.579 25.8613 210.039 45.2966C201.779 55.0033 197.758 65.568 198.865 75.1504C199.984 84.8414 206.295 93.0693 217.699 98.0506L219.301 94.385ZM308.5 13.2177C355.816 13.2177 389.997 19.4422 415.927 27.1964C441.903 34.9644 459.571 44.2454 474.208 50.5544L475.792 46.8811C461.429 40.6901 443.347 31.2211 417.073 23.3641C390.753 15.4932 356.184 9.21771 308.5 9.21771V13.2177Z" fill="url(#paint0_linear_3_156)"/>
<defs>
<linearGradient id="paint0_linear_3_156" x1="2" y1="47" x2="475" y2="52" gradientUnits="userSpaceOnUse">
<stop stop-color="#FAA9AA"/>
<stop offset="1" stop-color="#FAA9AA" stop-opacity="0"/>
</linearGradient>
</defs>
</svg>
