<svg width="1920" height="963" viewBox="0 0 1920 963" fill="none" xmlns="http://www.w3.org/2000/svg">
<path d="M467.163 424.165L467.278 426.161L467.163 424.165ZM1921.84 2.77815C1922.27 1.76061 1921.8 0.587343 1920.78 0.157586C1919.76 -0.272172 1918.59 0.204318 1918.16 1.22185L1921.84 2.77815ZM1.98153 962.271C13.696 876.676 51.0657 747.097 125.047 636.687C199.006 526.311 309.419 435.263 467.278 426.161L467.048 422.168C307.558 431.364 196.137 523.407 121.724 634.461C47.3339 745.48 9.79643 875.67 -1.98153 961.729L1.98153 962.271ZM467.278 426.161C566.323 420.451 691.017 427.998 826.471 433.352C961.851 438.703 1107.87 441.854 1249.29 427.298C1532.12 398.187 1797.08 298.177 1921.84 2.77815L1918.16 1.22185C1794.24 294.632 1531.12 394.268 1248.88 423.319C1107.76 437.844 961.987 434.705 826.629 429.355C691.342 424.008 566.346 416.443 467.048 422.168L467.278 426.161Z" fill="url(#paint0_linear_3_496)" fill-opacity="0.35"/>
<defs>
<linearGradient id="paint0_linear_3_496" x1="1030" y1="2" x2="1040.61" y2="961.999" gradientUnits="userSpaceOnUse">
<stop stop-color="#FBAAAB" stop-opacity="0.5"/>
<stop offset="1" stop-color="#FBAAAB" stop-opacity="0.05"/>
</linearGradient>
</defs>
</svg>
